<svg width="398" height="263" viewBox="0 0 398 263" fill="none" xmlns="http://www.w3.org/2000/svg">
<g clip-path="url(#clip0_368_3031)">
<path d="M139.13 107.879C138.415 107.866 135.266 107.92 130.909 107.871C126.232 107.817 122.467 107.693 120.161 107.603C112.947 154.498 105.729 201.393 98.5156 248.289C110.497 248.078 122.479 247.868 134.461 247.658C137.922 214.105 141.379 180.555 144.839 147.002C146.319 180.939 147.799 214.871 149.279 248.808C159.863 248.19 170.447 247.575 181.035 246.957C177.426 201.554 173.818 156.151 170.209 110.748C160.985 109.215 150.565 108.097 139.13 107.866V107.879Z" fill="#040C12"/>
<path d="M145.103 148.074C145.691 146.223 146.282 144.372 146.87 142.516L146.656 142.792C148.486 141.589 150.006 139.989 151.104 138.092C151.404 137.577 150.607 137.107 150.306 137.622C149.336 139.296 148.013 140.752 146.414 141.84C146.007 142.116 145.945 142.372 145.793 142.842C145.621 143.386 145.448 143.926 145.275 144.471C144.918 145.588 144.564 146.705 144.207 147.823C144.026 148.392 144.918 148.635 145.099 148.07L145.103 148.074Z" fill="#F6BFB0"/>
<path d="M133.828 118.471C133.47 122.4 133.117 126.329 132.759 130.259C132.751 130.358 132.554 131.681 132.628 131.714C132.513 131.66 132.874 131.298 132.706 131.462C132.64 131.524 132.591 131.607 132.533 131.677C132.336 131.92 132.13 132.163 131.921 132.398C130.342 134.2 128.562 135.878 126.536 137.161C125.262 137.965 123.848 138.641 122.343 138.847C120.839 139.053 119.273 138.665 117.991 137.742C117.506 137.391 117.045 138.195 117.522 138.542C122.533 142.149 128.488 137.453 131.904 133.792C132.393 133.268 132.87 132.728 133.314 132.168C133.565 131.85 133.565 131.549 133.598 131.157L134.21 124.375C134.387 122.404 134.568 120.438 134.744 118.467C134.798 117.873 133.873 117.877 133.82 118.467L133.828 118.471Z" fill="#FCEBE6"/>
<path d="M159.945 117.811V131.199C159.945 131.504 159.912 131.776 160.068 132.048C160.923 133.524 162.193 134.872 163.496 135.948C166.045 138.051 169.21 139.123 172.481 138.307C173.057 138.162 172.814 137.268 172.235 137.412C167.598 138.571 163.319 135.429 160.919 131.669C160.898 131.636 160.857 131.537 160.82 131.512C160.726 131.454 160.882 131.677 160.861 131.698C160.902 131.656 160.861 131.355 160.861 131.298V117.811C160.861 117.213 159.937 117.213 159.937 117.811H159.945Z" fill="#FCEBE6"/>
<path d="M208.484 104.675C207.859 104.036 206.922 103.063 205.82 101.839C202.713 98.3796 200.842 95.7532 196.707 90.0304C195.581 88.4761 193.621 85.7631 191.068 82.2544C185.157 85.1158 179.247 87.9772 173.336 90.8344C175.206 93.6422 177.66 96.8417 180.837 100.082C185.474 104.807 190.139 108.081 193.892 110.299C194.052 111.079 194.286 111.932 194.624 112.827C195.696 115.672 197.349 117.684 198.619 118.949C198.935 119.292 203.407 124.045 205.195 122.961C205.487 122.784 205.853 122.363 205.919 121.217C206.515 122.293 207.826 122.594 208.656 122.054C209.302 121.633 209.614 120.731 209.355 119.861C210.37 121.168 212.01 121.209 212.68 120.5C213.161 119.988 213.202 119.019 212.767 118.15C213.687 118.389 214.579 117.939 214.847 117.222C215.134 116.459 214.596 115.733 214.559 115.684C213.165 114.344 211.772 113.004 210.379 111.668" fill="#FCEBE6"/>
<path d="M208.809 104.349C206.412 101.905 204.164 99.3276 202.088 96.6064C199.885 93.7162 197.789 90.7435 195.659 87.8038C194.262 85.8742 192.864 83.9487 191.467 82.0233C191.311 81.8089 191.081 81.7388 190.834 81.8583C184.923 84.7197 179.012 87.5811 173.102 90.4384C172.888 90.5414 172.806 90.8754 172.937 91.0733C177.266 97.5506 182.745 103.212 189.083 107.73C190.567 108.786 192.092 109.775 193.658 110.703L193.444 110.427C193.892 112.55 194.731 114.583 195.927 116.393C196.671 117.518 197.55 118.516 198.483 119.485C199.215 120.248 199.992 120.978 200.814 121.65C201.735 122.404 202.799 123.245 203.987 123.517C204.493 123.633 205.031 123.625 205.479 123.336C206.17 122.887 206.326 121.984 206.383 121.225L205.52 121.46C206.108 122.441 207.275 123.043 208.406 122.689C209.647 122.301 210.103 120.924 209.799 119.749L209.026 120.198C209.795 121.138 211.123 121.736 212.315 121.279C213.716 120.743 213.708 119.093 213.161 117.923L212.639 118.603C214.345 118.978 215.985 117.539 215.151 115.791C215.011 115.502 214.826 115.308 214.596 115.086C214.164 114.669 213.733 114.253 213.301 113.841C212.438 113.008 211.571 112.179 210.708 111.346C210.276 110.934 209.622 111.59 210.054 112.002C211.279 113.181 212.504 114.356 213.729 115.535C214.123 115.915 214.588 116.315 214.452 116.941C214.3 117.634 213.494 117.84 212.89 117.708C212.475 117.617 212.195 118.021 212.368 118.388C212.717 119.139 212.771 120.281 211.768 120.475C210.942 120.631 210.185 120.157 209.684 119.539C209.376 119.164 208.804 119.572 208.911 119.988C209.1 120.718 208.866 121.621 208.048 121.823C207.345 121.996 206.675 121.58 206.322 120.99C206.075 120.578 205.496 120.78 205.459 121.225C205.422 121.67 205.364 122.384 204.9 122.606C204.575 122.759 204.143 122.619 203.835 122.503C202.803 122.116 201.883 121.361 201.056 120.648C199.515 119.32 198.011 117.807 196.864 116.125C195.717 114.443 194.969 112.748 194.5 110.868C194.393 110.447 194.402 110.08 194.015 109.837C193.703 109.639 193.378 109.458 193.062 109.26C192.388 108.844 191.718 108.415 191.06 107.974C187.858 105.83 184.857 103.389 182.099 100.692C178.971 97.6331 176.172 94.248 173.739 90.6074L173.574 91.2424C179.485 88.381 185.396 85.5196 191.307 82.6623L190.674 82.4974C192.975 85.6639 195.269 88.8345 197.567 92.0092C199.63 94.8624 201.689 97.732 203.967 100.42C205.306 102.003 206.712 103.533 208.163 105.013C208.582 105.438 209.236 104.782 208.817 104.358L208.809 104.349Z" fill="#040C12"/>
<path d="M199.429 119.114C199.42 118.685 199.466 118.133 199.757 117.795C200.156 117.333 201.036 117.799 201.471 118.017C203.079 118.809 204.406 120.236 205.594 121.551C205.993 121.996 206.646 121.336 206.248 120.895C204.879 119.382 203.321 117.733 201.385 116.974C200.555 116.648 199.601 116.471 198.993 117.279C198.611 117.786 198.491 118.491 198.504 119.114C198.516 119.737 199.441 119.712 199.429 119.114Z" fill="#040C12"/>
<path d="M210.165 120C209.055 118.92 207.925 117.861 206.778 116.822C205.898 116.026 204.998 115.131 203.95 114.554C203.272 114.179 202.553 114.067 201.833 114.401C200.691 114.933 200.156 116.203 200.444 117.407C200.584 117.988 201.476 117.741 201.336 117.16C201.126 116.273 201.669 115.23 202.61 115.119C203.132 115.057 203.683 115.449 204.106 115.758C204.998 116.409 205.808 117.18 206.622 117.927C207.6 118.821 208.566 119.732 209.515 120.656C209.943 121.072 210.597 120.417 210.169 120H210.165Z" fill="#040C12"/>
<path d="M213.095 117.819C211.994 116.838 210.9 115.853 209.815 114.859C208.903 114.022 208.019 113.14 207.045 112.373C206.284 111.771 205.322 111.14 204.319 111.511C203.14 111.948 202.437 113.259 202.568 114.484C202.63 115.069 203.559 115.078 203.493 114.484C203.399 113.602 203.945 112.257 205.014 112.323C205.943 112.381 206.831 113.379 207.464 113.956C209.12 115.465 210.765 116.982 212.437 118.471C212.881 118.867 213.539 118.211 213.091 117.815L213.095 117.819Z" fill="#040C12"/>
<path d="M211.365 111.969C210.822 111.391 210.247 110.843 209.63 110.344C209.117 109.928 208.545 109.54 207.9 109.375C207.197 109.194 206.371 109.326 205.812 109.808C205.171 110.361 205.08 111.317 205.323 112.08C205.504 112.645 206.396 112.406 206.215 111.833C206.054 111.325 206.067 110.674 206.585 110.385C207.045 110.13 207.604 110.196 208.06 110.414C209.075 110.901 209.914 111.779 210.707 112.62C211.118 113.057 211.768 112.397 211.361 111.965L211.365 111.969Z" fill="#040C12"/>
<path d="M210.641 111.886C211.599 112.447 212.446 112.818 213.062 113.057C214.682 113.684 215.261 113.614 215.578 113.539C215.886 113.469 216.716 113.284 216.909 112.74C217.197 111.927 215.907 110.781 213.88 109.016C212.244 107.594 211.467 107.173 210.251 106.064C209.511 105.388 208.75 104.807 208.689 104.757C208.364 104.481 208.101 104.254 207.916 104.098" fill="#FCEBE6"/>
<path d="M210.407 112.286C211.731 113.049 213.272 113.841 214.805 114.022C215.664 114.125 216.926 113.832 217.304 112.971C217.765 111.919 216.585 110.86 215.919 110.221C214.666 109.025 213.322 107.932 211.949 106.877C210.674 105.895 209.458 104.815 208.241 103.764C207.793 103.376 207.135 104.032 207.588 104.419C208.558 105.256 209.532 106.085 210.514 106.906C211.497 107.726 212.615 108.526 213.622 109.4C214.23 109.928 214.838 110.456 215.418 111.016C215.78 111.371 216.211 111.763 216.417 112.237C216.721 112.933 215.496 113.123 215.101 113.115C214.448 113.098 213.786 112.835 213.182 112.604C212.38 112.294 211.616 111.911 210.872 111.482C210.354 111.185 209.889 111.985 210.403 112.282L210.407 112.286Z" fill="#040C12"/>
<path d="M175.096 93.2711C173.953 91.7126 172.782 90.0057 171.622 88.1421C170.562 86.4434 169.621 84.7942 168.786 83.2192C169.341 93.9555 169.896 104.692 170.451 115.432C164.035 117.354 154.589 119.391 143.092 119.123C133.154 118.888 124.92 117.003 119.01 115.164C118.977 106.003 118.944 96.8375 118.911 87.6762C112.224 87.4659 105.536 87.2515 98.8525 87.0412C99.4362 81.7761 100.936 73.7939 105.277 65.0902C106.892 61.8454 108.787 58.0893 112.174 54.3538C120.592 45.0687 132.377 42.8217 138.341 42.1867C141.321 41.8693 162.218 39.5727 174.023 52.2098C176.353 54.7043 178.996 59.0335 184.015 67.9598C187.562 74.2681 190.168 79.6527 191.87 83.3635" fill="#F6BFB0"/>
<path d="M175.498 93.0403C173.16 89.8449 171.051 86.4847 169.189 82.9883C168.975 82.5884 168.305 82.7657 168.326 83.2234C168.757 91.5684 169.189 99.9093 169.621 108.254C169.744 110.65 169.867 113.041 169.99 115.437L170.332 114.991C164.335 116.785 158.153 117.948 151.909 118.43C144.268 119.02 136.549 118.603 129.014 117.185C125.677 116.554 122.38 115.733 119.137 114.723L119.478 115.169C119.454 108.023 119.429 100.878 119.4 93.733C119.392 91.7168 119.388 89.7006 119.38 87.6804C119.38 87.4247 119.17 87.2227 118.919 87.2186C112.232 87.0083 105.544 86.7939 98.8606 86.5836L99.321 87.0454C99.8841 82.0112 101.023 77.0429 102.724 72.2726C103.777 69.3287 105.071 66.4921 106.494 63.7132C107.829 61.1033 109.317 58.5676 111.151 56.2752C114.607 51.9584 119.096 48.6394 124.123 46.3799C127.97 44.6483 132.093 43.5392 136.261 42.9166C138.341 42.6074 140.441 42.4218 142.541 42.3394C146.006 42.1992 149.496 42.3352 152.932 42.8135C157.228 43.4155 161.494 44.5452 165.399 46.4665C169.086 48.2807 172.494 50.8163 175.013 54.0983C177.533 57.3802 179.646 61.2064 181.73 64.8635C184.693 70.0544 187.538 75.3071 190.115 80.7042C190.575 81.6649 191.027 82.6296 191.471 83.5986C191.722 84.1387 192.519 83.6686 192.269 83.1285C189.93 78.0448 187.394 73.0518 184.66 68.1702C182.198 63.7709 179.765 59.3015 176.904 55.1455C174.689 51.9295 171.922 49.2578 168.601 47.1881C164.75 44.7884 160.393 43.2712 155.962 42.3888C152.197 41.6426 148.349 41.3292 144.514 41.3622C142.381 41.3787 140.252 41.5106 138.135 41.7457C134.222 42.1786 130.346 43.0197 126.638 44.3638C121.739 46.1449 117.148 48.8125 113.378 52.449C108.98 56.6875 105.988 62.1299 103.555 67.6837C101.273 72.8787 99.6745 78.3582 98.7989 83.9655C98.6386 84.988 98.503 86.0146 98.3879 87.0454C98.3591 87.301 98.6222 87.5031 98.8483 87.5072C105.536 87.7175 112.223 87.9319 118.907 88.1421L118.446 87.6804C118.471 94.8256 118.496 101.971 118.525 109.116C118.533 111.132 118.537 113.148 118.545 115.169C118.545 115.379 118.689 115.556 118.886 115.614C125.224 117.581 131.776 118.838 138.394 119.349C145.994 119.939 153.664 119.523 161.166 118.15C164.343 117.568 167.483 116.81 170.578 115.882C170.763 115.824 170.928 115.639 170.919 115.437C170.488 107.092 170.056 98.7507 169.625 90.4057C169.501 88.0102 169.378 85.6188 169.255 83.2234L168.392 83.4584C170.254 86.9547 172.362 90.315 174.701 93.5103C175.05 93.9845 175.852 93.5227 175.498 93.0403Z" fill="#040C12"/>
<path d="M119.232 87.631C121.961 82.7865 124.263 77.6327 125.611 72.2233C126.051 70.471 126.413 68.6774 126.557 66.8716C126.602 66.2778 125.677 66.2778 125.632 66.8716C125.323 70.7761 124.099 74.6723 122.68 78.3047C121.488 81.3599 120.042 84.3079 118.43 87.161C118.139 87.6805 118.936 88.1505 119.228 87.631H119.232Z" fill="#040C12"/>
<path d="M167.133 72.3466C167.52 76.2676 167.906 80.1886 168.293 84.1096C168.346 84.6703 168.404 85.2269 168.457 85.7877C168.515 86.3773 169.439 86.3814 169.382 85.7877C168.995 81.8667 168.609 77.9457 168.223 74.0246C168.169 73.4639 168.112 72.9073 168.058 72.3466C168.001 71.757 167.076 71.7529 167.133 72.3466Z" fill="#040C12"/>
<path d="M100.628 77.4507C99.3335 82.7447 98.2935 88.7849 97.8784 95.4725C96.5631 116.595 102.104 133.825 106.716 144.516C106.777 145.46 107.291 151.138 110.723 153.389C111.163 153.677 111.944 154.176 112.557 153.867C113.144 153.57 113.239 152.696 113.259 152.469C113.276 152.51 113.662 153.529 113.666 153.545C114.065 154.593 114.262 155.124 114.476 155.463C114.85 156.048 115.101 156.46 115.594 156.629C116.293 156.873 117.3 156.584 117.748 155.768C118.089 155.149 118.036 154.366 117.608 153.76C117.97 154.465 118.336 155.013 118.619 155.392C119.289 156.304 119.684 156.827 120.259 156.84C120.674 156.852 121.098 156.588 121.205 156.522C121.205 156.522 121.529 156.32 121.772 156.015C122.216 155.458 122.183 154.123 121.501 152.688C121.591 152.857 121.916 153.426 122.52 153.562C123.35 153.752 124.193 153.013 124.518 152.304C124.522 152.296 124.546 152.242 124.571 152.177C124.662 151.896 124.707 151.269 124.008 149.241C122.997 146.301 122.491 144.833 122.384 144.532C122.298 144.289 122.409 144.603 121.394 141.457C121.394 141.457 121.131 140.644 120.942 139.395C120.769 138.232 120.888 138.154 120.925 138.142C121.086 138.084 121.423 138.649 121.575 138.892C121.945 139.482 122.014 139.849 122.43 140.879C122.824 141.857 122.948 141.997 123.022 142.075C123.445 142.516 124.205 142.875 124.69 142.636C125.114 142.426 125.262 141.803 125.27 140.574C125.311 135.28 122.635 131.405 122.31 130.943C122.154 130.671 121.932 130.258 121.706 129.739C120.814 127.702 120.679 125.946 120.617 125.249C120.21 120.417 119.635 120.182 119.289 113.659C119.108 110.196 119.236 109.627 118.952 103.393C118.923 102.754 118.899 102.288 118.882 101.913C118.829 100.853 118.788 100.086 118.784 100.028C118.739 99.1461 118.722 96.1363 118.829 87.3954" fill="#FCEBE6"/>
<path d="M100.184 77.3272C98.5975 83.8251 97.6316 90.4755 97.3274 97.1589C97.0232 103.842 97.385 110.513 98.3673 117.114C99.2058 122.763 100.505 128.337 102.223 133.784C102.946 136.076 103.744 138.348 104.611 140.591C105.001 141.605 105.408 142.611 105.832 143.613C105.926 143.84 106.025 144.067 106.119 144.293C106.161 144.392 106.193 144.508 106.251 144.599C106.325 144.722 106.251 144.409 106.259 144.599C106.263 144.842 106.304 145.089 106.333 145.332C106.572 147.295 107.065 149.274 108.023 151.014C108.565 151.999 109.276 152.898 110.181 153.57C111.085 154.242 112.556 154.976 113.345 153.739C113.588 153.36 113.683 152.911 113.724 152.469L112.815 152.593C113.078 153.282 113.333 153.978 113.604 154.663C113.913 155.442 114.32 156.37 115.035 156.86C115.816 157.392 116.922 157.215 117.624 156.634C118.562 155.859 118.648 154.523 118.015 153.533C117.694 153.03 116.938 153.471 117.217 154.003C117.707 154.935 118.303 155.875 119.018 156.65C119.634 157.318 120.382 157.479 121.209 157.067C123.046 156.155 122.614 154.016 121.903 152.469L121.106 152.939C121.439 153.554 122.022 154.049 122.746 154.069C123.634 154.098 124.452 153.434 124.859 152.68C125.409 151.665 124.85 150.313 124.522 149.324C123.917 147.518 123.247 145.728 122.668 143.914C122.273 142.677 121.813 141.453 121.55 140.179C121.447 139.684 121.352 139.177 121.324 138.674C121.324 138.612 121.324 138.377 121.32 138.373C121.311 138.365 121.352 138.373 121.311 138.389C121.283 138.463 121.233 138.521 121.155 138.562C120.806 138.48 120.695 138.501 120.822 138.616C120.822 138.703 121.073 138.966 121.131 139.061C121.209 139.185 121.283 139.309 121.352 139.441C121.537 139.787 121.657 140.166 121.796 140.533C122.022 141.131 122.228 141.869 122.651 142.364C123.112 142.904 123.987 143.345 124.702 143.143C125.348 142.958 125.582 142.306 125.668 141.7C125.816 140.673 125.746 139.593 125.623 138.567C125.286 135.784 124.291 133.149 122.775 130.803C121.04 128.123 121.151 124.89 120.691 121.856C120.51 120.681 120.292 119.51 120.148 118.327C119.93 116.562 119.811 114.789 119.729 113.016C119.614 110.489 119.61 107.957 119.511 105.426C119.425 103.187 119.248 100.944 119.227 98.701C119.203 96.054 119.236 93.4029 119.264 90.7518C119.277 89.6344 119.289 88.5129 119.301 87.3956C119.31 86.7978 118.385 86.7978 118.377 87.3956C118.319 92.166 118.175 96.9528 118.418 101.723C118.574 104.762 118.66 107.796 118.73 110.835C118.792 113.713 118.952 116.603 119.375 119.452C119.54 120.57 119.749 121.683 119.902 122.804C120.086 124.169 120.128 125.554 120.374 126.911C120.65 128.44 121.168 130.061 122.043 131.359C122.627 132.225 123.116 133.17 123.519 134.134C124.217 135.812 124.665 137.606 124.785 139.42C124.818 139.927 124.83 140.438 124.813 140.95C124.801 141.292 124.813 141.778 124.624 142.079C124.423 142.401 124 142.207 123.732 142.051C123.589 141.968 123.453 141.865 123.342 141.741C123.362 141.766 123.334 141.741 123.284 141.646C122.902 140.954 122.68 140.187 122.38 139.457C122.158 138.921 121.801 138.092 121.283 137.783C119.865 136.946 120.646 140.335 120.711 140.64C121.04 142.129 121.574 143.588 122.076 145.031C122.577 146.475 123.079 147.926 123.572 149.373C123.81 150.078 124.082 150.82 124.156 151.562C124.164 151.653 124.168 151.748 124.168 151.839C124.168 151.876 124.143 152.036 124.168 151.933C124.111 152.206 123.934 152.445 123.745 152.643C123.124 153.29 122.343 153.245 121.911 152.457C121.624 151.925 120.867 152.391 121.114 152.927C121.603 153.991 122.088 155.636 120.752 156.254C120.041 156.584 119.655 155.982 119.264 155.463C118.8 154.844 118.389 154.205 118.027 153.525L117.23 153.995C117.735 154.787 117.546 155.838 116.597 156.168C115.75 156.461 115.29 155.892 114.895 155.228C114.369 154.35 114.085 153.302 113.724 152.346C113.535 151.851 112.865 151.938 112.815 152.469C112.778 152.865 112.643 153.463 112.166 153.5C111.619 153.541 110.966 153.014 110.563 152.688C109.712 151.999 109.087 151.08 108.61 150.103C107.838 148.528 107.418 146.751 107.242 145.011C107.221 144.813 107.233 144.59 107.184 144.397C107.069 143.943 106.794 143.485 106.613 143.052C106.214 142.096 105.832 141.139 105.458 140.175C104.632 138.031 103.871 135.866 103.176 133.677C101.549 128.543 100.295 123.287 99.4442 117.968C98.4454 111.713 98.0303 105.364 98.2029 99.0308C98.3797 92.5205 99.1894 86.0391 100.603 79.6855C100.76 78.9846 100.924 78.2837 101.097 77.5828C101.236 77.0014 100.344 76.7541 100.205 77.3354L100.184 77.3272Z" fill="#040C12"/>
<path d="M110.119 145.238C110.748 147.04 111.307 148.883 112.03 150.651C112.273 151.249 112.577 151.843 112.754 152.466C112.766 152.507 112.807 152.696 112.803 152.659C112.807 152.701 112.803 152.878 112.811 152.808C112.766 153.096 112.552 153.302 112.326 153.463C111.841 153.805 112.306 154.609 112.795 154.263C113.317 153.896 113.761 153.377 113.736 152.705C113.715 152.132 113.407 151.567 113.193 151.047C112.367 149.068 111.726 147.011 111.015 144.986C110.818 144.426 109.926 144.669 110.123 145.234L110.119 145.238Z" fill="#040C12"/>
<path d="M112.893 143.91C114.332 147.275 115.775 150.635 117.213 153.999C117.447 154.548 118.245 154.074 118.011 153.529C116.572 150.165 115.129 146.805 113.691 143.44C113.456 142.892 112.659 143.366 112.893 143.91Z" fill="#040C12"/>
<path d="M116.679 141.976C117.957 145.703 119.433 149.36 121.097 152.931C121.348 153.471 122.146 153.001 121.895 152.461C120.263 148.965 118.82 145.382 117.567 141.729C117.373 141.168 116.481 141.407 116.675 141.976H116.679Z" fill="#040C12"/>
<path d="M159.398 12.8057C159.591 16.8257 159.303 20.1323 158.966 22.5031C158.732 24.1606 158.342 26.3169 157.561 28.8113C156.599 31.883 155.769 33.1446 155.469 33.5817C154.4 35.1361 153.187 36.1627 152.324 36.7894C152.398 37.4615 152.509 38.1912 152.686 38.9664C153.027 40.4713 153.508 41.7535 153.989 42.7884C153.989 42.7884 154.055 50.9355 147.03 52.4116C140.005 53.8917 135.241 45.3529 135.484 43.1842C135.726 41.0155 135.476 42.7802 135.476 42.7802C135.476 42.7802 137.568 38.7643 137.276 34.5052C137.276 34.5052 134.177 31.7098 134.53 26.8117C134.53 26.8117 129.076 25.3068 130.852 21.5919C131.09 21.3528 131.928 20.5653 133.252 20.4539C134.123 20.3797 134.802 20.6354 135.139 20.7879C135.858 17.1596 136.577 13.5355 137.297 9.90723L159.398 12.8057Z" fill="#FCEBE6"/>
<path d="M158.934 12.8057C159.078 18.0502 158.695 23.4143 157.187 28.4526C156.566 30.5224 155.756 32.5963 154.392 34.2991C152.723 36.3812 150.318 37.614 147.659 37.7707C145.542 37.8985 143.409 37.4491 141.452 36.6533C140.902 36.4307 140.663 37.3254 141.206 37.548C145.48 39.288 150.709 39.2838 154.19 35.8947C155.884 34.2455 156.948 32.0685 157.705 29.8586C158.519 27.4837 159.082 25.0429 159.369 22.5484C159.743 19.3119 159.945 16.067 159.854 12.8057C159.838 12.212 158.913 12.2079 158.93 12.8057H158.934Z" fill="#040C12"/>
<path d="M135.036 22.7878C134.51 22.1899 133.614 21.9137 132.857 22.2064C132.043 22.5239 131.546 23.3774 131.657 24.2473C131.686 24.4865 131.846 24.7215 132.117 24.7091C132.343 24.7009 132.611 24.503 132.578 24.2473C132.57 24.169 132.561 24.0907 132.561 24.0082C132.561 23.967 132.561 23.9299 132.565 23.8928C132.565 23.7856 132.549 23.9587 132.565 23.8639C132.582 23.7897 132.598 23.7155 132.623 23.6413C132.627 23.6248 132.681 23.5134 132.631 23.6124C132.648 23.5794 132.664 23.5464 132.68 23.5134C132.697 23.4805 132.717 23.4475 132.738 23.4186C132.746 23.4021 132.82 23.3114 132.754 23.3939C132.804 23.3361 132.853 23.2825 132.907 23.2331C132.923 23.2166 133.013 23.163 132.927 23.2125C132.96 23.1918 132.989 23.1712 133.018 23.1506C133.046 23.13 133.079 23.1176 133.108 23.1011C133.207 23.0475 133.018 23.13 133.124 23.0929C133.19 23.0723 133.256 23.0517 133.322 23.0352L133.355 23.0269C133.408 23.0187 133.4 23.0187 133.334 23.0269C133.359 23.0145 133.412 23.0187 133.437 23.0187C133.49 23.0187 133.597 23.0022 133.646 23.0269L133.593 23.0187C133.618 23.0187 133.638 23.0269 133.663 23.031C133.696 23.0393 133.733 23.0475 133.766 23.0558C133.799 23.064 133.836 23.0764 133.868 23.0888C133.893 23.097 133.992 23.1424 133.893 23.097C133.955 23.1259 134.012 23.1547 134.07 23.1918C134.103 23.2125 134.131 23.2331 134.164 23.2537C134.193 23.2743 134.185 23.2661 134.144 23.2372C134.16 23.2496 134.173 23.2619 134.189 23.2743C134.251 23.3279 134.312 23.3897 134.366 23.4516C134.526 23.633 134.859 23.6289 135.019 23.4516C135.196 23.2578 135.192 22.9898 135.019 22.796L135.036 22.7878Z" fill="#040C12"/>
<path d="M134.054 27.0549C133.91 29.9328 134.971 32.7571 136.952 34.8392L136.816 34.5094C136.808 36.2328 136.652 37.9603 136.232 39.6343C136.011 40.529 135.715 41.4113 135.341 42.2524C135.193 42.5864 135.012 42.8502 135.082 43.2213C135.151 43.5924 135.254 43.9511 135.365 44.3098C136.023 46.4332 137.256 48.2514 138.83 49.7934C140.721 51.6488 143.212 53.1331 145.941 53.0094C148.991 52.8692 151.63 50.8407 153.069 48.2184C153.508 47.4144 153.854 46.5486 154.08 45.6622C154.306 44.7757 154.561 43.6913 154.45 42.7843C154.392 42.306 154.059 41.7947 153.895 41.3412C153.714 40.8506 153.549 40.3517 153.41 39.8487C153.126 38.8468 152.912 37.8201 152.785 36.7811C152.715 36.1957 151.79 36.1874 151.86 36.7811C152.02 38.1005 152.288 39.3993 152.686 40.665C152.801 41.032 152.929 41.3989 153.064 41.7576C153.2 42.1163 153.443 42.4957 153.517 42.8585C153.636 43.444 153.434 44.248 153.323 44.8211C152.842 47.2124 151.523 49.4925 149.48 50.8613C147.54 52.1601 145.189 52.4239 143.023 51.554C141.268 50.8489 139.78 49.5584 138.555 48.136C137.248 46.6146 136.36 44.8293 135.949 42.8544L135.904 43.2131C137.157 40.6156 137.688 37.7624 137.733 34.8887C137.741 34.4846 137.733 34.3279 137.474 34.0352C137.305 33.8455 137.133 33.6559 136.976 33.4539C136.545 32.9055 136.179 32.3035 135.875 31.6727C135.18 30.2338 134.892 28.6299 134.975 27.0425C135.003 26.4447 134.079 26.4488 134.05 27.0425L134.054 27.0549Z" fill="#040C12"/>
<path d="M148.643 23.9341C148.93 24.6969 149.185 25.472 149.366 26.2677C149.489 26.8202 149.584 27.3851 149.543 27.9541C149.539 28.0283 149.535 28.0819 149.502 28.1973C149.489 28.2386 149.477 28.2839 149.465 28.3251C149.424 28.4447 149.506 28.2592 149.448 28.3622C149.432 28.3952 149.411 28.4282 149.391 28.4571C149.452 28.3664 149.387 28.4653 149.362 28.4818C149.337 28.5024 149.346 28.4983 149.391 28.4612C149.354 28.4859 149.313 28.5066 149.276 28.5272C149.235 28.5478 149.198 28.5602 149.156 28.5766C148.593 28.791 147.932 28.6797 147.447 28.453C147.22 28.3458 146.949 28.3911 146.814 28.6179C146.694 28.8199 146.752 29.1456 146.978 29.2528C148.075 29.7682 150.09 29.9043 150.41 28.3746C150.546 27.7149 150.455 27.0223 150.328 26.3708C150.151 25.4514 149.863 24.5567 149.53 23.6826C149.44 23.4476 149.218 23.2868 148.963 23.3569C148.741 23.4187 148.552 23.6909 148.639 23.9259L148.643 23.9341Z" fill="#040C12"/>
<path d="M143.706 31.5448C144.972 31.8293 146.242 32.1137 147.508 32.3982L148.05 32.5219L147.845 31.7468C147.767 31.8457 147.676 31.9406 147.586 32.0313C147.491 32.1302 147.388 32.2209 147.286 32.3117C147.257 32.3364 147.228 32.357 147.203 32.3817C147.191 32.3941 147.175 32.4065 147.158 32.4189C147.113 32.456 147.232 32.3653 147.183 32.3982C147.113 32.4477 147.047 32.4972 146.977 32.5425C146.908 32.5879 146.842 32.6291 146.768 32.6704C146.731 32.691 146.694 32.7116 146.657 32.7281C146.624 32.7446 146.472 32.8064 146.599 32.7569C146.521 32.7858 146.443 32.8147 146.365 32.8394C146.324 32.8518 146.283 32.86 146.246 32.8683C146.221 32.8724 146.081 32.893 146.151 32.8848C146.229 32.8765 146.09 32.8848 146.073 32.8889C146.032 32.8889 145.987 32.8889 145.946 32.8889C145.929 32.8889 145.789 32.8765 145.863 32.8848C145.929 32.893 145.789 32.8683 145.765 32.8641C145.72 32.8518 145.679 32.8394 145.637 32.827C145.518 32.7899 145.654 32.8435 145.588 32.8064C145.485 32.7528 145.391 32.6992 145.296 32.6291C145.309 32.6374 145.362 32.6786 145.296 32.6291C145.263 32.6003 145.23 32.5714 145.202 32.5425C145.152 32.4972 145.103 32.4477 145.058 32.3982C144.951 32.2787 144.902 32.2127 144.807 32.0643C144.585 31.7221 144.417 31.351 144.277 30.9717C144.191 30.7367 143.964 30.5759 143.71 30.6459C143.484 30.7078 143.299 30.9799 143.385 31.2149C143.812 32.3694 144.556 33.763 145.95 33.8166C146.772 33.8495 147.536 33.3548 148.112 32.8105C148.247 32.6827 148.383 32.5467 148.498 32.3982C148.7 32.1426 148.667 31.7056 148.293 31.6231C147.027 31.3386 145.757 31.0541 144.491 30.7696L143.948 30.6459C143.368 30.514 143.122 31.4087 143.701 31.5406L143.706 31.5448Z" fill="#040C12"/>
<path d="M145.599 23.6823C145.687 22.8215 145.301 22.0767 144.736 22.0186C144.172 21.9606 143.643 22.6114 143.555 23.4722C143.467 24.333 143.853 25.0778 144.418 25.1358C144.982 25.1938 145.511 24.5431 145.599 23.6823Z" fill="#040C12"/>
<path d="M153.919 24.4562C154.007 23.5954 153.621 22.8506 153.056 22.7926C152.492 22.7345 151.963 23.3853 151.875 24.2461C151.787 25.1069 152.173 25.8517 152.738 25.9097C153.303 25.9678 153.832 25.317 153.919 24.4562Z" fill="#040C12"/>
<path d="M147.183 20.9941C147.096 21.1178 146.106 20.1448 144.416 19.9551C143.052 19.8026 142.127 20.2644 142.09 20.153C142.045 20.0128 143.372 19.0852 144.84 19.3202C146.311 19.5593 147.273 20.8622 147.179 20.9941H147.183Z" fill="#040C12"/>
<path d="M155.876 21.9712C155.79 22.0949 154.799 21.1218 153.11 20.9322C151.745 20.7796 150.82 21.2414 150.783 21.1301C150.738 20.9899 152.066 20.0622 153.533 20.2972C155.005 20.5364 155.967 21.8392 155.872 21.9712H155.876Z" fill="#040C12"/>
<path d="M135.431 31.6358C135.311 31.5657 135.143 31.4585 134.946 31.3265C129.688 27.7642 128.944 20.4788 128.595 17.0732C128.476 15.9064 128.081 11.3834 129.783 7.26451C130.145 6.39042 130.584 5.57819 131.37 4.87727C133.01 3.41772 135.003 3.47956 136.787 3.28578C141.132 2.81163 140.963 1.17891 145.115 0.370797C146.335 0.131661 152.369 -1.0434 157.273 2.6261C158.35 3.43009 160.306 5.17001 161.416 8.02314C163.274 12.7935 161.264 16.966 160.454 18.8667C160.2 19.4646 159.846 20.1696 159.123 20.4994C157.425 21.2787 154.568 19.6089 153.126 17.3783C151.597 15.0117 152.254 12.8306 151.276 12.5502C150.347 12.2864 149.796 14.2654 147.1 16.1455C146.187 16.7846 143.857 18.4091 140.84 18.4915C139.035 18.541 138.374 18.0009 137.728 18.5657C136.401 19.7326 137.412 23.4474 136.692 23.8391C136.668 23.8515 136.475 23.9092 136.216 23.9092C135.887 23.9092 135.628 23.8144 135.48 23.7484C135.533 23.1835 135.579 22.5898 135.616 21.9714C135.636 21.6333 135.644 21.3694 135.488 21.1096C135.447 21.0396 135.262 20.7633 134.682 20.6066C134.543 20.5695 132.13 19.9593 131.102 21.5797C130.469 22.5774 130.811 23.7113 130.852 23.835C130.95 24.1442 131.139 24.5235 131.6 25.0059C132.771 26.2181 134.341 26.651 135.209 26.8159C135.283 28.4239 135.357 30.0278 135.431 31.6358Z" fill="#040C12"/>
<path d="M224.417 150.488L247.246 146.971C247.571 146.922 247.85 146.724 248.006 146.435C248.031 146.39 249.001 144.584 249.026 144.539C249.034 144.526 249.581 143.508 249.589 143.491C249.844 143.265 249.905 142.927 249.77 142.708C249.659 142.527 249.449 142.481 249.396 142.469L229.633 141.166L224.417 150.488Z" fill="#F6BFB0"/>
<path d="M224.536 150.933C227.306 150.505 230.077 150.08 232.847 149.651L245.285 147.734L246.925 147.482C247.344 147.416 247.731 147.375 248.072 147.074C248.413 146.773 248.602 146.295 248.816 145.899C249.03 145.503 249.223 145.14 249.428 144.761C249.634 144.382 249.848 143.986 250.086 143.619C250.46 143.038 250.304 142.221 249.568 142.032C249.301 141.962 249.001 141.978 248.73 141.962L246.757 141.83C244.669 141.694 242.576 141.553 240.488 141.417C236.941 141.182 233.386 140.865 229.834 140.716C229.768 140.716 229.703 140.708 229.637 140.704C229.481 140.692 229.312 140.799 229.238 140.935C227.717 143.652 226.197 146.373 224.676 149.09L224.022 150.257C223.73 150.777 224.528 151.247 224.82 150.727C226.34 148.01 227.861 145.289 229.382 142.572L230.036 141.405L229.637 141.636C232.539 141.826 235.441 142.019 238.343 142.209C241.91 142.444 245.478 142.679 249.042 142.914C249.128 142.918 249.284 142.898 249.367 142.935C249.375 142.935 249.387 142.935 249.391 142.935C249.297 142.877 249.379 142.959 249.367 142.997C249.284 143.178 249.128 143.376 249.03 143.561C248.614 144.336 248.195 145.116 247.78 145.891C247.612 146.204 247.501 146.439 247.114 146.526C247.032 146.542 246.946 146.551 246.863 146.563L245.511 146.769C241.606 147.371 237.701 147.973 233.797 148.575C231.783 148.884 229.768 149.198 227.754 149.507C226.661 149.676 225.547 149.8 224.458 150.014C224.404 150.026 224.351 150.03 224.302 150.039C223.714 150.129 223.965 151.024 224.548 150.933H224.536Z" fill="#040C12"/>
<path d="M215.666 119.191C215.222 118.906 214.634 119.026 214.334 119.459L205.998 131.477L199.343 141.072C199.027 141.529 199.15 142.16 199.619 142.461L220.286 155.737C220.758 156.042 221.391 155.881 221.667 155.391L234.549 132.368C234.804 131.914 234.66 131.341 234.22 131.061L215.658 119.191H215.666Z" fill="#F6BFB0"/>
<path d="M215.899 118.786C214.987 118.291 214.247 118.77 213.733 119.516L212.455 121.359C211.082 123.338 209.709 125.317 208.336 127.3C206.688 129.675 205.04 132.05 203.396 134.425C202.101 136.293 200.806 138.16 199.511 140.028C199.178 140.506 198.714 141.013 198.714 141.632C198.714 142.329 199.178 142.725 199.7 143.059C202.882 145.104 206.067 147.149 209.249 149.194C212.652 151.379 216.055 153.568 219.459 155.753C219.693 155.906 219.927 156.079 220.178 156.203C220.988 156.603 221.769 156.162 222.172 155.444L224.001 152.179C226.323 148.031 228.646 143.879 230.964 139.731C231.938 137.987 232.912 136.247 233.886 134.503L234.712 133.027C234.922 132.652 235.148 132.302 235.136 131.848C235.119 131.151 234.63 130.776 234.112 130.442L232.604 129.477C230.799 128.323 228.999 127.172 227.195 126.018C223.643 123.746 220.092 121.474 216.541 119.207C216.327 119.071 216.113 118.931 215.895 118.794C215.394 118.473 214.929 119.277 215.427 119.594C218.033 121.26 220.639 122.926 223.245 124.591L233.414 131.093C233.648 131.242 234.079 131.427 234.182 131.712C234.297 132.021 234.026 132.359 233.882 132.615C233.196 133.844 232.505 135.076 231.819 136.305C229.546 140.366 227.273 144.427 225.004 148.489L222.25 153.411L221.481 154.784C221.272 155.164 221.066 155.605 220.523 155.337C219.755 154.953 219.031 154.376 218.308 153.914C216.582 152.805 214.859 151.696 213.133 150.591C209.393 148.188 205.648 145.784 201.908 143.38L200.391 142.407C200.177 142.271 199.84 142.123 199.704 141.896C199.45 141.459 200.103 140.791 200.337 140.453L202.035 138.004C203.745 135.538 205.455 133.077 207.161 130.611C209.536 127.185 211.912 123.763 214.284 120.336C214.551 119.953 214.847 119.277 215.427 119.594C215.949 119.879 216.417 119.079 215.895 118.794L215.899 118.786Z" fill="#040C12"/>
<path d="M210.481 110.309C211.488 109.695 216.659 106.685 222.755 108.433C228.666 110.128 231.366 115.121 232.603 117.417C235.863 123.453 235.168 129.374 234.798 131.555C234.157 131.102 233.516 130.648 232.875 130.195C233.093 128.158 233.212 124.29 231.383 120.093C230.528 118.131 227.63 111.41 221.037 110.115C216.947 109.315 213.49 110.998 212.011 111.851C211.809 111.612 211.583 111.365 211.341 111.113C211.049 110.812 210.761 110.548 210.486 110.309H210.481Z" fill="#F6BFB0"/>
<path d="M210.716 110.709C215.221 107.976 221.053 107.46 225.686 110.19C227.852 111.468 229.587 113.344 230.935 115.451C232.423 117.776 233.59 120.303 234.182 123.012C234.774 125.721 234.823 128.653 234.355 131.431L235.033 131.155C234.392 130.702 233.75 130.248 233.109 129.795L233.339 130.195C233.812 125.655 232.727 121.198 230.507 117.24C228.259 113.228 224.662 109.934 219.923 109.489C217.083 109.225 214.234 110.045 211.781 111.447L212.34 111.521C211.867 110.969 211.357 110.458 210.81 109.979C210.362 109.588 209.705 110.243 210.157 110.635C210.704 111.113 211.213 111.624 211.686 112.177C211.817 112.334 212.076 112.346 212.245 112.251C214.251 111.105 216.52 110.371 218.846 110.371C221.366 110.371 223.795 111.262 225.752 112.845C228.514 115.088 230.425 118.444 231.547 121.796C232.452 124.497 232.715 127.366 232.419 130.199C232.402 130.368 232.521 130.512 232.649 130.599C233.29 131.052 233.931 131.506 234.572 131.959C234.803 132.12 235.205 131.963 235.251 131.683C235.674 129.172 235.707 126.612 235.321 124.092C234.852 121.029 233.676 118.18 232.082 115.541C230.766 113.36 229.102 111.385 226.997 109.93C224.227 108.017 220.799 107.176 217.453 107.506C214.921 107.757 212.426 108.59 210.251 109.909C209.742 110.218 210.206 111.022 210.72 110.709H210.716Z" fill="#040C12"/>
<path d="M203.552 121.429C202.976 123.346 202.364 126.315 202.713 129.902C202.898 131.798 203.309 133.423 203.745 134.722C203.091 135.691 202.434 136.664 201.78 137.633C200.999 135.773 199.939 132.602 199.898 128.554C199.861 124.839 200.695 121.874 201.365 120.04C201.628 120.332 202.031 120.712 202.602 121.029C202.948 121.223 203.272 121.347 203.548 121.429H203.552Z" fill="#F6BFB0"/>
<path d="M203.108 121.305C201.797 125.725 201.846 130.467 203.301 134.845L203.346 134.487C202.693 135.455 202.035 136.429 201.381 137.397L202.228 137.509C199.922 131.996 199.77 125.779 201.817 120.159L201.044 120.365C201.698 121.074 202.512 121.581 203.432 121.874C204 122.056 204.246 121.161 203.679 120.98C202.906 120.732 202.249 120.303 201.702 119.71C201.447 119.433 201.04 119.607 200.929 119.916C198.837 125.667 198.981 132.112 201.34 137.756C201.497 138.123 201.949 138.222 202.187 137.867C202.66 137.167 203.132 136.466 203.605 135.765C203.79 135.488 204.111 135.171 204.197 134.845C204.263 134.594 204.09 134.28 204.02 134.041C203.576 132.594 203.28 131.106 203.157 129.597C202.931 126.884 203.231 124.158 204.008 121.548C204.176 120.975 203.285 120.732 203.116 121.301L203.108 121.305Z" fill="#040C12"/>
<path d="M253.377 246.459C257.602 247.449 263.147 248.335 269.662 248.311C275.951 248.29 281.315 247.424 285.446 246.459C286.174 235.393 286.901 224.331 287.625 213.265C282.458 212.374 276.222 211.69 269.153 211.706C262.301 211.723 256.246 212.395 251.194 213.265C251.922 224.331 252.649 235.393 253.373 246.459H253.377Z" fill="#F5BFB0"/>
<path d="M253.254 246.909C261.762 248.892 270.591 249.292 279.244 248.088C281.369 247.791 283.477 247.395 285.565 246.909C285.771 246.859 285.89 246.661 285.906 246.464C286.474 237.859 287.037 229.25 287.604 220.645C287.764 218.188 287.929 215.726 288.089 213.269C288.101 213.084 287.937 212.853 287.748 212.824C278.105 211.17 268.261 210.812 258.527 211.805C256.032 212.061 253.546 212.403 251.075 212.824C250.89 212.857 250.722 213.084 250.734 213.269C251.301 221.874 251.864 230.483 252.432 239.087C252.592 241.545 252.756 244.006 252.917 246.464C252.954 247.057 253.883 247.061 253.841 246.464C253.274 237.859 252.711 229.25 252.144 220.645C251.984 218.188 251.819 215.726 251.659 213.269L251.318 213.714C260.858 212.077 270.608 211.748 280.238 212.721C282.672 212.968 285.093 213.302 287.501 213.714L287.16 213.269C286.593 221.874 286.03 230.483 285.463 239.087C285.302 241.545 285.138 244.006 284.977 246.464L285.319 246.018C276.917 247.977 268.162 248.385 259.617 247.169C257.561 246.876 255.519 246.492 253.496 246.018C252.917 245.882 252.67 246.777 253.25 246.913L253.254 246.909Z" fill="#040C12"/>
<path d="M269.408 216.098C279.467 216.098 287.621 214.829 287.621 213.265C287.621 211.701 279.467 210.433 269.408 210.433C259.35 210.433 251.195 211.701 251.195 213.265C251.195 214.829 259.35 216.098 269.408 216.098Z" fill="#F5BFB0"/>
<path d="M287.161 213.265C287.161 213.265 287.193 213.257 287.136 213.31C287.14 213.306 287.066 213.393 286.988 213.459C286.865 213.562 286.54 213.731 286.326 213.822C285.533 214.155 284.67 214.349 283.831 214.522C281.085 215.087 278.27 215.318 275.479 215.471C271.87 215.669 268.245 215.685 264.636 215.533C261.693 215.409 258.729 215.195 255.827 214.679C254.865 214.506 253.895 214.308 252.966 213.991C252.666 213.888 252.37 213.776 252.095 213.619C252.021 213.578 251.848 213.463 251.84 213.459C251.762 213.393 251.688 213.306 251.692 213.31C251.643 213.248 251.643 213.277 251.692 213.22C251.692 213.22 251.758 213.141 251.84 213.071C251.848 213.063 252.021 212.952 252.095 212.91C252.749 212.539 253.517 212.354 254.241 212.176C256.81 211.558 259.477 211.315 262.108 211.137C265.688 210.894 269.285 210.845 272.873 210.952C275.98 211.043 279.1 211.236 282.175 211.715C283.215 211.875 284.259 212.069 285.27 212.354C285.833 212.515 286.593 212.737 286.996 213.071C287.074 213.137 287.152 213.228 287.144 213.22C287.202 213.286 287.169 213.253 287.169 213.265C287.189 213.859 288.114 213.863 288.094 213.265C288.073 212.667 287.592 212.312 287.128 212.065C286.371 211.661 285.516 211.438 284.686 211.245C281.825 210.581 278.858 210.333 275.935 210.156C272.055 209.925 268.154 209.909 264.27 210.086C261.167 210.226 258.039 210.465 254.985 211.067C254.047 211.253 253.102 211.467 252.214 211.834C251.692 212.049 251.051 212.341 250.821 212.902C250.27 214.25 252.56 214.865 253.41 215.1C256.057 215.834 258.861 216.085 261.59 216.287C265.437 216.572 269.305 216.625 273.161 216.501C276.428 216.394 279.713 216.176 282.939 215.632C284.008 215.45 285.085 215.24 286.112 214.889C286.7 214.691 287.378 214.444 287.802 213.966C287.979 213.768 288.081 213.533 288.094 213.265C288.114 212.667 287.189 212.667 287.169 213.265H287.161Z" fill="#040C12"/>
<path d="M262.618 204.363C265.668 210.086 265.548 215.949 265.528 215.949C265.515 215.949 265.552 214.155 264.665 211.851C264.381 211.121 261.89 206.326 257.924 204.363C255.277 203.052 254.438 203.823 252.099 202.244C250.155 200.929 247.857 198.512 248.437 197.251C249.029 195.964 252.535 196.063 255.108 196.966C259.42 198.484 261.602 202.45 262.622 204.363H262.618Z" fill="#F5BFB0"/>
<path d="M262.219 204.598C263.497 207.023 264.327 209.657 264.767 212.358C264.903 213.195 264.997 214.036 265.047 214.885C265.059 215.141 265.071 215.397 265.071 215.648C265.071 215.763 265.01 216.044 265.084 215.825H265.976C266.029 216.077 265.98 215.673 265.976 215.599C265.959 215.318 265.926 215.038 265.889 214.762C265.762 213.822 265.54 212.902 265.219 212.012C264.923 211.187 264.479 210.42 264.011 209.682C262.338 207.039 260.057 204.607 257.081 203.493C255.708 202.982 254.22 202.949 252.929 202.211C251.466 201.374 249.937 200.088 249.111 198.595C248.885 198.191 248.618 197.602 249.029 197.23C249.477 196.831 250.262 196.777 250.829 196.752C252.539 196.678 254.343 197.049 255.889 197.779C258.82 199.168 260.739 201.799 262.227 204.59C262.507 205.118 263.308 204.648 263.024 204.12C261.652 201.547 259.925 199.115 257.41 197.552C255.856 196.587 254.08 196.051 252.268 195.87C251.026 195.746 248.996 195.643 248.161 196.81C247.327 197.977 248.56 199.581 249.333 200.442C250.508 201.753 252.025 202.999 253.71 203.572C254.397 203.803 255.12 203.893 255.819 204.066C256.752 204.297 257.636 204.677 258.458 205.18C259.905 206.062 261.125 207.299 262.157 208.635C262.93 209.637 263.653 210.725 264.184 211.88C264.229 211.979 264.225 211.97 264.221 211.966C264.344 212.267 264.447 212.581 264.541 212.894C264.701 213.417 264.829 213.949 264.923 214.489C265.018 215.03 264.981 215.557 265.088 216.064C265.186 216.539 265.844 216.469 265.98 216.064C266.087 215.743 265.996 215.277 265.98 214.955C265.935 214.044 265.828 213.137 265.688 212.238C265.244 209.41 264.36 206.656 263.024 204.12C262.745 203.592 261.947 204.058 262.227 204.59L262.219 204.598Z" fill="#040C12"/>
<path d="M268.994 216.217C269.466 212.956 270.395 209.761 271.867 206.809C273.581 203.37 275.488 200.03 277.527 196.777C278.505 195.219 279.504 193.677 280.519 192.143C280.848 191.644 280.046 191.178 279.722 191.673C277.773 194.621 275.87 197.598 274.115 200.665C272.36 203.733 270.588 206.842 269.47 210.189C268.841 212.07 268.389 214.007 268.102 215.97C268.015 216.555 268.907 216.807 268.994 216.217Z" fill="#040C12"/>
<path d="M284.062 190.854C285.787 189.462 286.85 187.917 286.437 187.402C286.025 186.888 284.292 187.599 282.568 188.991C280.843 190.382 279.78 191.928 280.193 192.442C280.605 192.957 282.338 192.246 284.062 190.854Z" fill="#FFC700"/>
<path d="M280.588 192.229C280.535 192.155 280.571 192.192 280.563 192.225C280.58 192.159 280.571 192.101 280.571 192.101C280.613 191.916 280.695 191.755 280.789 191.594C281.073 191.108 281.451 190.679 281.846 190.283C282.791 189.331 283.938 188.42 285.196 187.921C285.397 187.842 285.607 187.768 285.82 187.735C285.886 187.727 285.952 187.719 286.034 187.723C286.047 187.723 286.129 187.731 286.051 187.723C286.157 187.731 286.088 187.748 286.092 187.731C286.092 187.739 286.137 187.76 286.071 187.706L286.059 187.686C286.084 187.731 286.084 187.727 286.059 187.673C286.088 187.682 286.038 187.776 286.063 187.665C286.059 187.69 286.067 187.723 286.063 187.748C286.059 187.776 286.055 187.814 286.022 187.912C285.997 187.991 285.96 188.065 285.923 188.139C285.352 189.244 284.287 190.16 283.301 190.877C282.721 191.297 282.101 191.702 281.431 191.965C281.221 192.048 280.954 192.139 280.752 192.159C280.715 192.159 280.678 192.159 280.645 192.163C280.645 192.163 280.485 192.155 280.58 192.163C280.559 192.163 280.481 192.114 280.518 192.147C280.502 192.13 280.559 192.176 280.518 192.13C280.119 191.685 279.47 192.341 279.865 192.786C280.21 193.173 280.798 193.12 281.25 193C281.965 192.815 282.639 192.431 283.251 192.031C283.991 191.549 284.69 190.988 285.323 190.37C285.837 189.867 286.342 189.302 286.692 188.663C286.914 188.251 287.136 187.69 286.877 187.24C286.618 186.791 286.096 186.746 285.635 186.82C284.965 186.927 284.32 187.269 283.745 187.611C282.956 188.082 282.216 188.65 281.542 189.277C280.95 189.826 280.374 190.444 279.971 191.149C279.725 191.582 279.453 192.229 279.791 192.691C279.939 192.897 280.189 192.992 280.424 192.856C280.625 192.741 280.736 192.423 280.588 192.221V192.229Z" fill="#040C12"/>
<path d="M284.216 193.413C286.415 193.161 288.137 192.425 288.063 191.769C287.988 191.113 286.145 190.785 283.946 191.037C281.747 191.289 280.024 192.026 280.099 192.682C280.174 193.338 282.017 193.665 284.216 193.413Z" fill="#F5BFB0"/>
<path d="M280.546 192.7C280.546 192.638 280.53 192.687 280.55 192.654C280.55 192.654 280.604 192.596 280.62 192.576C280.764 192.436 280.941 192.341 281.118 192.25C281.636 191.99 282.211 191.834 282.774 191.714C284.032 191.438 285.438 191.298 286.712 191.537C287.032 191.599 287.386 191.726 287.596 191.871C287.554 191.842 287.641 191.792 287.55 191.871C287.415 191.986 287.291 192.085 287.131 192.176C286.05 192.774 284.677 192.963 283.465 193.034C282.77 193.075 282.051 193.079 281.364 192.943C281.155 192.902 280.933 192.852 280.739 192.761C280.674 192.728 280.6 192.691 280.55 192.642C280.518 192.609 280.534 192.629 280.526 192.58C280.423 191.994 279.531 192.242 279.634 192.827C279.72 193.322 280.242 193.582 280.674 193.726C281.34 193.945 282.075 193.986 282.77 193.986C284.369 193.986 286.223 193.763 287.637 192.955C288.031 192.728 288.483 192.378 288.508 191.879C288.533 191.38 288.146 191.059 287.731 190.877C287.115 190.609 286.412 190.539 285.746 190.518C284.854 190.485 283.954 190.568 283.074 190.716C282.195 190.865 281.335 191.083 280.567 191.496C280.119 191.735 279.589 192.135 279.617 192.704C279.646 193.273 280.575 193.301 280.542 192.704L280.546 192.7Z" fill="#040C12"/>
<path d="M282.507 189.087C283.331 187.026 283.503 185.156 282.892 184.91C282.281 184.665 281.118 186.136 280.294 188.197C279.471 190.257 279.298 192.127 279.909 192.373C280.52 192.619 281.683 191.147 282.507 189.087Z" fill="#F5BFB0"/>
<path d="M280.144 191.974C280.107 191.957 280.107 191.961 280.107 191.957C280.074 191.908 280.065 191.871 280.045 191.801C279.996 191.611 280 191.405 280.008 191.211C280.033 190.593 280.185 189.982 280.361 189.393C280.727 188.176 281.266 186.89 282.088 185.909C282.215 185.756 282.355 185.595 282.511 185.476C282.565 185.435 282.622 185.402 282.68 185.369C282.692 185.36 282.778 185.327 282.749 185.344C282.7 185.377 282.684 185.253 282.721 185.36C282.782 185.534 282.795 185.707 282.795 185.888C282.803 187.191 282.285 188.556 281.726 189.71C281.438 190.304 281.109 190.906 280.682 191.409C280.55 191.561 280.411 191.718 280.246 191.834C280.176 191.883 280.131 191.9 280.082 191.924C280.028 191.953 280.065 191.937 280.028 191.924C279.461 191.735 279.219 192.629 279.782 192.819C280.254 192.98 280.719 192.671 281.048 192.365C281.537 191.912 281.911 191.318 282.232 190.737C283.021 189.306 283.724 187.55 283.715 185.888C283.715 185.418 283.633 184.824 283.198 184.548C282.807 184.297 282.347 184.449 282.001 184.701C281.467 185.092 281.072 185.674 280.735 186.235C280.287 186.981 279.93 187.793 279.638 188.614C279.346 189.434 279.091 190.386 279.075 191.298C279.067 191.809 279.141 192.522 279.667 192.77C280.193 193.017 280.674 192.225 280.135 191.97L280.144 191.974Z" fill="#040C12"/>
<path d="M273.024 207.22C270.131 211.747 269.711 216.04 269.888 216.097C270.118 216.167 270.903 208.915 275.528 206.837C277.373 206.008 280.505 205.699 280.723 205.678C282.869 205.476 283.592 205.744 285.088 205.266C286.922 204.681 289.195 203.209 288.993 202.203C288.693 200.71 282.745 199.477 278.22 201.815C275.618 203.159 274.262 205.283 273.024 207.22Z" fill="#F5BFB0"/>
<path d="M272.626 206.985C271.245 209.167 270.176 211.603 269.634 214.139C269.51 214.72 269.358 215.355 269.391 215.953C269.416 216.468 269.995 216.827 270.324 216.291C270.501 216.003 270.538 215.578 270.62 215.256C270.781 214.617 270.957 213.978 271.163 213.351C271.71 211.69 272.478 210.028 273.687 208.742C275.166 207.167 277.176 206.668 279.24 206.338C279.971 206.219 280.707 206.132 281.447 206.087C282.45 206.029 283.469 206.099 284.464 205.905C285.598 205.687 286.716 205.171 287.678 204.541C288.389 204.079 289.392 203.37 289.466 202.434C289.581 200.949 287.275 200.43 286.215 200.244C283.617 199.787 280.83 200.1 278.426 201.201C275.808 202.401 274.139 204.619 272.626 206.985C272.306 207.488 273.103 207.954 273.424 207.456C274.657 205.526 275.972 203.654 277.99 202.475C280.008 201.296 282.364 200.871 284.649 200.995C285.524 201.044 286.404 201.176 287.238 201.457C287.617 201.584 288.373 201.828 288.525 202.248C288.722 202.792 287.465 203.58 287.078 203.823C286.174 204.392 285.155 204.858 284.094 205.031C283.169 205.184 282.207 205.105 281.27 205.167C280.625 205.208 279.984 205.291 279.342 205.386C277.522 205.658 275.577 206.029 274.069 207.159C271.594 209.01 270.452 212.11 269.724 215.009C269.671 215.215 269.626 215.425 269.568 215.631C269.552 215.693 269.519 215.768 269.51 215.834C269.494 215.961 269.502 215.809 269.572 215.763L270.267 215.854C270.3 215.945 270.312 215.965 270.3 215.916C270.316 215.891 270.275 216.052 270.308 215.92C270.328 215.834 270.312 215.726 270.32 215.636C270.345 215.302 270.402 214.972 270.468 214.646C270.97 212.09 272.03 209.649 273.419 207.46C273.74 206.953 272.939 206.487 272.622 206.99L272.626 206.985Z" fill="#040C12"/>
<path d="M267.891 216.081C268.594 210.688 268.824 205.229 268.442 199.799C268.298 197.738 268.039 195.684 267.842 193.627C267.595 191.025 267.472 188.411 267.538 185.797C267.62 182.652 267.953 179.51 268.524 176.413C268.631 175.828 267.739 175.581 267.632 176.166C266.634 181.6 266.366 187.129 266.827 192.633C267.003 194.736 267.275 196.831 267.447 198.933C267.636 201.23 267.715 203.531 267.694 205.835C267.661 209.262 267.406 212.68 266.962 216.077C266.884 216.667 267.809 216.662 267.887 216.077L267.891 216.081Z" fill="#040C12"/>
<path d="M263.444 182.199C265.973 179.661 267.414 176.992 266.661 176.237C265.908 175.481 263.247 176.926 260.717 179.464C258.188 182.001 256.747 184.671 257.5 185.426C258.253 186.181 260.914 184.736 263.444 182.199Z" fill="#E03300"/>
<path d="M266.334 176.562C266.573 176.826 266.223 177.622 266.067 177.951C265.652 178.826 265.085 179.625 264.472 180.372C263.083 182.07 261.377 183.715 259.412 184.73C259.03 184.928 258.315 185.299 257.904 185.146C257.776 185.101 257.768 185.014 257.76 184.845C257.752 184.557 257.863 184.251 257.97 183.992C258.734 182.066 260.345 180.388 261.854 179.023C262.721 178.24 263.654 177.506 264.694 176.962C265.048 176.776 266.022 176.278 266.334 176.566C266.774 176.97 267.428 176.315 266.988 175.911C266.457 175.424 265.693 175.552 265.076 175.783C264.016 176.174 263.071 176.834 262.191 177.531C261.052 178.43 260.008 179.456 259.083 180.574C258.348 181.464 257.645 182.421 257.185 183.489C256.917 184.103 256.638 184.928 257.02 185.558C257.402 186.189 258.208 186.148 258.82 185.971C259.827 185.682 260.748 185.064 261.574 184.441C262.713 183.584 263.765 182.598 264.706 181.526C265.578 180.532 266.42 179.444 266.955 178.224C267.263 177.519 267.58 176.558 266.988 175.911C266.585 175.469 265.931 176.125 266.334 176.566V176.562Z" fill="#040C12"/>
<path d="M260.89 179.151C264.38 178.362 267.019 176.878 266.785 175.836C266.551 174.795 263.532 174.59 260.042 175.379C256.552 176.168 253.912 177.652 254.146 178.694C254.381 179.735 257.4 179.94 260.89 179.151Z" fill="#F5BFB0"/>
<path d="M266.342 175.96C266.4 176.29 265.684 176.764 265.43 176.929C264.62 177.461 263.707 177.832 262.791 178.137C260.719 178.834 258.426 179.308 256.231 179.139C255.828 179.106 254.874 179.069 254.628 178.653C254.455 178.36 255.088 177.894 255.314 177.733C256.966 176.546 259.153 175.989 261.122 175.635C262.273 175.428 263.465 175.305 264.636 175.387C265.031 175.416 266.202 175.457 266.342 175.96C266.502 176.533 267.394 176.29 267.234 175.713C267.037 175.008 266.272 174.715 265.623 174.583C264.472 174.348 263.259 174.414 262.1 174.554C260.645 174.732 259.202 175.049 257.817 175.523C256.79 175.874 255.742 176.294 254.85 176.929C254.315 177.309 253.662 177.857 253.674 178.578C253.686 179.3 254.393 179.692 255.006 179.869C256.062 180.174 257.234 180.129 258.315 180.03C259.716 179.902 261.106 179.626 262.454 179.222C263.707 178.846 265.015 178.368 266.091 177.601C266.712 177.16 267.382 176.55 267.234 175.713C267.131 175.127 266.239 175.375 266.342 175.96Z" fill="#040C12"/>
<path d="M267.246 183.126C268.212 179.67 268.165 176.635 267.14 176.347C266.115 176.058 264.5 178.626 263.534 182.081C262.568 185.536 262.615 188.571 263.64 188.86C264.665 189.148 266.28 186.581 267.246 183.126Z" fill="#F5BFB0"/>
<path d="M267.001 176.777C267.404 176.913 267.429 177.869 267.449 178.195C267.511 179.222 267.383 180.265 267.19 181.271C266.787 183.369 266.117 185.571 264.913 187.356C264.716 187.649 264.223 188.428 263.795 188.4C263.462 188.375 263.359 187.563 263.331 187.286C263.084 185.184 263.68 182.904 264.358 180.933C264.72 179.885 265.164 178.846 265.772 177.915C265.982 177.593 266.574 176.674 267.005 176.773C267.585 176.905 267.831 176.01 267.252 175.878C266.557 175.717 265.961 176.195 265.534 176.69C264.831 177.507 264.342 178.496 263.927 179.486C263.363 180.821 262.944 182.223 262.673 183.646C262.443 184.85 262.274 186.12 262.41 187.344C262.484 188 262.644 188.841 263.281 189.191C263.918 189.542 264.568 189.133 265.016 188.692C265.719 188 266.2 187.072 266.607 186.181C267.207 184.866 267.655 183.481 267.967 182.071C268.279 180.661 268.489 179.308 268.358 177.935C268.284 177.156 268.094 176.162 267.252 175.878C266.685 175.688 266.442 176.583 267.005 176.773L267.001 176.777Z" fill="#040C12"/>
<path d="M266.725 174.482C267.42 173.673 265.786 171.118 263.076 168.776C260.365 166.433 257.605 165.19 256.91 165.999C256.215 166.808 257.849 169.363 260.559 171.705C263.269 174.048 266.03 175.291 266.725 174.482Z" fill="#E03300"/>
<path d="M266.399 174.158C266.099 174.476 265.318 174.146 264.985 174.022C264.081 173.684 263.238 173.152 262.453 172.604C260.669 171.354 258.898 169.763 257.759 167.887C257.554 167.553 257.036 166.778 257.237 166.353C257.369 166.073 258.08 166.283 258.331 166.361C260.332 166.972 262.153 168.493 263.633 169.92C264.455 170.715 265.244 171.577 265.848 172.554C266.029 172.843 266.658 173.828 266.403 174.162C266.042 174.628 266.691 175.288 267.057 174.818C267.525 174.22 267.34 173.486 267.057 172.843C266.621 171.858 265.91 170.983 265.195 170.192C264.241 169.136 263.164 168.188 262.018 167.343C261.031 166.617 259.962 165.941 258.799 165.537C258.183 165.322 257.352 165.12 256.773 165.529C256.193 165.937 256.242 166.679 256.444 167.269C256.785 168.266 257.467 169.149 258.141 169.94C259.054 171.012 260.098 171.969 261.208 172.826C262.318 173.684 263.46 174.443 264.747 174.921C265.446 175.181 266.469 175.445 267.061 174.818C267.472 174.385 266.818 173.729 266.407 174.162L266.399 174.158Z" fill="#040C12"/>
<path d="M267.135 174.58C268.153 174.269 268.133 171.233 267.09 167.801C266.047 164.368 264.376 161.837 263.358 162.149C262.339 162.46 262.359 165.495 263.402 168.928C264.445 172.361 266.116 174.891 267.135 174.58Z" fill="#F5BFB0"/>
<path d="M267.007 174.137C266.65 174.228 266.165 173.597 265.963 173.337C265.4 172.612 264.977 171.762 264.611 170.921C263.723 168.88 263.061 166.547 263.066 164.308C263.066 163.908 263.024 162.914 263.423 162.642C263.707 162.449 264.163 162.984 264.344 163.195C265.655 164.683 266.358 166.823 266.855 168.707C267.164 169.878 267.398 171.09 267.414 172.303C267.418 172.665 267.488 173.968 267.003 174.146C266.448 174.348 266.687 175.242 267.25 175.04C267.969 174.78 268.195 174.009 268.286 173.317C268.434 172.166 268.278 170.979 268.064 169.845C267.595 167.38 266.724 164.634 265.104 162.667C264.71 162.185 264.138 161.636 263.464 161.677C262.724 161.723 262.375 162.465 262.248 163.104C262.042 164.151 262.153 165.252 262.313 166.299C262.539 167.784 262.951 169.247 263.497 170.641C263.962 171.824 264.508 173.003 265.306 174.001C265.762 174.574 266.448 175.242 267.25 175.04C267.825 174.896 267.583 174.001 267.003 174.146L267.007 174.137Z" fill="#040C12"/>
<path d="M266.674 174.97C266.885 173.923 264.213 172.499 260.706 171.788C257.199 171.078 254.185 171.35 253.974 172.397C253.764 173.444 256.436 174.869 259.942 175.579C263.449 176.29 266.463 176.017 266.674 174.97Z" fill="#F5BFB0"/>
<path d="M266.219 174.834C266.112 175.255 265.265 175.358 264.924 175.411C263.933 175.568 262.897 175.51 261.903 175.411C259.778 175.189 257.496 174.673 255.618 173.614C255.281 173.424 254.471 173.012 254.418 172.558C254.377 172.195 255.186 172.039 255.466 171.981C257.521 171.56 259.847 171.997 261.841 172.529C262.91 172.814 263.978 173.173 264.953 173.713C265.257 173.882 266.28 174.43 266.214 174.842C266.124 175.428 267.016 175.679 267.106 175.09C267.217 174.364 266.732 173.828 266.194 173.412C265.331 172.752 264.278 172.331 263.259 171.985C260.838 171.169 258.01 170.633 255.458 171.045C254.792 171.152 253.924 171.379 253.6 172.043C253.275 172.707 253.711 173.325 254.183 173.746C254.956 174.426 255.947 174.851 256.9 175.205C258.207 175.688 259.576 176.017 260.953 176.219C262.33 176.422 263.773 176.537 265.166 176.31C265.902 176.191 266.897 175.914 267.106 175.086C267.254 174.508 266.362 174.261 266.214 174.838L266.219 174.834Z" fill="#040C12"/>
<path d="M274.005 171.192C276.258 168.404 277.414 165.599 276.587 164.927C275.76 164.254 273.263 165.969 271.01 168.757C268.757 171.544 267.601 174.349 268.428 175.022C269.255 175.694 271.752 173.98 274.005 171.192Z" fill="#E03300"/>
<path d="M268.754 174.678C268.413 174.368 268.729 173.564 268.849 173.218C269.169 172.282 269.683 171.408 270.226 170.588C271.418 168.786 272.943 166.963 274.78 165.788C275.072 165.603 275.877 165.03 276.26 165.252C276.556 165.421 276.329 166.155 276.256 166.415C275.664 168.468 274.184 170.365 272.762 171.907C272.005 172.727 271.179 173.523 270.234 174.129C269.88 174.356 269.079 174.913 268.66 174.608C268.179 174.253 267.718 175.057 268.191 175.407C268.754 175.824 269.535 175.548 270.094 175.275C271.085 174.793 271.96 174.022 272.741 173.255C274.546 171.486 276.346 169.223 277.11 166.774C277.312 166.135 277.497 165.224 276.991 164.667C276.551 164.185 275.853 164.263 275.298 164.477C274.34 164.844 273.497 165.529 272.745 166.209C271.681 167.174 270.739 168.27 269.897 169.437C269.103 170.538 268.364 171.738 267.932 173.033C267.698 173.729 267.463 174.768 268.096 175.337C268.536 175.733 269.194 175.082 268.75 174.682L268.754 174.678Z" fill="#040C12"/>
<path d="M275.092 175.182C278.481 174.033 280.953 172.282 280.612 171.27C280.271 170.258 277.247 170.369 273.858 171.518C270.468 172.667 267.997 174.418 268.338 175.43C268.679 176.442 271.703 176.331 275.092 175.182Z" fill="#F5BFB0"/>
<path d="M268.788 175.292C268.685 174.925 269.281 174.439 269.54 174.216C270.243 173.622 271.081 173.177 271.907 172.785C273.913 171.833 276.219 171.095 278.451 171.029C278.837 171.016 279.886 170.938 280.145 171.346C280.317 171.618 279.828 172.076 279.627 172.266C278.184 173.626 276.075 174.401 274.213 174.958C273.058 175.304 271.854 175.576 270.646 175.63C270.296 175.647 268.973 175.75 268.788 175.288C268.57 174.74 267.678 174.979 267.896 175.535C268.179 176.257 268.931 176.459 269.634 176.533C270.781 176.657 271.973 176.455 273.087 176.207C275.525 175.663 278.246 174.711 280.157 173.028C280.625 172.616 281.156 172.031 281.102 171.359C281.045 170.612 280.301 170.283 279.66 170.171C278.611 169.99 277.514 170.134 276.478 170.324C275.023 170.592 273.601 171.045 272.24 171.618C271.057 172.117 269.877 172.715 268.89 173.548C268.34 174.014 267.674 174.735 267.9 175.527C268.064 176.1 268.956 175.857 268.792 175.28L268.788 175.292Z" fill="#040C12"/>
<path d="M270.943 168.875C271.545 165.337 271.182 162.324 270.133 162.144C269.083 161.964 267.744 164.686 267.142 168.224C266.54 171.761 266.903 174.775 267.952 174.954C269.001 175.134 270.34 172.412 270.943 168.875Z" fill="#F5BFB0"/>
<path d="M268.08 174.513C267.632 174.414 267.512 173.544 267.447 173.181C267.27 172.212 267.295 171.194 267.369 170.217C267.525 168.06 267.969 165.727 268.992 163.801C269.161 163.488 269.58 162.597 270.032 162.601C270.34 162.601 270.525 163.364 270.587 163.632C271.072 165.71 270.706 168.089 270.221 170.13C269.962 171.219 269.629 172.319 269.103 173.309C268.898 173.692 268.47 174.558 267.956 174.496C267.369 174.426 267.373 175.354 267.956 175.424C268.647 175.506 269.194 174.88 269.543 174.373C270.172 173.466 270.558 172.365 270.866 171.309C271.578 168.877 272.038 166.019 271.504 163.5C271.364 162.849 271.08 161.966 270.373 161.731C269.753 161.529 269.181 161.942 268.803 162.399C268.145 163.191 267.747 164.201 267.426 165.166C266.97 166.531 266.686 167.953 266.522 169.384C266.366 170.736 266.308 172.142 266.567 173.486C266.707 174.208 267.011 175.218 267.833 175.403C268.413 175.531 268.659 174.641 268.08 174.509V174.513Z" fill="#040C12"/>
<path d="M277.724 185.775C278.437 184.982 276.862 182.39 274.207 179.986C271.551 177.581 268.819 176.275 268.106 177.067C267.393 177.86 268.967 180.452 271.623 182.857C274.279 185.261 277.01 186.568 277.724 185.775Z" fill="#E03300"/>
<path d="M268.434 177.399C268.722 177.11 269.486 177.436 269.803 177.56C270.699 177.914 271.533 178.463 272.306 179.027C274.073 180.322 275.82 181.967 276.926 183.884C277.123 184.227 277.604 184.993 277.415 185.41C277.279 185.715 276.552 185.472 276.293 185.385C274.291 184.721 272.491 183.134 271.04 181.658C270.255 180.858 269.507 179.992 268.939 179.019C268.759 178.71 268.163 177.733 268.434 177.399C268.808 176.941 268.158 176.281 267.78 176.743C267.316 177.312 267.468 178.038 267.731 178.669C268.158 179.695 268.857 180.606 269.581 181.443C271.245 183.365 273.391 185.253 275.783 186.185C276.408 186.428 277.267 186.671 277.875 186.255C278.484 185.839 278.414 185.063 278.208 184.457C277.884 183.509 277.279 182.668 276.659 181.897C275.75 180.763 274.69 179.737 273.555 178.829C272.487 177.972 271.332 177.168 270.049 176.665C269.359 176.397 268.376 176.141 267.78 176.743C267.361 177.168 268.015 177.823 268.434 177.399Z" fill="#040C12"/>
<path d="M271.197 189.478C272.222 189.19 272.272 186.156 271.308 182.7C270.344 179.244 268.731 176.675 267.706 176.963C266.681 177.251 266.631 180.286 267.595 183.742C268.559 187.197 270.171 189.766 271.197 189.478Z" fill="#F5BFB0"/>
<path d="M267.825 177.415C268.167 177.337 268.652 177.988 268.845 178.252C269.4 179.007 269.811 179.881 270.156 180.751C270.974 182.812 271.582 185.121 271.525 187.352C271.517 187.756 271.533 188.741 271.122 189.005C270.851 189.178 270.39 188.63 270.214 188.42C268.943 186.894 268.286 184.746 267.834 182.849C267.55 181.67 267.349 180.454 267.361 179.242C267.361 178.862 267.332 177.584 267.821 177.419C268.384 177.23 268.142 176.335 267.575 176.525C266.855 176.768 266.613 177.539 266.51 178.223C266.337 179.378 266.469 180.565 266.658 181.707C266.901 183.159 267.295 184.589 267.838 185.954C268.257 187.01 268.746 188.061 269.457 188.952C269.848 189.442 270.399 189.999 271.077 189.97C271.817 189.941 272.178 189.195 272.318 188.56C272.548 187.517 272.462 186.412 272.318 185.365C272.121 183.876 271.747 182.404 271.233 180.994C270.797 179.807 270.275 178.607 269.502 177.601C269.05 177.011 268.393 176.335 267.575 176.525C266.995 176.657 267.242 177.551 267.821 177.419L267.825 177.415Z" fill="#040C12"/>
<path d="M280.826 179.48C281.06 178.439 278.422 176.953 274.932 176.161C271.443 175.37 268.424 175.573 268.189 176.614C267.954 177.656 270.593 179.142 274.082 179.933C277.572 180.725 280.591 180.522 280.826 179.48Z" fill="#F5BFB0"/>
<path d="M268.622 176.727C268.737 176.319 269.601 176.232 269.938 176.191C270.941 176.063 271.985 176.137 272.983 176.269C275.096 176.55 277.349 177.114 279.194 178.211C279.523 178.405 280.333 178.846 280.361 179.3C280.382 179.654 279.564 179.794 279.289 179.844C277.221 180.211 274.907 179.724 272.926 179.143C271.861 178.834 270.805 178.446 269.847 177.885C269.539 177.704 268.548 177.143 268.622 176.723C268.725 176.137 267.833 175.89 267.73 176.475C267.607 177.189 268.08 177.741 268.606 178.162C269.461 178.842 270.501 179.287 271.52 179.658C273.916 180.528 276.744 181.143 279.297 180.772C279.967 180.677 280.838 180.475 281.171 179.811C281.504 179.147 281.077 178.524 280.612 178.096C279.852 177.399 278.869 176.954 277.924 176.578C276.629 176.063 275.269 175.704 273.896 175.469C272.523 175.234 271.08 175.086 269.687 175.288C268.943 175.395 267.961 175.642 267.726 176.475C267.566 177.053 268.458 177.296 268.618 176.723L268.622 176.727Z" fill="#040C12"/>
<path d="M266.975 183.154C270.841 183.154 273.975 180.011 273.975 176.133C273.975 172.255 270.841 169.111 266.975 169.111C263.109 169.111 259.975 172.255 259.975 176.133C259.975 180.011 263.109 183.154 266.975 183.154Z" fill="#F5BFB0"/>
<path d="M273.51 176.133C273.482 178.858 271.78 181.386 269.194 182.305C266.609 183.225 263.703 182.429 261.944 180.322C260.184 178.215 259.958 175.135 261.352 172.785C262.745 170.435 265.573 169.149 268.261 169.701C271.303 170.328 273.477 173.033 273.51 176.133C273.514 176.731 274.439 176.731 274.435 176.133C274.402 173.02 272.479 170.217 269.568 169.116C266.658 168.015 263.226 168.934 261.245 171.338C259.243 173.771 258.943 177.296 260.587 180.005C262.231 182.713 265.376 184.066 268.438 183.468C271.907 182.792 274.398 179.642 274.435 176.129C274.439 175.531 273.514 175.531 273.51 176.129V176.133Z" fill="#040C12"/>
<path d="M266.975 181.241C269.787 181.241 272.067 178.954 272.067 176.133C272.067 173.312 269.787 171.024 266.975 171.024C264.162 171.024 261.882 173.312 261.882 176.133C261.882 178.954 264.162 181.241 266.975 181.241Z" fill="#E03300"/>
<path d="M265.281 194.249C267.077 196.653 268.097 197.189 267.92 197.482C267.603 198.001 263.838 197.263 262.996 194.893C262.572 193.697 262.922 192.176 263.436 192.064C263.826 191.978 264.151 192.74 265.281 194.249Z" fill="#040C12" stroke="#040C12" stroke-width="0.75" stroke-miterlimit="10"/>
<path d="M269.861 199.869C268.693 202.669 267.789 203.46 268.06 203.695C268.537 204.112 272.224 202.384 272.413 199.877C272.508 198.612 271.706 197.239 271.143 197.268C270.715 197.288 270.596 198.113 269.861 199.869Z" fill="#040C12" stroke="#040C12" stroke-width="0.75" stroke-miterlimit="10"/>
<path d="M229.435 204.475C231.689 204.475 233.517 202.642 233.517 200.381C233.517 198.12 231.689 196.287 229.435 196.287C227.181 196.287 225.354 198.12 225.354 200.381C225.354 202.642 227.181 204.475 229.435 204.475Z" fill="#F6BFB0"/>
<path d="M300.227 180.384C302.481 180.384 304.309 178.551 304.309 176.29C304.309 174.029 302.481 172.196 300.227 172.196C297.973 172.196 296.146 174.029 296.146 176.29C296.146 178.551 297.973 180.384 300.227 180.384Z" fill="#F6BFB0"/>
<path d="M307.914 222.81C310.168 222.81 311.995 220.977 311.995 218.716C311.995 216.455 310.168 214.622 307.914 214.622C305.659 214.622 303.832 216.455 303.832 218.716C303.832 220.977 305.659 222.81 307.914 222.81Z" fill="#F6BFB0"/>
<path d="M98.5146 246.872L99.571 260.779H140.983V253.824C140.983 253.824 137.633 245.928 129.881 245.223C122.129 244.518 98.5146 246.872 98.5146 246.872Z" fill="#FCEBE6"/>
<path d="M98.0547 246.872C98.363 250.925 98.6713 254.978 98.9796 259.031C99.0248 259.612 99.07 260.198 99.1111 260.779C99.1317 261.031 99.3084 261.241 99.5715 261.241H139.298C139.832 261.241 140.379 261.278 140.914 261.241C140.938 261.241 140.959 261.241 140.983 261.241C141.234 261.241 141.444 261.026 141.444 260.779V254.071C141.444 253.803 141.39 253.601 141.275 253.362C139.717 250.088 136.972 247.14 133.626 245.705C131.649 244.856 129.569 244.683 127.448 244.637C125.327 244.592 123.292 244.654 121.217 244.736C116.457 244.922 111.705 245.264 106.962 245.652C104.187 245.878 101.409 246.101 98.6384 246.394C98.5973 246.398 98.5521 246.402 98.511 246.406C97.9232 246.464 97.9191 247.392 98.511 247.334C100.739 247.111 102.971 246.913 105.203 246.728C109.769 246.34 114.344 245.998 118.923 245.771C121.118 245.66 123.313 245.577 125.508 245.561C127.325 245.549 129.22 245.499 131.008 245.858C135.048 246.666 138.266 249.701 140.182 253.259C140.235 253.362 140.47 254.026 140.581 254.063C140.494 254.034 140.564 253.733 140.519 253.902C140.498 253.976 140.519 254.087 140.519 254.166V260.787L140.979 260.326H101.253C100.747 260.326 100.139 260.235 99.6372 260.326C99.6167 260.326 99.5879 260.326 99.5674 260.326L100.028 260.787C99.7194 256.734 99.4112 252.681 99.1029 248.628C99.0577 248.047 99.0125 247.462 98.9714 246.88C98.9302 246.299 98.0013 246.282 98.0465 246.88L98.0547 246.872Z" fill="#040C12"/>
<path d="M99.3044 257.258C100.69 257.254 102.075 257.245 103.456 257.241L113.428 257.2C117.431 257.184 121.431 257.167 125.434 257.151L135.858 257.105L139.294 257.089C139.829 257.089 140.379 257.122 140.918 257.081C140.942 257.081 140.967 257.081 140.992 257.081C141.588 257.081 141.588 256.149 140.992 256.153C139.607 256.157 138.221 256.165 136.84 256.169L126.869 256.211C122.865 256.227 118.866 256.244 114.862 256.26C111.389 256.277 107.912 256.289 104.438 256.305C103.291 256.31 102.149 256.314 101.002 256.322C100.468 256.322 99.9169 256.289 99.3784 256.33C99.3537 256.33 99.3291 256.33 99.3044 256.33C98.7084 256.33 98.7084 257.262 99.3044 257.258Z" fill="#040C12"/>
<path d="M119.297 245.495C119.519 246.208 119.864 247.247 120.358 248.472C121.102 250.331 121.513 251.358 122.072 252.054C123.428 253.741 125.902 253.807 128.813 253.848C133.634 253.91 137.728 253.881 140.983 253.827C140.49 252.665 139.475 250.702 137.49 248.946C135.652 247.317 133.848 246.633 132.689 246.204C129.643 245.082 127.045 245.095 124.369 245.111C122.252 245.124 120.501 245.317 119.293 245.499L119.297 245.495Z" fill="#040C12"/>
<path d="M118.853 245.619C119.4 247.363 120.057 249.086 120.805 250.756C121.377 252.03 122.133 253.069 123.453 253.626C125.015 254.285 126.803 254.281 128.467 254.306C130.605 254.339 132.742 254.351 134.879 254.347C136.914 254.347 138.949 254.326 140.983 254.289C141.366 254.281 141.518 253.906 141.382 253.593C140.087 250.566 137.753 248.035 134.797 246.583C133.334 245.866 131.76 245.322 130.161 245.017C128.414 244.683 126.642 244.633 124.871 244.641C122.959 244.65 121.064 244.769 119.174 245.046C118.586 245.132 118.837 246.027 119.42 245.94C120.962 245.713 122.52 245.594 124.077 245.573C125.758 245.549 127.46 245.54 129.129 245.779C132.434 246.254 135.726 247.655 138.04 250.117C139.121 251.267 139.968 252.611 140.589 254.058L140.987 253.362C137.333 253.424 133.679 253.436 130.021 253.399C128.27 253.382 126.428 253.473 124.71 253.065C123.342 252.739 122.433 251.997 121.817 250.744C120.974 249.032 120.316 247.194 119.745 245.371C119.568 244.802 118.672 245.045 118.853 245.619Z" fill="#040C12"/>
<path d="M129.437 245.347C129.971 247.041 130.247 248.798 130.247 250.575C130.247 251.172 131.172 251.172 131.172 250.575C131.172 248.719 130.888 246.868 130.329 245.099C130.148 244.53 129.256 244.773 129.437 245.347Z" fill="#FCEBE6"/>
<path d="M125.191 245.161C125.725 246.856 126.001 248.612 126.001 250.389C126.001 250.987 126.926 250.987 126.926 250.389C126.926 248.534 126.642 246.682 126.083 244.914C125.902 244.345 125.01 244.588 125.191 245.161Z" fill="#FCEBE6"/>
<path d="M134.016 246.365C134.456 247.759 134.723 249.198 134.801 250.657C134.834 251.251 135.759 251.255 135.726 250.657C135.644 249.115 135.373 247.59 134.908 246.118C134.727 245.549 133.835 245.792 134.016 246.365Z" fill="#FCEBE6"/>
<path d="M149.664 247.194L150.72 261.101H192.132V254.145C192.132 254.145 188.782 246.249 181.03 245.544C173.278 244.839 149.664 247.194 149.664 247.194Z" fill="#FCEBE6"/>
<path d="M149.204 247.193C149.512 251.246 149.821 255.299 150.129 259.352C150.174 259.934 150.219 260.519 150.261 261.1C150.281 261.352 150.458 261.562 150.721 261.562H190.448C190.982 261.562 191.529 261.599 192.063 261.562C192.088 261.562 192.108 261.562 192.133 261.562C192.384 261.562 192.593 261.348 192.593 261.1V254.392C192.593 254.124 192.54 253.922 192.425 253.683C190.867 250.409 188.121 247.461 184.775 246.027C182.798 245.177 180.718 245.004 178.597 244.959C176.476 244.913 174.442 244.975 172.366 245.058C167.606 245.243 162.855 245.585 158.111 245.973C155.337 246.2 152.558 246.422 149.788 246.715C149.747 246.719 149.702 246.723 149.66 246.727C149.073 246.785 149.069 247.713 149.66 247.655C151.888 247.433 154.12 247.235 156.352 247.049C160.919 246.662 165.494 246.319 170.072 246.093C172.267 245.981 174.462 245.899 176.657 245.882C178.474 245.87 180.369 245.82 182.157 246.179C186.197 246.987 189.416 250.022 191.331 253.58C191.385 253.683 191.619 254.347 191.73 254.384C191.644 254.355 191.714 254.054 191.668 254.223C191.648 254.297 191.668 254.409 191.668 254.487V261.109L192.129 260.647H152.402C151.896 260.647 151.288 260.556 150.787 260.647C150.766 260.647 150.737 260.647 150.717 260.647L151.177 261.109C150.869 257.056 150.561 253.003 150.252 248.95C150.207 248.368 150.162 247.783 150.121 247.202C150.08 246.62 149.151 246.604 149.196 247.202L149.204 247.193Z" fill="#040C12"/>
<path d="M150.454 257.579C151.839 257.575 153.224 257.567 154.605 257.563L164.577 257.521C168.581 257.505 172.58 257.488 176.583 257.472L187.007 257.427L190.444 257.41C190.978 257.41 191.529 257.443 192.067 257.402C192.092 257.402 192.117 257.402 192.141 257.402C192.737 257.402 192.737 256.47 192.141 256.474C190.756 256.478 189.371 256.486 187.99 256.491L178.018 256.532C174.014 256.548 170.015 256.565 166.012 256.581L155.588 256.627L152.151 256.643C151.617 256.643 151.066 256.61 150.528 256.651C150.503 256.651 150.479 256.651 150.454 256.651C149.858 256.651 149.858 257.583 150.454 257.579Z" fill="#040C12"/>
<path d="M170.45 245.816C170.672 246.529 171.018 247.568 171.511 248.793C172.255 250.652 172.666 251.679 173.225 252.376C174.581 254.062 177.056 254.128 179.966 254.169C184.787 254.231 188.881 254.202 192.137 254.149C191.643 252.986 190.628 251.023 188.643 249.267C186.806 247.638 185.001 246.954 183.842 246.525C180.796 245.404 178.198 245.416 175.523 245.433C173.406 245.445 171.655 245.639 170.446 245.82L170.45 245.816Z" fill="#040C12"/>
<path d="M170.002 245.94C170.549 247.684 171.207 249.407 171.955 251.077C172.526 252.351 173.283 253.39 174.602 253.947C176.164 254.606 177.952 254.602 179.617 254.627C181.754 254.66 183.891 254.672 186.029 254.668C188.166 254.664 190.098 254.648 192.133 254.611C192.515 254.602 192.667 254.227 192.531 253.914C191.237 250.888 188.902 248.356 185.947 246.905C184.483 246.187 182.909 245.643 181.31 245.338C179.563 245.004 177.792 244.954 176.02 244.963C174.109 244.971 172.214 245.091 170.323 245.367C169.735 245.453 169.986 246.348 170.57 246.261C172.111 246.035 173.669 245.915 175.227 245.895C176.908 245.87 178.61 245.862 180.278 246.101C183.583 246.575 186.876 247.977 189.19 250.438C190.271 251.588 191.117 252.933 191.738 254.38L192.137 253.683C188.483 253.745 184.829 253.757 181.17 253.72C179.419 253.704 177.578 253.794 175.86 253.386C174.491 253.06 173.583 252.318 172.966 251.065C172.123 249.354 171.466 247.515 170.894 245.692C170.718 245.124 169.822 245.367 170.002 245.94Z" fill="#040C12"/>
<path d="M180.587 245.668C181.121 247.362 181.396 249.119 181.396 250.896C181.396 251.494 182.321 251.494 182.321 250.896C182.321 249.04 182.038 247.189 181.479 245.42C181.298 244.851 180.406 245.095 180.587 245.668Z" fill="#FCEBE6"/>
<path d="M176.34 245.478C176.875 247.173 177.15 248.929 177.15 250.706C177.15 251.304 178.075 251.304 178.075 250.706C178.075 248.851 177.791 247 177.232 245.231C177.052 244.662 176.16 244.905 176.34 245.478Z" fill="#FCEBE6"/>
<path d="M185.166 246.686C185.605 248.08 185.873 249.519 185.951 250.978C185.984 251.572 186.908 251.576 186.876 250.978C186.793 249.436 186.522 247.911 186.058 246.439C185.877 245.87 184.985 246.113 185.166 246.686Z" fill="#FCEBE6"/>
<path d="M310.167 -1.51634V60.1148C310.167 60.2508 310.15 60.9641 309.575 61.5413C309.209 61.9083 308.708 62.135 308.153 62.135H227.487C226.381 62.135 225.473 61.228 225.473 60.1148V-1.51634C225.473 -2.62543 226.377 -3.53662 227.487 -3.53662H308.153C309.258 -3.53662 310.167 -2.62955 310.167 -1.51634Z" fill="#FBE0D9"/>
<path d="M309.707 -1.5161V59.7027C309.707 60.2139 309.703 60.6634 309.366 61.088C309.004 61.5416 308.478 61.6694 307.935 61.6694H301.198C296.628 61.6694 292.057 61.6694 287.486 61.6694H252.363C247.377 61.6694 242.387 61.6694 237.401 61.6694H228.581C227.923 61.6694 227.109 61.7766 226.558 61.356C225.765 60.7541 225.938 59.6408 225.938 58.7626C225.938 55.1632 225.938 51.5597 225.938 47.9603C225.938 44.3609 225.938 36.6508 225.938 30.9981V13.4629C225.938 9.33572 225.938 5.20856 225.938 1.08141C225.938 0.256803 225.929 -0.571928 225.938 -1.39653C225.946 -2.30772 226.55 -3.03338 227.491 -3.07049C227.627 -3.07461 227.763 -3.07049 227.894 -3.07049C230.348 -3.07049 232.802 -3.07049 235.256 -3.07049H249.26C255.105 -3.07049 260.95 -3.07049 266.795 -3.07049H284.514C289.389 -3.07049 294.264 -3.07049 299.139 -3.07049H307.38C307.598 -3.07049 307.82 -3.07049 308.038 -3.07049C308.942 -3.06224 309.67 -2.45615 309.707 -1.5161C309.727 -0.922385 310.652 -0.918262 310.632 -1.5161C310.582 -2.92206 309.505 -3.96518 308.112 -3.99817C307.919 -4.00229 307.726 -3.99817 307.528 -3.99817H275.99C269.91 -3.99817 263.831 -3.99817 257.748 -3.99817H241.384C237.689 -3.99817 233.994 -3.99817 230.299 -3.99817H227.787C227.549 -3.99817 227.319 -3.99817 227.08 -3.96106C225.843 -3.75491 225.025 -2.6623 225.013 -1.43776C224.984 1.0979 225.013 3.63357 225.013 6.16923V21.9934C225.013 28.0502 225.013 34.111 225.013 40.1678C225.013 46.2245 225.013 49.9311 225.013 54.8128V58.9894C225.013 60.1397 224.939 61.2736 225.983 62.0817C226.747 62.6754 227.611 62.6012 228.502 62.6012H231.894C236.049 62.6012 240.209 62.6012 244.364 62.6012C250.037 62.6012 255.705 62.6012 261.377 62.6012H306.003C306.686 62.6012 307.368 62.6094 308.05 62.6012C309.103 62.5888 310.056 62.0363 310.451 61.0303C310.566 60.7376 310.619 60.4325 310.632 60.1191C310.669 59.2986 310.632 58.4658 310.632 57.6453V53.11C310.632 40.778 310.632 28.4501 310.632 16.1181C310.632 10.2428 310.632 4.36334 310.632 -1.51198C310.632 -2.10982 309.707 -2.10982 309.707 -1.51198V-1.5161Z" fill="#040C12"/>
<path d="M302.871 27.0278H272.993C272.409 27.0278 271.937 27.5022 271.937 28.0875V53.8399C271.937 54.4251 272.409 54.8995 272.993 54.8995H302.871C303.455 54.8995 303.927 54.4251 303.927 53.8399V28.0875C303.927 27.5022 303.455 27.0278 302.871 27.0278Z" fill="#FBE0D9"/>
<path d="M303.467 12.4692C303.467 13.5412 303.467 14.6132 303.467 15.6893V23.6427C303.467 27.073 303.467 30.4993 303.467 33.9296C303.467 37.2817 303.467 40.6378 303.467 43.9898C303.467 46.476 303.467 48.9622 303.467 51.4484V53.4027C303.467 53.8769 303.488 54.384 302.842 54.4376C302.353 54.4747 301.848 54.4376 301.363 54.4376H298.107C294.885 54.4376 291.666 54.4376 288.444 54.4376C285.221 54.4376 281.851 54.4376 278.554 54.4376C276.75 54.4376 274.941 54.4706 273.141 54.4376C272.758 54.4294 272.442 54.2809 272.397 53.8398C272.389 53.7655 272.397 53.6831 272.397 53.6047V51.9349C272.397 49.593 272.397 47.2512 272.397 44.9134C272.397 41.5944 272.397 38.2753 272.397 34.9563C272.397 31.6372 272.397 28.0378 272.397 24.5786C272.397 21.8162 272.397 19.0579 272.397 16.2954C272.397 15.0461 272.294 13.7474 272.397 12.5022C272.454 11.8096 273.022 11.8714 273.519 11.8714H275.973C278.94 11.8714 281.904 11.8714 284.872 11.8714H295.139C297.445 11.8714 299.751 11.8714 302.061 11.8714C302.571 11.8714 303.422 11.7271 303.467 12.4692C303.504 13.063 304.429 13.0671 304.392 12.4692C304.338 11.5993 303.718 10.9767 302.846 10.9437C302.69 10.9396 302.53 10.9437 302.374 10.9437H299.858C296.8 10.9437 293.746 10.9437 290.688 10.9437H280.272C278.032 10.9437 275.792 10.9437 273.552 10.9437C272.652 10.9437 271.686 11.121 271.497 12.2136C271.435 12.5682 271.472 12.9516 271.472 13.3103V19.363C271.472 22.5913 271.472 25.8238 271.472 29.0521C271.472 32.6185 271.472 36.1808 271.472 39.7472V48.8468C271.472 50.4383 271.472 52.0297 271.472 53.6212C271.472 54.5572 272.023 55.3241 273.022 55.3612C273.531 55.3777 274.041 55.3612 274.551 55.3612H282.648C286.167 55.3612 289.689 55.3612 293.208 55.3612C295.9 55.3612 298.592 55.3612 301.28 55.3612C301.794 55.3612 302.316 55.3777 302.83 55.3612C303.829 55.3282 304.384 54.5572 304.384 53.6212C304.384 52.0297 304.384 50.4383 304.384 48.8468C304.384 45.8287 304.384 42.8148 304.384 39.7967C304.384 36.2344 304.384 32.668 304.384 29.1057C304.384 25.8567 304.384 22.6119 304.384 19.363V13.3103C304.384 13.03 304.384 12.7496 304.384 12.4692C304.384 11.8714 303.459 11.8714 303.459 12.4692H303.467Z" fill="#040C12"/>
<path d="M230.801 55.3611H261.739C263.161 55.3611 264.633 55.4683 266.051 55.3611C266.072 55.3611 266.092 55.3611 266.113 55.3611C266.709 55.3611 266.709 54.4334 266.113 54.4334H235.174C233.752 54.4334 232.28 54.3262 230.862 54.4334C230.842 54.4334 230.821 54.4334 230.801 54.4334C230.205 54.4334 230.205 55.3611 230.801 55.3611Z" fill="#040C12"/>
<path d="M233.139 42.6456V54.8993C233.139 55.4971 234.064 55.4971 234.064 54.8993V42.6456C234.064 42.0478 233.139 42.0478 233.139 42.6456Z" fill="#040C12"/>
<path d="M242.502 36.4694V54.8952C242.502 55.493 243.427 55.493 243.427 54.8952V36.4694C243.427 35.8715 242.502 35.8715 242.502 36.4694Z" fill="#040C12"/>
<path d="M251.997 33.1505V54.8954C251.997 55.4932 252.922 55.4932 252.922 54.8954V33.1505C252.922 32.5527 251.997 32.5527 251.997 33.1505Z" fill="#040C12"/>
<path d="M261.496 25.1232V54.8956C261.496 55.4934 262.421 55.4934 262.421 54.8956V25.1232C262.421 24.5253 261.496 24.5253 261.496 25.1232Z" fill="#040C12"/>
<path d="M281.419 24.6814C283.678 24.6814 285.509 22.8447 285.509 20.579C285.509 18.3133 283.678 16.4766 281.419 16.4766C279.16 16.4766 277.329 18.3133 277.329 20.579C277.329 22.8447 279.16 24.6814 281.419 24.6814Z" fill="#FCEBE6"/>
<path d="M285.048 20.579C285.028 22.0922 284.099 23.4817 282.664 24.0012C281.23 24.5207 279.582 24.0671 278.607 22.8756C277.633 21.684 277.539 20.0059 278.311 18.7113C279.084 17.4167 280.613 16.7158 282.085 17.0002C283.803 17.3301 285.028 18.8391 285.052 20.579C285.061 21.1769 285.985 21.1769 285.977 20.579C285.953 18.6783 284.789 16.9796 283.014 16.2993C281.234 15.619 279.121 16.188 277.921 17.6641C276.721 19.1401 276.532 21.2635 277.514 22.9127C278.496 24.5619 280.412 25.3989 282.278 25.0608C284.419 24.6732 285.948 22.7271 285.977 20.5749C285.985 19.9771 285.061 19.9771 285.052 20.5749L285.048 20.579Z" fill="#040C12"/>
<path d="M281.418 23.5639C283.062 23.5639 284.394 22.2274 284.394 20.5788C284.394 18.9302 283.062 17.5938 281.418 17.5938C279.775 17.5938 278.442 18.9302 278.442 20.5788C278.442 22.2274 279.775 23.5639 281.418 23.5639Z" fill="#FBE0D9"/>
<path d="M225.473 1.72456H310.167C310.763 1.72456 310.763 0.796875 310.167 0.796875H225.473C224.877 0.796875 224.877 1.72456 225.473 1.72456Z" fill="#040C12"/>
<path d="M291.65 28.9803V28.5201C291.65 28.2019 291.715 27.9107 291.846 27.6465C291.98 27.3795 292.173 27.1664 292.426 27.0073C292.681 26.8454 292.991 26.7644 293.355 26.7644C293.724 26.7644 294.034 26.8454 294.284 27.0073C294.534 27.1664 294.723 27.3795 294.85 27.6465C294.978 27.9107 295.042 28.2019 295.042 28.5201V28.9803C295.042 29.2985 294.977 29.5911 294.846 29.8582C294.718 30.1224 294.528 30.3354 294.275 30.4974C294.025 30.6565 293.718 30.736 293.355 30.736C292.985 30.736 292.674 30.6565 292.421 30.4974C292.169 30.3354 291.977 30.1224 291.846 29.8582C291.715 29.5911 291.65 29.2985 291.65 28.9803ZM292.519 28.5201V28.9803C292.519 29.2445 292.582 29.4818 292.707 29.692C292.832 29.8994 293.048 30.0031 293.355 30.0031C293.653 30.0031 293.863 29.8994 293.985 29.692C294.11 29.4818 294.173 29.2445 294.173 28.9803V28.5201C294.173 28.2559 294.113 28.0201 293.994 27.8127C293.875 27.6025 293.661 27.4974 293.355 27.4974C293.056 27.4974 292.842 27.6025 292.711 27.8127C292.583 28.0201 292.519 28.2559 292.519 28.5201ZM287.304 23.986V23.5258C287.304 23.2076 287.369 22.9164 287.5 22.6522C287.633 22.3852 287.826 22.1721 288.079 22.013C288.335 21.8511 288.644 21.7701 289.008 21.7701C289.377 21.7701 289.687 21.8511 289.937 22.013C290.187 22.1721 290.376 22.3852 290.504 22.6522C290.632 22.9164 290.696 23.2076 290.696 23.5258V23.986C290.696 24.3042 290.63 24.5968 290.5 24.8639C290.372 25.1281 290.181 25.3411 289.929 25.5031C289.679 25.6622 289.372 25.7417 289.008 25.7417C288.639 25.7417 288.328 25.6622 288.075 25.5031C287.822 25.3411 287.63 25.1281 287.5 24.8639C287.369 24.5968 287.304 24.3042 287.304 23.986ZM288.173 23.5258V23.986C288.173 24.2502 288.235 24.4874 288.36 24.6977C288.485 24.9051 288.701 25.0087 289.008 25.0087C289.306 25.0087 289.517 24.9051 289.639 24.6977C289.764 24.4874 289.826 24.2502 289.826 23.986V23.5258C289.826 23.2616 289.767 23.0258 289.647 22.8184C289.528 22.6082 289.315 22.5031 289.008 22.5031C288.71 22.5031 288.495 22.6082 288.365 22.8184C288.237 23.0258 288.173 23.2616 288.173 23.5258ZM287.627 30.6167L293.627 21.8894H294.599L288.599 30.6167H287.627Z" fill="#040C12"/>
<path d="M261.619 6.66797H231.137C230.951 6.66797 230.8 6.81934 230.8 7.00606V9.90043C230.8 10.0871 230.951 10.2385 231.137 10.2385H261.619C261.805 10.2385 261.956 10.0871 261.956 9.90043V7.00606C261.956 6.81934 261.805 6.66797 261.619 6.66797Z" fill="#040C12"/>
<path d="M261.604 17.8006H232.963C232.449 17.8006 231.804 17.6934 231.298 17.8006C231.265 17.8089 231.204 17.7841 231.175 17.8006C231.171 17.8006 231.159 17.8006 231.154 17.8006C231.356 17.7347 231.2 18.0191 231.265 17.7511C231.335 17.4625 231.265 17.075 231.265 16.7822V15.6113C231.265 15.4835 231.29 15.3268 231.265 15.2031C231.249 15.1206 231.315 15.0011 231.212 15.1C231.101 15.2072 231.183 15.1248 231.233 15.1536C231.335 15.2072 231.611 15.1536 231.722 15.1536H261.214C261.329 15.1536 261.481 15.1825 261.592 15.1536C261.452 15.1866 261.555 14.9599 261.497 15.2031C261.423 15.5206 261.497 15.9494 261.497 16.271V17.3388C261.497 17.4749 261.501 17.611 261.497 17.747C261.489 17.9614 261.501 17.8089 261.485 17.813C260.897 17.9078 261.148 18.8025 261.731 18.7077C262.549 18.5757 262.422 17.6852 262.422 17.0708C262.422 16.407 262.467 15.7226 262.422 15.0588C262.364 14.1971 261.637 14.2218 261.012 14.2218H235.894C234.34 14.2218 232.762 14.1435 231.208 14.2218C230.715 14.2466 230.373 14.5475 230.337 15.0588C230.291 15.7226 230.337 16.4029 230.337 17.0708C230.337 17.6893 230.209 18.5634 231.027 18.7077C231.154 18.7283 231.278 18.7242 231.405 18.7242H261.6C262.196 18.7242 262.196 17.7965 261.6 17.7965L261.604 17.8006Z" fill="#040C12"/>
<path d="M249.753 14.6914H230.8V18.262H249.753V14.6914Z" fill="#040C12"/>
<path d="M268.258 175.626C268.234 175.836 268.177 176.025 268.087 176.193C268.003 176.361 267.895 176.511 267.763 176.643C267.631 176.769 267.481 176.877 267.313 176.967C267.145 177.051 266.971 177.117 266.791 177.165L268.942 180H267.916L266.323 177.885C266.149 177.651 265.99 177.483 265.846 177.381C265.708 177.273 265.561 177.219 265.405 177.219V176.562H265.936C266.122 176.562 266.299 176.55 266.467 176.526C266.641 176.496 266.797 176.448 266.935 176.382C267.073 176.31 267.187 176.214 267.277 176.094C267.373 175.974 267.43 175.818 267.448 175.626H265.243L265.513 175.095H267.412C267.358 174.849 267.241 174.651 267.061 174.501C266.881 174.351 266.638 174.27 266.332 174.258H265.243L265.513 173.727H269.464L269.194 174.258H267.88C268.084 174.486 268.207 174.765 268.249 175.095H269.464L269.194 175.626H268.258Z" fill="#040C12"/>
</g>
<path d="M396.305 111.144C396.276 113.712 394.69 116.091 392.256 116.978C389.823 117.864 387.04 117.134 385.355 115.143C383.657 113.135 383.444 110.17 384.796 107.928C386.148 105.685 388.787 104.526 391.323 105.046C394.209 105.639 396.272 108.204 396.305 111.144C396.313 111.741 397.238 111.741 397.23 111.144C397.197 108.167 395.355 105.483 392.569 104.435C389.782 103.388 386.502 104.279 384.619 106.588C382.737 108.896 382.449 112.248 384.003 114.825C385.556 117.402 388.577 118.713 391.504 118.149C394.821 117.505 397.197 114.491 397.23 111.139C397.238 110.542 396.313 110.542 396.305 111.139V111.144Z" fill="#040C12"/>
<path d="M47.9275 29.9279H62.8974C63.551 29.9279 64.2169 29.8619 64.7923 30.2577C65.6843 30.8721 65.6144 31.8451 65.6144 32.7893V39.9881C65.6144 40.8952 65.7007 41.8187 64.9362 42.4867C64.2498 43.0845 63.3537 42.9773 62.5152 42.9773H55.1864C54.4219 42.9773 53.5875 42.8866 52.8764 43.2164C52.2516 43.505 51.8817 44.0452 51.4706 44.5688C51.3884 44.676 51.1993 45.0264 51.0678 45.08C51.0966 45.0677 51.1624 45.1254 51.0596 45.0306C50.9733 44.9522 50.8952 44.8533 50.8171 44.7667C50.4513 44.3668 50.1019 43.9173 49.6867 43.571C49.0291 43.0227 48.3221 43.0185 47.5206 43.002C46.6409 42.9814 45.9833 42.3424 45.9504 41.4559C45.9422 41.2456 45.9504 41.0312 45.9504 40.821V33.6263C45.9504 32.9748 45.8723 32.2615 45.971 31.6142C46.1189 30.6329 46.9657 29.9568 47.9316 29.9279C48.5235 29.9114 48.5276 28.9837 47.9316 29.0002C46.2628 29.0497 45.0379 30.3608 45.0256 32.0183C45.0174 32.9377 45.0256 33.8613 45.0256 34.7807C45.0256 36.9989 44.968 39.2212 45.0256 41.4394C45.0461 42.2022 45.3544 42.9072 45.9545 43.3896C46.5998 43.905 47.2822 43.905 48.0631 43.9215C48.8934 43.938 49.325 44.5111 49.8388 45.0677C50.2129 45.4759 50.6444 46.1603 51.2939 46.0036C51.8159 45.8758 52.1982 45.1419 52.5023 44.7543C52.8928 44.2596 53.3285 43.9173 53.9862 43.9091C54.8288 43.8967 55.6714 43.9091 56.5099 43.9091C58.8405 43.9091 61.167 43.9215 63.4976 43.9091C65.0266 43.9009 66.3666 42.8577 66.5269 41.2786C66.6009 40.5241 66.5433 39.7448 66.5433 38.9862C66.5433 36.6402 66.5598 34.2942 66.5433 31.9482C66.531 30.3361 65.3596 29.0497 63.7277 29.0085C63.2715 28.9961 62.8111 29.0085 62.3508 29.0085H47.9316C47.3356 29.0085 47.3356 29.9361 47.9316 29.9361L47.9275 29.9279Z" fill="#040C12"/>
<path d="M17.1967 160.089C17.1679 163.494 15.0264 166.636 11.8039 167.782C8.58137 168.928 4.9848 167.926 2.79398 165.325C0.603151 162.723 0.307205 158.79 2.08699 155.85C3.86678 152.91 7.29894 151.41 10.6119 152.069C14.414 152.828 17.1638 156.217 17.1967 160.093C17.2008 160.691 18.1256 160.691 18.1215 160.093C18.0886 156.3 15.7293 152.877 12.1779 151.55C8.62658 150.222 4.45456 151.36 2.05411 154.304C-0.346343 157.248 -0.695724 161.523 1.28547 164.801C3.26667 168.079 7.13041 169.753 10.8544 169.011C15.0552 168.17 18.0845 164.36 18.1174 160.093C18.1215 159.495 17.1967 159.495 17.1926 160.093L17.1967 160.089Z" fill="#040C12"/>
<path d="M8.58984 154.811V160.089C8.58984 160.241 8.67616 160.419 8.82002 160.489C10.3573 161.239 11.8946 161.989 13.4319 162.74C13.9662 163 14.4348 162.2 13.9004 161.94C12.3632 161.19 10.8259 160.439 9.28861 159.689L9.51879 160.089V154.811C9.51879 154.213 8.59395 154.213 8.59395 154.811H8.58984Z" fill="#040C12"/>
<defs>
<clipPath id="clip0_368_3031">
<rect width="254" height="263" fill="white" transform="translate(58)"/>
</clipPath>
</defs>
</svg>
