<svg width="612" height="232" viewBox="0 0 612 232" fill="none" xmlns="http://www.w3.org/2000/svg">
<g clip-path="url(#clip0_2006_1200)">
<path d="M307.567 130.37C299.419 130.37 292.01 129.655 288.103 127.666C288.031 127.63 287.996 127.535 288.043 127.464C288.079 127.392 288.174 127.356 288.246 127.404C296.298 131.501 319.431 130.155 333.01 128.262C333.093 128.262 333.165 128.309 333.177 128.393C333.177 128.476 333.129 128.547 333.046 128.559C325.982 129.548 316.345 130.382 307.567 130.382V130.37Z" fill="#FCEBE6"/>
<path d="M316.26 141.816C305.445 141.816 295.546 140.089 288.137 138.278C288.053 138.254 288.006 138.183 288.03 138.1C288.053 138.016 288.125 137.969 288.208 137.992C299.584 140.768 316.796 143.34 334.211 139.779C334.295 139.767 334.366 139.815 334.39 139.898C334.402 139.981 334.354 140.053 334.271 140.077C328.16 141.327 322.073 141.828 316.26 141.828V141.816Z" fill="#FCEBE6"/>
<path d="M367.374 166.351C367.374 166.351 367.279 166.327 367.243 166.279C363.348 159.729 357.011 156.417 351.103 157.871C351.019 157.894 350.948 157.847 350.924 157.763C350.9 157.68 350.948 157.608 351.031 157.585C357.071 156.108 363.539 159.466 367.493 166.136C367.541 166.208 367.517 166.303 367.446 166.339C367.422 166.351 367.398 166.363 367.374 166.363V166.351Z" fill="#FCEBE6"/>
<path d="M365.838 169.031C365.838 169.031 365.779 169.031 365.743 168.995C365.017 168.447 364.516 167.673 364.028 166.922C363.861 166.66 363.682 166.398 363.504 166.136C362.396 164.576 360.895 163.349 359.144 162.587C359.073 162.551 359.037 162.468 359.073 162.397C359.108 162.325 359.192 162.289 359.263 162.325C361.062 163.111 362.61 164.374 363.754 165.981C363.933 166.244 364.111 166.517 364.29 166.779C364.766 167.506 365.255 168.256 365.934 168.78C366.005 168.828 366.017 168.923 365.958 168.995C365.934 169.031 365.886 169.054 365.838 169.054V169.031Z" fill="#FCEBE6"/>
<path d="M252.76 129.488C252.76 129.488 252.724 129.488 252.7 129.488C252.629 129.453 252.593 129.369 252.617 129.298C253.951 126.034 254.606 122.438 254.511 118.912C254.511 118.829 254.57 118.757 254.654 118.757C254.737 118.757 254.797 118.817 254.797 118.9C254.892 122.473 254.225 126.106 252.879 129.417C252.855 129.477 252.795 129.512 252.736 129.512L252.76 129.488Z" fill="#FCEBE6"/>
<path d="M257.335 122.879C257.335 122.879 257.311 122.879 257.299 122.879C257.215 122.855 257.168 122.783 257.192 122.7C257.478 121.449 257.561 120.163 257.43 118.877C257.43 118.793 257.478 118.722 257.561 118.71C257.644 118.71 257.716 118.758 257.728 118.841C257.859 120.151 257.775 121.473 257.489 122.759C257.478 122.831 257.418 122.879 257.347 122.879H257.335Z" fill="#FCEBE6"/>
<path d="M438.523 125.391C438.368 132.014 442.418 138.767 448.672 140.946C452.078 142.137 455.807 141.971 459.297 142.876C462.787 143.781 466.337 146.413 466.361 150.022C466.372 152.416 465.015 157.847 472.185 161.027C478.106 163.647 476.688 177.856 458.368 183.823C452.757 185.657 456.379 181.048 450.542 180.155C444.776 179.273 439.559 176.01 435.581 171.746C431.602 167.482 428.791 162.254 426.599 156.858C424.074 150.641 422.311 143.769 423.871 137.242C425.432 130.715 431.185 124.82 438.511 125.391H438.523Z" fill="#040C12"/>
<path d="M456.284 184.692C455.021 184.692 454.545 184.002 454.068 183.061C453.58 182.084 453.032 180.988 450.483 180.595C445.015 179.75 439.619 176.724 435.26 172.056C431.722 168.256 428.756 163.349 426.195 157.025C422.978 149.081 422.097 142.768 423.443 137.135C424.968 130.763 430.781 124.331 438.559 124.951C438.797 124.974 438.976 125.165 438.976 125.403C438.821 132.121 442.966 138.481 448.827 140.529C450.673 141.172 452.686 141.411 454.628 141.649C456.212 141.839 457.844 142.042 459.417 142.447C462.966 143.376 466.79 146.139 466.814 150.022C466.814 150.331 466.79 150.701 466.778 151.082C466.623 153.821 466.385 157.966 472.376 160.622C474.616 161.61 475.902 164.159 475.748 167.256C475.474 172.592 470.792 180.25 458.523 184.252C457.57 184.561 456.855 184.692 456.296 184.692H456.284ZM437.535 125.796C430.733 125.796 425.682 131.597 424.313 137.337C423.014 142.78 423.872 148.926 427.017 156.68C429.542 162.897 432.448 167.72 435.915 171.436C440.131 175.962 445.349 178.892 450.614 179.702C453.615 180.166 454.342 181.596 454.866 182.644C455.378 183.668 455.664 184.228 458.237 183.382C470.089 179.523 474.592 172.246 474.854 167.196C474.997 164.469 473.901 162.265 472.019 161.42C465.468 158.514 465.742 153.63 465.885 151.01C465.908 150.629 465.92 150.296 465.92 150.01C465.896 146.603 462.418 144.138 459.19 143.292C457.677 142.899 456.069 142.709 454.521 142.518C452.532 142.28 450.471 142.03 448.529 141.351C442.43 139.231 438.094 132.728 438.071 125.796C437.892 125.796 437.713 125.784 437.535 125.784V125.796Z" fill="#040C12"/>
<path d="M402.704 110.266C404.634 119.675 406.504 129.798 402.644 138.588C401.394 141.447 399.571 144.043 398.547 146.997C397.32 150.498 397.284 154.31 397.618 158.002C398.249 164.981 400.345 172.151 405.253 177.154C410.161 182.156 418.38 184.335 424.443 180.81C429.755 177.713 432.185 171.056 431.852 164.91C431.518 158.764 428.898 153 426.134 147.509C419.487 134.301 411.745 121.652 402.704 110.266Z" fill="#040C12"/>
<path d="M416.308 156.143C416.487 151.129 415.867 148.318 415.665 144.567C417.69 143.554 419.87 142.852 422.109 142.482C423.11 142.316 424.241 142.256 425.016 142.864C425.504 143.245 427.791 141.22 428.029 141.78C429.661 145.603 429.804 151.058 431.436 154.893C431.567 155.191 437.285 154.655 437.404 154.952C437.94 156.203 437.487 166.577 437.094 166.839C416.165 180.75 406.088 160.848 406.088 160.848C406.088 160.848 409.888 158.525 416.308 156.132V156.143Z" fill="#FCEBE6"/>
<path d="M423.014 172.234C421.489 172.234 420 172.044 418.547 171.663C409.994 169.412 405.861 161.408 405.682 161.063C405.575 160.86 405.647 160.598 405.849 160.479C405.885 160.455 409.649 158.168 415.867 155.822C415.962 152.678 415.736 150.391 415.51 148.188C415.39 147.044 415.283 145.865 415.212 144.591C415.212 144.412 415.295 144.245 415.462 144.162C417.535 143.126 419.75 142.411 422.037 142.042C423.038 141.875 424.3 141.78 425.23 142.459C425.456 142.411 426.028 142.09 426.373 141.875C427.195 141.399 427.683 141.125 428.088 141.256C428.255 141.315 428.386 141.434 428.458 141.589C429.292 143.543 429.744 145.937 430.185 148.235C430.602 150.415 431.031 152.666 431.781 154.512C432.234 154.548 433.473 154.512 434.414 154.464C437.403 154.345 437.665 154.369 437.832 154.762C438.213 155.643 438.118 159.598 438.059 161.265C437.868 166.851 437.534 167.077 437.356 167.196C432.329 170.531 427.529 172.211 423.026 172.211L423.014 172.234ZM406.695 161.027C407.612 162.623 411.65 168.923 418.785 170.805C424.253 172.246 430.304 170.805 436.748 166.541C437.082 165.398 437.403 156.977 437.046 155.322C436.57 155.286 435.355 155.334 434.425 155.369C431.448 155.489 431.185 155.465 431.019 155.072C430.185 153.118 429.732 150.724 429.292 148.426C428.875 146.258 428.446 144.007 427.707 142.185C427.469 142.28 427.088 142.506 426.814 142.661C425.92 143.185 425.218 143.602 424.741 143.221C424.074 142.697 423.026 142.792 422.18 142.923C420.072 143.269 418.047 143.9 416.129 144.829C416.201 145.96 416.296 146.997 416.415 148.092C416.641 150.403 416.879 152.785 416.76 156.144C416.76 156.322 416.641 156.489 416.474 156.549C411.293 158.478 407.791 160.384 406.695 161.015V161.027Z" fill="#040C12"/>
<path d="M400.547 112.576C401.167 117.221 402.096 122.093 400.905 126.714C400.249 129.239 400.309 142.054 410.601 145.699C416.009 147.616 422.215 147.223 427.801 143.841C431.589 141.542 436.175 134.42 435.258 127.345C438.391 128.214 441.488 126.106 441.524 123.284C441.547 121.664 439.761 119.627 437.867 119.722C436.402 119.794 436.235 119.806 435.115 120.663C434.353 117.34 433.888 113.97 433.96 110.147C430.398 106.228 424.704 104.227 418.998 103.37C417.116 103.084 415.175 102.917 413.257 103.155C407.778 103.834 399.94 107.812 400.571 112.576H400.547Z" fill="#FCEBE6"/>
<path d="M417.248 147.318C414.961 147.318 412.674 146.925 410.434 146.127C400.107 142.459 399.654 129.703 400.464 126.606C401.5 122.628 400.905 118.424 400.333 114.351C400.25 113.779 400.178 113.207 400.095 112.648C399.916 111.29 400.333 109.944 401.346 108.622C403.799 105.442 409.267 103.203 413.162 102.714C415.282 102.452 417.415 102.691 419.023 102.929C423.752 103.632 430.232 105.406 434.258 109.849C434.329 109.932 434.377 110.039 434.377 110.158C434.329 113.386 434.639 116.507 435.377 119.901C436.14 119.389 436.533 119.341 437.819 119.282C438.76 119.234 439.785 119.663 440.595 120.449C441.441 121.259 441.953 122.354 441.941 123.295C441.917 124.677 441.226 125.987 440.035 126.892C438.832 127.797 437.26 128.167 435.747 127.917C436.366 135.122 431.732 141.971 428.004 144.222C424.621 146.27 420.952 147.306 417.248 147.306V147.318ZM415.128 103.501C414.52 103.501 413.901 103.536 413.293 103.608C409.577 104.072 404.383 106.18 402.072 109.17C401.215 110.289 400.845 111.421 401 112.529C401.072 113.088 401.155 113.66 401.238 114.232C401.822 118.388 402.43 122.7 401.346 126.845C400.893 128.572 400.333 141.601 410.756 145.294C416.378 147.283 422.346 146.639 427.575 143.471C431.113 141.327 435.723 134.372 434.829 127.416C434.806 127.273 434.865 127.119 434.984 127.023C435.092 126.928 435.246 126.892 435.401 126.928C436.843 127.333 438.391 127.047 439.547 126.178C440.511 125.451 441.083 124.391 441.095 123.283C441.095 122.581 440.69 121.735 440.023 121.092C439.38 120.473 438.617 120.139 437.903 120.175C436.497 120.246 436.414 120.246 435.401 121.021C435.282 121.116 435.115 121.14 434.984 121.08C434.841 121.032 434.734 120.913 434.698 120.758C433.853 117.09 433.483 113.767 433.519 110.313C429.66 106.168 423.478 104.489 418.939 103.81C417.855 103.643 416.545 103.489 415.163 103.489L415.128 103.501Z" fill="#040C12"/>
<path d="M423.003 131.43C421.49 131.43 420.013 130.87 418.786 129.822C417.356 128.595 416.427 126.844 416.177 124.891C415.653 120.842 418.226 117.149 421.907 116.673C425.587 116.197 429.018 119.115 429.542 123.164C430.066 127.214 427.493 130.906 423.813 131.382C423.55 131.418 423.277 131.43 423.014 131.43H423.003ZM422.693 117.507C422.467 117.507 422.24 117.519 422.014 117.554C418.822 117.971 416.594 121.199 417.059 124.772C417.285 126.511 418.107 128.059 419.369 129.143C420.62 130.215 422.157 130.691 423.693 130.489C426.886 130.072 429.113 126.832 428.649 123.271C428.22 119.96 425.623 117.507 422.693 117.507Z" fill="#040C12"/>
<path d="M404.407 132.275C402.894 132.275 401.417 131.716 400.19 130.668C398.761 129.441 397.832 127.69 397.581 125.737C397.057 121.675 399.63 117.995 403.311 117.519C405.11 117.292 406.885 117.84 408.338 119.079C409.767 120.306 410.696 122.056 410.946 124.01C411.471 128.059 408.898 131.751 405.217 132.228C404.955 132.264 404.681 132.275 404.419 132.275H404.407ZM404.109 118.352C403.883 118.352 403.656 118.364 403.43 118.4C400.238 118.817 398.01 122.045 398.463 125.618C398.689 127.356 399.511 128.905 400.774 129.989C402.025 131.061 403.561 131.537 405.098 131.335C408.29 130.918 410.518 127.69 410.053 124.117C409.827 122.378 409.005 120.83 407.742 119.746C406.682 118.829 405.407 118.352 404.097 118.352H404.109Z" fill="#040C12"/>
<path d="M439.357 84.2059C437.463 77.953 430.852 74.4275 424.599 76.3213C418.345 78.215 414.819 84.8252 416.713 91.0781C418.607 97.331 425.218 100.856 431.472 98.9627C437.725 97.0689 441.251 90.4587 439.357 84.2059Z" fill="#040C12"/>
<path d="M434.687 121.152C431.685 116.495 429.851 113.148 428.862 107.479C417.772 114.041 407.254 115.065 396.641 114.661C396.415 112.85 396.796 108.86 397.546 107.145C399.381 102.953 401.68 99.3201 408.088 96.4498C412.579 94.4489 418.618 93.103 423.478 93.8057C428.302 94.4965 432.46 97.1167 435.843 100.249C438.535 102.738 440.798 106.836 441.608 110.873C442.287 114.339 441.441 116.888 439.893 120.413C439.023 119.949 438.201 119.472 437.189 119.663C436.176 119.853 435.533 120.366 434.687 121.14V121.152Z" fill="#040C12"/>
<path d="M418.606 138.969C417.796 138.969 417.046 138.719 416.45 138.219C416.26 138.064 416.236 137.778 416.391 137.588C416.546 137.397 416.831 137.373 417.022 137.528C417.761 138.148 418.88 138.243 420 137.766C421.263 137.242 422.299 136.218 422.918 134.896C423.026 134.67 423.288 134.574 423.514 134.682C423.74 134.789 423.836 135.051 423.728 135.277C423.014 136.802 421.811 137.981 420.345 138.588C419.762 138.838 419.166 138.957 418.606 138.957V138.969Z" fill="#040C12"/>
<path d="M422.538 124.332C422.466 123.748 421.907 123.343 421.287 123.426C420.68 123.51 420.239 124.046 420.31 124.617C420.382 125.201 420.942 125.606 421.561 125.523C422.169 125.439 422.609 124.903 422.538 124.332Z" fill="#040C12"/>
<path d="M405.979 125.213C405.908 124.629 405.348 124.224 404.729 124.308C404.121 124.391 403.68 124.927 403.752 125.499C403.823 126.07 404.383 126.487 405.002 126.404C405.61 126.321 406.051 125.785 405.979 125.213Z" fill="#040C12"/>
<path d="M412.198 132.025C412.198 132.025 412.091 132.025 412.043 132.002L410.531 131.43C410.352 131.358 409.983 131.215 409.84 130.858C409.673 130.417 409.959 130.013 410.102 129.822C411.233 128.309 411.603 126.344 411.102 124.581C411.031 124.343 411.174 124.093 411.412 124.034C411.65 123.962 411.901 124.105 411.96 124.343C412.532 126.38 412.103 128.631 410.817 130.358C410.793 130.394 410.733 130.477 410.697 130.537C410.733 130.548 410.781 130.572 410.84 130.596L412.353 131.168C412.579 131.251 412.699 131.513 412.615 131.74C412.544 131.918 412.377 132.025 412.198 132.025Z" fill="#040C12"/>
<path d="M410.232 123.021C409.994 123.021 409.791 122.831 409.791 122.581C409.768 121.521 410.804 120.77 411.828 120.508C413.484 120.091 415.366 120.508 416.617 121.616C416.807 121.783 416.819 122.057 416.664 122.247C416.498 122.438 416.224 122.45 416.033 122.295C414.997 121.39 413.436 121.032 412.055 121.39C411.376 121.568 410.685 122.033 410.697 122.581C410.697 122.831 410.506 123.033 410.256 123.033L410.232 123.021Z" fill="#040C12"/>
<path d="M428.695 121.259C428.445 121.259 428.254 121.056 428.242 120.818C428.242 120.568 428.445 120.365 428.683 120.365H434.162V120.354C434.412 120.354 434.603 120.556 434.615 120.794C434.615 121.044 434.412 121.247 434.174 121.247H428.695V121.259Z" fill="#040C12"/>
<path d="M435.175 125.046C434.925 125.046 434.735 124.843 434.735 124.593C434.747 123.259 434.484 121.914 433.96 120.699C433.865 120.472 433.96 120.21 434.199 120.115C434.425 120.02 434.687 120.115 434.782 120.353C435.354 121.687 435.64 123.164 435.628 124.617C435.628 124.867 435.425 125.058 435.175 125.058V125.046Z" fill="#040C12"/>
<path d="M475.318 198.961C470.47 185.717 467.802 172.663 456.367 163.123C450.887 158.549 444.264 155.298 436.641 154.81C436.176 162.194 427.6 167.053 423.002 167.601C420.5 167.899 411.209 169.138 411.209 158.18C408.184 159.383 398.094 160.622 394.044 173.056C392.389 178.142 389.423 197.591 379.655 208.858C377.344 211.526 375.212 193.804 371.9 194.983C368.649 196.138 364.896 198.079 364.646 201.522C364.456 204.213 366.671 206.548 369.149 207.608C374.461 209.894 376.463 220.959 382.192 221.769C388.148 222.615 397.666 224.806 404.872 202.284C408.553 205.964 410.923 209.918 415.057 212.145C426.957 218.565 466.551 225.759 473.007 226.902C473.543 226.998 474.758 226.557 474.973 226.057C476.331 222.889 479.88 211.419 475.306 198.937L475.318 198.961Z" fill="#F6BFB0"/>
<path d="M473.161 227.379C473.078 227.379 472.995 227.379 472.923 227.355C465.3 226.009 426.694 218.935 414.841 212.551C411.971 211.002 409.934 208.656 407.778 206.167C406.92 205.166 406.027 204.154 405.062 203.142C402.001 212.443 398.272 218.279 393.686 220.959C389.648 223.318 385.813 222.758 382.727 222.305L382.12 222.222C378.844 221.757 376.748 218.232 374.723 214.814C373.043 211.967 371.304 209.037 368.957 208.025C366.432 206.941 363.978 204.499 364.193 201.498C364.395 198.568 366.873 196.293 371.745 194.566C372.114 194.435 372.495 194.459 372.865 194.638C374.425 195.412 375.545 199.009 376.736 202.82C377.415 205.011 378.57 208.68 379.178 208.68C379.178 208.68 379.225 208.68 379.321 208.561C387.087 199.592 390.565 185.193 392.436 177.463C392.912 175.486 393.293 173.926 393.615 172.913C397.164 161.992 405.455 159.491 409.434 158.288C410.077 158.097 410.637 157.93 411.03 157.764C411.161 157.704 411.328 157.728 411.447 157.811C411.566 157.895 411.637 158.037 411.637 158.18C411.637 161.48 412.507 163.921 414.21 165.434C416.962 167.875 421.226 167.351 422.834 167.161H422.918C427.301 166.625 435.711 161.92 436.164 154.774C436.164 154.655 436.223 154.548 436.318 154.464C436.414 154.381 436.521 154.345 436.64 154.357C443.751 154.81 450.481 157.644 456.628 162.778C466.157 170.722 469.624 181.012 473.304 191.898C474.067 194.161 474.853 196.496 475.699 198.806C479.844 210.133 477.426 221.388 475.353 226.247C475.067 226.914 473.876 227.379 473.138 227.379H473.161ZM404.871 201.855C404.99 201.855 405.098 201.903 405.193 201.986C406.384 203.177 407.444 204.404 408.469 205.583C410.565 208.013 412.554 210.3 415.282 211.765C427.015 218.089 465.502 225.128 473.102 226.486C473.519 226.557 474.472 226.152 474.579 225.902C474.805 225.378 479.975 212.979 474.912 199.116C474.067 196.793 473.269 194.447 472.506 192.184C468.873 181.417 465.431 171.246 456.104 163.457C450.231 158.562 443.835 155.81 437.069 155.274C436.271 162.647 427.623 167.494 423.073 168.03H422.989C421.274 168.245 416.712 168.792 413.662 166.089C411.864 164.493 410.899 162.039 410.792 158.8C410.47 158.907 410.113 159.014 409.719 159.133C405.586 160.384 397.903 162.706 394.484 173.175C394.163 174.164 393.793 175.712 393.317 177.666C391.435 185.479 387.921 200.009 380.012 209.144C379.642 209.573 379.261 209.609 379.011 209.549C377.903 209.323 377.141 207.06 375.902 203.082C374.925 199.95 373.698 196.043 372.483 195.436C372.34 195.364 372.209 195.352 372.066 195.4C367.564 196.996 365.289 199.009 365.11 201.558C364.931 204.106 367.171 206.274 369.339 207.203C371.947 208.323 373.758 211.383 375.521 214.349C377.522 217.732 379.416 220.924 382.275 221.329L382.882 221.412C388.755 222.269 397.617 223.556 404.466 202.153C404.514 202.01 404.633 201.891 404.788 201.855C404.824 201.855 404.859 201.843 404.895 201.843L404.871 201.855Z" fill="#040C12"/>
<path d="M461.107 211.729C450.244 211.121 439.309 210.371 428.362 209.621C427.385 209.454 422.513 208.763 421.322 208.584C420.31 208.43 419.333 208.06 418.404 207.632C415.152 206.131 408.172 203.189 406.611 204.059C403.026 205.119 399.774 207.703 397.225 210.978C395.795 212.824 394.628 215.862 395.224 216.386C395.605 216.719 396.165 216.862 396.581 216.505C398.273 212.884 401.287 209.895 404.932 208.239C403.24 209.192 401.668 210.359 400.25 211.693C398.821 213.039 397.499 214.671 397.177 216.612C397.153 216.767 397.141 216.934 397.213 217.065C397.403 217.386 397.904 217.196 398.201 216.969C398.785 216.517 406.254 210.442 407.659 210.609C405.801 211.312 399.178 216.683 399.154 217.255C399.142 217.529 399.19 217.815 399.369 218.029C399.607 218.315 400.024 218.41 400.393 218.351C400.763 218.291 401.096 218.101 401.418 217.91C403.55 216.612 405.515 214.98 407.826 214.027C408.982 213.551 410.387 213.265 411.412 213.98C409.351 214.766 407.421 215.897 405.813 217.386C405.551 217.624 405.337 217.898 405.17 218.208C404.92 218.66 404.634 219.316 404.979 219.697C405.551 220.316 406.039 220.006 406.54 219.709C408.517 218.398 410.542 217.327 412.662 216.481C413.317 216.219 414.104 215.993 414.699 216.374C415.211 216.707 417.713 218.256 422.835 218.518C424.586 218.613 426.277 219.065 428.457 219.673C457.272 227.617 465.884 230.785 472.864 227.784C474.234 227.2 474.687 226.474 474.234 224.127C473.019 217.863 471.828 214.301 461.119 211.753L461.107 211.729Z" fill="#FCEBE6"/>
<path d="M466.991 229.332C461.464 229.332 453.591 227.129 438.796 222.996C435.675 222.126 432.15 221.138 428.314 220.078C426.277 219.518 424.526 219.03 422.787 218.946C417.975 218.696 415.342 217.315 414.425 216.731C413.996 216.457 413.329 216.672 412.793 216.874C410.732 217.696 408.755 218.732 406.754 220.054L406.694 220.09C406.218 220.364 405.432 220.828 404.622 219.971C404.205 219.53 404.252 218.851 404.741 217.958C404.943 217.601 405.181 217.291 405.479 217.029C406.825 215.79 408.398 214.766 410.16 213.98C409.422 213.908 408.612 214.147 407.969 214.409C406.468 215.028 405.086 215.969 403.74 216.886C403.061 217.35 402.346 217.827 401.632 218.268C401.274 218.482 400.893 218.696 400.452 218.768C399.881 218.863 399.333 218.672 399.011 218.279C398.785 218.006 398.678 217.636 398.701 217.208C398.701 217.184 398.701 217.148 398.713 217.112C398.594 217.208 398.523 217.267 398.475 217.303C398.344 217.41 397.868 217.743 397.367 217.648C397.141 217.601 396.95 217.47 396.831 217.279C396.772 217.172 396.736 217.065 396.724 216.957C396.188 217.279 395.485 217.196 394.937 216.707C393.949 215.838 395.664 212.265 396.891 210.693C399.678 207.108 402.978 204.666 406.456 203.63C408.362 202.689 415.568 205.821 418.594 207.215C419.344 207.56 420.345 207.977 421.393 208.132C421.715 208.18 422.31 208.263 423.013 208.37C424.979 208.656 427.671 209.049 428.421 209.168C439.106 209.907 450.148 210.657 461.131 211.276C461.155 211.276 461.178 211.276 461.214 211.276C472.185 213.896 473.424 217.624 474.663 224.008C475.127 226.39 474.71 227.427 473.031 228.153C471.208 228.939 469.314 229.32 467.003 229.32L466.991 229.332ZM413.925 215.707C414.258 215.707 414.604 215.778 414.901 215.981C415.747 216.529 418.225 217.815 422.823 218.053C424.657 218.148 426.456 218.649 428.54 219.22C432.388 220.28 435.914 221.269 439.035 222.138C459.773 227.939 466.753 229.892 472.661 227.343C473.769 226.867 474.21 226.426 473.769 224.187C472.566 218.006 471.458 214.659 461.036 212.17C450.053 211.562 439.011 210.8 428.326 210.061C428.314 210.061 428.302 210.061 428.278 210.061C427.564 209.942 424.74 209.537 422.87 209.263C422.156 209.156 421.572 209.073 421.25 209.025C420.083 208.858 419.011 208.406 418.201 208.037C412.459 205.381 407.778 203.904 406.825 204.44C406.801 204.452 406.766 204.464 406.73 204.475C403.466 205.44 400.214 207.834 397.582 211.24C396.152 213.087 395.33 215.612 395.533 216.064C395.723 216.231 396.009 216.326 396.224 216.207C397.963 212.551 401.06 209.502 404.741 207.822C404.955 207.727 405.217 207.822 405.324 208.025C405.432 208.239 405.36 208.501 405.146 208.62C403.49 209.561 401.941 210.693 400.548 212.003C398.797 213.646 397.856 215.135 397.606 216.672C397.606 216.707 397.606 216.743 397.594 216.767C397.677 216.743 397.796 216.695 397.915 216.6C397.963 216.564 398.046 216.493 398.165 216.398C406.218 209.978 407.29 210.097 407.695 210.145C407.897 210.169 408.064 210.323 408.088 210.538C408.112 210.74 407.993 210.943 407.802 211.014C406.122 211.645 400.143 216.469 399.583 217.339C399.583 217.505 399.619 217.648 399.702 217.743C399.809 217.886 400.059 217.946 400.298 217.91C400.583 217.863 400.869 217.696 401.155 217.529C401.858 217.1 402.561 216.624 403.228 216.171C404.61 215.23 406.039 214.266 407.611 213.611C409.255 212.932 410.637 212.932 411.626 213.611C411.757 213.706 411.84 213.873 411.816 214.027C411.792 214.194 411.685 214.337 411.53 214.385C409.434 215.183 407.599 216.29 406.075 217.696C405.86 217.898 405.67 218.137 405.515 218.41C405.193 218.982 405.181 219.292 405.265 219.375C405.551 219.685 405.694 219.649 406.242 219.328L406.277 219.304C408.314 217.958 410.339 216.886 412.459 216.04C412.9 215.862 413.412 215.695 413.925 215.695V215.707Z" fill="#040C12"/>
<path d="M389.16 225.759C398.178 225.95 407.207 226.14 416.224 226.343L416.26 221.745L386.135 221.007L389.16 225.759Z" fill="#040C12"/>
<path d="M312.258 183.799L371.09 184.121L391.364 225.759L333.091 225.616L312.258 183.799Z" fill="#FCEBE6"/>
<path d="M391.364 226.212L333.092 226.069C332.925 226.069 332.77 225.973 332.699 225.819L311.865 184.002C311.794 183.859 311.806 183.704 311.889 183.561C311.972 183.43 312.115 183.347 312.27 183.347L371.102 183.668C371.269 183.668 371.424 183.764 371.507 183.918L391.781 225.557C391.853 225.7 391.841 225.854 391.757 225.985C391.674 226.116 391.531 226.2 391.376 226.2L391.364 226.212ZM333.366 225.175L390.65 225.318L370.805 184.573L312.985 184.252L333.366 225.175Z" fill="#040C12"/>
<path d="M349.47 200.76C347.803 200.593 345.98 201.046 345.301 202.57C344.622 204.106 345.147 206.024 346.385 207.155C347.624 208.287 349.459 208.656 351.09 208.287C351.972 208.084 352.853 207.656 353.366 206.905C353.723 206.381 353.866 205.75 353.878 205.119C353.89 203.058 352.949 201.093 349.482 200.76H349.47Z" fill="#FCEBE6"/>
<path d="M349.839 208.882C348.422 208.882 347.064 208.394 346.087 207.501C344.669 206.203 344.169 204.059 344.896 202.403C345.575 200.879 347.302 200.104 349.517 200.319C353.508 200.712 354.33 203.154 354.306 205.131C354.306 205.905 354.104 206.607 353.722 207.167C353.067 208.132 351.983 208.549 351.185 208.727C350.732 208.823 350.28 208.882 349.839 208.882ZM348.85 201.188C347.886 201.188 346.313 201.415 345.718 202.772C345.134 204.083 345.539 205.798 346.694 206.846C347.778 207.834 349.422 208.227 351.006 207.87C351.912 207.667 352.615 207.239 353.008 206.679C353.353 206.167 353.436 205.559 353.436 205.143C353.448 202.772 352.15 201.486 349.446 201.224C349.303 201.212 349.101 201.2 348.862 201.2L348.85 201.188Z" fill="#040C12"/>
<path d="M454.615 211.8C454.424 211.8 454.257 211.681 454.186 211.491C450.088 199.092 447.777 191.243 447.777 174.235C447.777 173.985 447.98 173.783 448.218 173.783C448.456 173.783 448.671 173.985 448.671 174.235C448.671 191.1 450.97 198.89 455.043 211.205C455.115 211.443 454.996 211.693 454.758 211.764C454.71 211.776 454.662 211.788 454.615 211.788V211.8Z" fill="#040C12"/>
<path d="M404.872 202.737C404.729 202.737 404.586 202.665 404.502 202.546C399.202 194.924 400.643 189.35 402.025 183.966C402.716 181.287 403.43 178.5 403.311 175.474C403.311 175.224 403.49 175.022 403.74 175.01C403.978 174.998 404.193 175.188 404.205 175.439C404.324 178.595 403.597 181.441 402.882 184.193C401.489 189.636 400.167 194.769 405.229 202.046C405.372 202.249 405.324 202.522 405.122 202.665C405.038 202.725 404.955 202.749 404.872 202.749V202.737Z" fill="#040C12"/>
<path d="M422.072 184.026C416.723 184.026 411.375 183.537 406.193 182.239C406.11 182.215 406.062 182.144 406.086 182.061C406.11 181.977 406.193 181.93 406.265 181.953C419.427 185.253 433.638 183.264 446.169 181.513C446.253 181.513 446.324 181.56 446.336 181.644C446.336 181.727 446.288 181.799 446.205 181.81C438.581 182.882 430.327 184.038 422.072 184.038V184.026Z" fill="#040C12"/>
<path d="M426.885 194.292C419.036 194.292 411.186 193.363 403.586 191.505C403.503 191.482 403.455 191.41 403.479 191.327C403.503 191.243 403.574 191.196 403.657 191.22C417.594 194.626 432.389 194.912 446.456 192.029C446.54 192.017 446.611 192.065 446.635 192.149C446.647 192.232 446.599 192.303 446.516 192.327C440.084 193.649 433.484 194.304 426.897 194.304L426.885 194.292Z" fill="#040C12"/>
<path d="M476.211 215.135C476.211 215.135 476.127 215.123 476.092 215.087C471.172 209.299 463.143 206.381 455.651 207.655C455.568 207.667 455.496 207.62 455.484 207.536C455.472 207.453 455.52 207.381 455.603 207.37C463.203 206.071 471.327 209.025 476.318 214.897C476.366 214.956 476.365 215.052 476.306 215.111C476.282 215.135 476.246 215.147 476.211 215.147V215.135Z" fill="#040C12"/>
<path d="M475.317 209.787C475.317 209.787 475.282 209.787 475.258 209.787C474.46 209.466 473.805 208.882 473.173 208.322C472.947 208.12 472.733 207.929 472.506 207.739C471.113 206.595 469.433 205.857 467.646 205.583C467.563 205.571 467.503 205.5 467.515 205.416C467.527 205.333 467.599 205.273 467.682 205.285C469.516 205.559 471.244 206.321 472.685 207.501C472.911 207.691 473.138 207.894 473.364 208.096C473.971 208.644 474.603 209.204 475.353 209.513C475.425 209.549 475.472 209.632 475.437 209.704C475.413 209.763 475.353 209.799 475.294 209.799L475.317 209.787Z" fill="#040C12"/>
<path d="M475.343 226.033C475.093 226.033 474.903 225.83 474.891 225.592C474.891 225.342 475.093 225.14 475.331 225.14C489.673 225.068 503.658 225.068 518.095 225.14C518.345 225.14 518.535 225.342 518.535 225.592C518.535 225.842 518.333 226.033 518.095 226.033C503.658 225.961 489.673 225.961 475.343 226.033Z" fill="#040C12"/>
<path d="M449.768 226.188C326.314 226.116 201.146 226.116 77.7163 226.188C77.4662 226.188 77.2637 225.985 77.2637 225.747C77.2637 225.509 77.4662 225.294 77.7044 225.294C201.134 225.223 326.314 225.223 449.768 225.294C450.018 225.294 450.208 225.497 450.208 225.747C450.208 225.997 450.006 226.188 449.756 226.188H449.768Z" fill="#040C12"/>
<path d="M189.782 128.119C188.412 133.991 188.4 142.173 188.4 142.173L191.842 143.579C191.842 143.579 195.106 156.978 174.558 152.88C170.568 152.082 159.014 143.305 159.014 143.305L168.15 140.696C168.15 140.696 169.031 127.416 169.377 120.806C174.177 123.045 184.028 126.333 189.794 128.131L189.782 128.119Z" fill="#FCEBE6"/>
<path d="M181.563 154.107C179.479 154.107 177.108 153.845 174.464 153.309C170.414 152.499 159.205 144.019 158.729 143.65C158.598 143.543 158.526 143.376 158.562 143.209C158.598 143.042 158.717 142.911 158.884 142.864L167.722 140.339C167.853 138.29 168.615 126.737 168.925 120.77C168.925 120.627 169.008 120.484 169.14 120.413C169.271 120.342 169.425 120.33 169.556 120.389C174.119 122.509 183.374 125.654 189.914 127.69C190.14 127.762 190.271 127.988 190.211 128.214C189.02 133.336 188.865 140.339 188.842 141.863L192.01 143.15C192.141 143.209 192.236 143.316 192.272 143.459C192.32 143.65 193.344 148.069 190.354 151.189C188.496 153.119 185.554 154.095 181.563 154.095V154.107ZM159.991 143.483C162.564 145.401 171.355 151.785 174.643 152.44C182.04 153.917 187.102 153.297 189.711 150.594C192.022 148.2 191.617 144.793 191.462 143.9L188.234 142.59C188.067 142.518 187.96 142.352 187.96 142.173C187.96 142.09 187.996 134.253 189.27 128.429C183.005 126.463 174.464 123.569 169.795 121.485C169.425 128.202 168.615 140.589 168.603 140.72C168.592 140.911 168.461 141.065 168.282 141.125L160.003 143.495L159.991 143.483Z" fill="#040C12"/>
<path d="M179.728 78.8465C170.532 78.4892 161.574 84.4086 162.265 89.2322C157.87 87.934 152.843 96.3665 153.01 100.309C153.236 105.383 163.111 122.093 165.219 124.749C166.208 125.999 166.923 126.571 168.626 127.083C168.519 125.689 169.853 124.796 169.877 123.391C169.913 121.664 167.578 118.639 169.412 118.686C178.108 118.901 177 120.866 193.522 104.799C195.63 102.75 197.012 97.7957 197.476 94.0559C197.929 90.4232 195.32 79.4539 179.728 78.8465Z" fill="#040C12"/>
<path d="M168.638 127.524C168.638 127.524 168.555 127.524 168.507 127.5C166.637 126.94 165.875 126.285 164.874 125.01C162.682 122.259 152.796 105.43 152.569 100.309C152.438 97.2834 155.047 92.2692 157.953 89.9943C159.264 88.97 160.574 88.5175 161.777 88.6604C161.777 87.2788 162.444 85.8138 163.73 84.3846C166.518 81.2998 172.712 78.096 179.74 78.3699C186.244 78.62 191.366 80.752 194.57 84.5275C197.286 87.7314 198.215 91.7332 197.917 94.0914C197.417 98.0695 195.964 103.024 193.831 105.097C178.942 119.591 178.132 119.544 171.878 119.222C171.152 119.186 170.33 119.139 169.4 119.115C169.222 119.115 169.174 119.151 169.174 119.151C169.043 119.353 169.448 120.342 169.651 120.89C169.984 121.747 170.342 122.628 170.33 123.391C170.318 124.177 169.948 124.82 169.627 125.392C169.305 125.963 169.019 126.452 169.067 127.047C169.067 127.19 169.019 127.333 168.9 127.428C168.817 127.488 168.722 127.524 168.614 127.524H168.638ZM161.348 89.5417C160.252 89.5417 159.228 90.1372 158.513 90.7089C155.583 92.9957 153.367 97.8194 153.474 100.285C153.689 105.132 163.504 121.83 165.589 124.463C166.423 125.511 166.994 126.023 168.233 126.463C168.34 125.892 168.614 125.392 168.876 124.939C169.174 124.415 169.448 123.927 169.46 123.367C169.46 122.795 169.138 121.95 168.853 121.211C168.436 120.139 168.066 119.222 168.471 118.638C168.674 118.353 168.995 118.222 169.448 118.234C170.389 118.257 171.211 118.305 171.95 118.341C177.989 118.662 178.62 118.686 193.236 104.477C195.213 102.548 196.583 97.8313 197.06 94.0081C197.25 92.4478 196.845 88.5889 193.915 85.1349C190.83 81.5142 186.065 79.549 179.728 79.2989C172.986 79.025 167.066 82.074 164.421 85.0158C163.123 86.457 162.539 87.8862 162.73 89.1725C162.754 89.3274 162.694 89.4703 162.575 89.5775C162.456 89.6727 162.301 89.7085 162.158 89.6728C161.896 89.5894 161.622 89.5536 161.36 89.5536L161.348 89.5417Z" fill="#040C12"/>
<path d="M194.058 102.178C194.046 102.083 190.913 102.476 188.257 98.7126C187.745 100.713 187.459 102.798 183.361 102.607C181.372 102.512 178.454 99.2723 177.715 97.331C177.715 97.331 182.075 96.2829 163.135 104.608C163.159 105.001 163.183 105.382 163.195 105.74C163.23 107.085 163.302 110.003 164.04 112.862C161.551 111.337 159.752 111.909 158.561 113.517C157.382 115.113 157.811 117.304 159.371 118.495C160.931 119.687 163.373 119.853 165.398 119.115C166.447 122.557 168.281 129.477 171.175 132.24C174.249 135.17 179.156 136.623 183.921 136.015C188.686 135.408 193.188 132.752 195.618 129.108C198.382 124.975 198.418 120.032 197.477 115.53C196.547 111.04 194.737 106.728 194.058 102.19V102.178Z" fill="#FCEBE6"/>
<path d="M181.753 136.587C177.596 136.587 173.57 135.122 170.866 132.55C168.186 129.989 166.459 124.212 165.327 120.389C165.255 120.139 165.184 119.901 165.113 119.663C162.98 120.294 160.622 119.984 159.109 118.829C157.31 117.459 156.917 115.006 158.216 113.231C159.502 111.48 161.313 111.064 163.397 111.993C162.873 109.48 162.802 107.062 162.766 105.823V105.728C162.754 105.37 162.73 105.001 162.706 104.608C162.706 104.418 162.802 104.251 162.968 104.168C172.986 99.7608 176.25 98.0814 177.298 97.4383C177.263 97.3192 177.274 97.2001 177.322 97.0929C177.382 96.9738 177.489 96.9023 177.608 96.8666C178.132 96.7355 178.454 96.8427 178.561 97.1643C178.62 97.3549 178.632 97.5097 178.394 97.736C179.371 99.5583 181.789 102.059 183.373 102.131C186.863 102.298 187.245 100.809 187.721 98.9151L187.804 98.5697C187.852 98.403 187.983 98.272 188.162 98.2481C188.329 98.2124 188.507 98.2839 188.603 98.4268C190.032 100.452 191.807 101.547 193.879 101.678C194.07 101.69 194.427 101.714 194.475 102.083C194.844 104.62 195.595 107.133 196.321 109.563C196.893 111.457 197.477 113.422 197.882 115.399C199.037 120.985 198.394 125.666 195.952 129.31C193.451 133.062 188.841 135.777 183.945 136.409C183.206 136.504 182.456 136.552 181.718 136.552L181.753 136.587ZM165.398 118.65C165.47 118.65 165.529 118.662 165.601 118.698C165.708 118.758 165.792 118.853 165.827 118.972C165.934 119.329 166.054 119.722 166.173 120.139C167.221 123.641 168.96 129.513 171.473 131.907C174.463 134.753 179.204 136.158 183.85 135.563C188.507 134.967 192.867 132.395 195.225 128.857C197.524 125.415 198.132 120.961 197.024 115.625C196.619 113.684 196.047 111.742 195.476 109.861C194.773 107.502 194.046 105.073 193.653 102.595C191.64 102.417 189.889 101.452 188.448 99.725C187.971 101.476 187.173 103.239 183.338 103.06C181.384 102.965 178.799 100.356 177.668 98.2839C177.251 98.534 176.655 98.8556 175.821 99.2724C173.379 100.511 169.27 102.393 163.6 104.894C163.612 105.18 163.624 105.454 163.635 105.728V105.823C163.683 107.181 163.767 110.015 164.457 112.767C164.505 112.945 164.434 113.124 164.291 113.231C164.148 113.338 163.945 113.35 163.79 113.255C161.742 112.004 160.098 112.183 158.907 113.791C157.894 115.161 158.216 117.066 159.621 118.138C161.003 119.186 163.254 119.413 165.22 118.686C165.267 118.662 165.327 118.662 165.375 118.662L165.398 118.65Z" fill="#040C12"/>
<path d="M190.793 109.372C190.781 108.801 190.281 108.36 189.674 108.372C189.078 108.396 188.602 108.872 188.613 109.432C188.625 110.004 189.126 110.444 189.733 110.432C190.329 110.408 190.805 109.932 190.793 109.372Z" fill="#040C12"/>
<path d="M175.928 112.35C175.916 111.778 175.416 111.337 174.808 111.349C174.213 111.373 173.736 111.85 173.748 112.409C173.76 112.981 174.26 113.422 174.868 113.41C175.475 113.398 175.94 112.91 175.928 112.35Z" fill="#040C12"/>
<path d="M182.099 129.417C180.717 129.417 179.335 128.929 178.299 128.024C178.108 127.857 178.096 127.583 178.251 127.393C178.418 127.202 178.692 127.19 178.883 127.345C180.24 128.536 182.277 128.858 183.957 128.155C184.183 128.06 184.445 128.155 184.541 128.393C184.636 128.619 184.541 128.881 184.302 128.977C183.6 129.274 182.849 129.417 182.099 129.417Z" fill="#040C12"/>
<path d="M183.933 123.414C183.933 123.414 183.909 123.414 183.897 123.414C182.729 123.414 181.646 122.95 180.955 122.176C180.788 121.997 180.8 121.711 180.99 121.544C181.169 121.378 181.455 121.39 181.622 121.58C182.146 122.164 183.003 122.509 183.909 122.521C184.731 122.533 185.576 122.283 186.482 121.807C186.779 121.64 187.125 121.437 187.304 121.151C187.53 120.806 187.542 120.282 187.351 119.758C187.184 119.305 186.91 118.9 186.613 118.472L186.47 118.257C184.731 115.697 183.575 112.719 183.146 109.646C183.111 109.396 183.277 109.182 183.528 109.146C183.766 109.11 183.992 109.277 184.028 109.527C184.433 112.457 185.541 115.304 187.208 117.757L187.351 117.96C187.673 118.412 187.994 118.889 188.197 119.448C188.495 120.246 188.435 121.044 188.054 121.628C187.756 122.092 187.304 122.366 186.899 122.581C185.874 123.117 184.886 123.402 183.933 123.402V123.414Z" fill="#040C12"/>
<path d="M164.613 115.59C164.422 115.59 164.243 115.459 164.184 115.268C163.838 114.041 163.683 113.386 163.398 112.195C163.338 111.957 163.493 111.719 163.731 111.659C163.969 111.6 164.208 111.755 164.267 111.993C164.553 113.172 164.708 113.827 165.053 115.03C165.125 115.268 164.982 115.518 164.744 115.578C164.708 115.578 164.66 115.59 164.624 115.59H164.613Z" fill="#040C12"/>
<path d="M164.601 193.876C166.959 173.259 166.888 152.869 165.196 141.137C157.132 141.649 143.374 143.746 137.561 148.593C125.471 158.681 125.447 174.796 122.588 189.814C119.955 203.618 118.764 217.232 122.457 221.984C122.814 222.437 125.53 224.235 126.09 224.14C127.793 223.842 139.586 211.503 139.586 215.171C139.586 222.579 138.657 225.569 138.657 225.569H159.038C159.038 225.569 163.791 200.915 164.601 193.888V193.876Z" fill="#F6BFB0"/>
<path d="M159.05 226.01H138.669C138.526 226.01 138.395 225.938 138.312 225.831C138.228 225.712 138.205 225.569 138.24 225.438C138.24 225.414 139.157 222.401 139.157 215.171C139.157 214.993 139.122 214.933 139.122 214.933C139.122 214.933 138.633 214.73 136.227 216.541C134.691 217.696 132.832 219.316 131.188 220.745C128.473 223.103 126.9 224.449 126.197 224.58C125.364 224.735 122.481 222.71 122.136 222.258C118.05 217.017 119.908 201.677 122.183 189.731C122.719 186.92 123.16 184.026 123.589 181.215C125.435 169.09 127.353 156.561 137.311 148.248C142.838 143.638 155.786 141.292 165.197 140.696C165.423 140.684 165.637 140.851 165.673 141.078C167.519 153.869 167.293 174.617 165.077 193.923C164.279 200.879 159.562 225.39 159.515 225.64C159.479 225.855 159.288 225.998 159.074 225.998L159.05 226.01ZM139.241 225.116H158.681C159.276 222.031 163.422 200.295 164.16 193.828C166.34 174.795 166.59 154.369 164.815 141.613C155.572 142.245 143.136 144.532 137.847 148.938C128.151 157.025 126.352 168.84 124.435 181.346C124.006 184.157 123.565 187.063 123.029 189.886C119.813 206.751 119.741 217.756 122.815 221.698C123.1 222.055 125.542 223.663 126.055 223.687C126.519 223.604 128.77 221.638 130.593 220.066C135.286 215.981 138.228 213.551 139.491 214.123C139.741 214.242 140.051 214.516 140.051 215.159C140.051 220.829 139.515 223.913 139.241 225.104V225.116Z" fill="#040C12"/>
<path d="M226.161 214.85C232.474 214.076 238.132 190.601 228.567 188.969C227.245 188.743 221.67 166.363 210.461 152.25C204.493 144.734 191.748 142.9 189.913 142.162C198.144 156.394 185.137 225.557 185.137 225.557L202.171 225.593C202.171 225.593 206.03 200.117 206.757 194.245C207.304 197.568 211.593 205.107 216.453 210.884C218.263 213.028 219.883 212.611 221.015 213.742C222.325 215.052 224.731 215.04 226.173 214.862L226.161 214.85Z" fill="#F6BFB0"/>
<path d="M202.16 226.045L185.126 226.01C184.995 226.01 184.864 225.95 184.78 225.843C184.697 225.736 184.661 225.605 184.685 225.474C184.816 224.783 197.562 156.311 189.509 142.388C189.414 142.221 189.438 142.018 189.557 141.876C189.676 141.733 189.878 141.685 190.057 141.756C190.355 141.876 191.034 142.042 191.892 142.257C196.049 143.281 205.781 145.675 210.784 151.975C218.538 161.73 223.672 175.593 226.436 183.037C227.4 185.658 228.33 188.135 228.699 188.54C232.272 189.195 234.238 192.851 234.095 198.58C233.928 205.726 230.366 214.778 226.197 215.29C224.768 215.469 222.159 215.54 220.67 214.052C220.277 213.659 219.813 213.492 219.217 213.266C218.336 212.932 217.228 212.527 216.084 211.169C212.153 206.501 208.389 200.367 206.9 196.424C205.781 204.654 202.624 225.438 202.588 225.676C202.553 225.89 202.362 226.057 202.148 226.057L202.16 226.045ZM185.662 225.116L201.778 225.152C202.267 221.948 205.638 199.605 206.305 194.197C206.329 193.983 206.519 193.804 206.734 193.804C206.96 193.804 207.151 193.959 207.186 194.173C207.746 197.556 212.142 205.071 216.787 210.586C217.776 211.765 218.681 212.098 219.551 212.42C220.194 212.658 220.789 212.884 221.325 213.409C222.588 214.671 225.102 214.516 226.114 214.397C229.461 213.992 233.047 205.988 233.225 198.556C233.285 196.055 232.939 190.16 228.484 189.397C227.877 189.29 227.46 188.314 225.614 183.335C222.874 175.939 217.764 162.159 210.105 152.511C205.28 146.449 195.763 144.103 191.689 143.102C191.344 143.019 191.034 142.947 190.772 142.876C197.74 158.288 186.912 218.339 185.662 225.104V225.116Z" fill="#040C12"/>
<path d="M143.278 210.526C143.278 210.526 143.207 210.526 143.171 210.514C142.933 210.454 142.79 210.204 142.849 209.966C144.517 203.523 145.541 196.841 146.947 187.611C147.9 181.322 149.091 173.497 150.818 163.576C150.866 163.337 151.092 163.171 151.331 163.206C151.569 163.254 151.736 163.48 151.688 163.719C149.961 173.628 148.77 181.453 147.817 187.73C146.411 196.996 145.387 203.677 143.707 210.169C143.659 210.371 143.469 210.502 143.278 210.502V210.526Z" fill="#040C12"/>
<path d="M206.744 194.697C206.625 194.697 206.494 194.65 206.41 194.555C206.291 194.424 206.268 194.233 206.339 194.078C206.482 193.435 207.018 187.134 207.518 181.048C207.852 177.082 208.221 172.58 208.567 168.709C208.59 168.459 208.805 168.281 209.055 168.304C209.305 168.328 209.484 168.543 209.46 168.793C209.114 172.664 208.745 177.166 208.412 181.132C207.304 194.376 207.28 194.4 207.042 194.602C206.958 194.674 206.851 194.721 206.744 194.721V194.697Z" fill="#040C12"/>
<path d="M121.933 210.228C121.933 210.228 121.862 210.216 121.826 210.181C121.766 210.121 121.766 210.026 121.826 209.966C126.495 205.321 134.095 202.987 141.194 204.011C141.278 204.023 141.337 204.094 141.325 204.178C141.314 204.261 141.23 204.309 141.159 204.309C134.143 203.296 126.65 205.607 122.04 210.181C122.017 210.204 121.969 210.228 121.933 210.228Z" fill="#040C12"/>
<path d="M122.504 212.456C122.504 212.456 122.385 212.42 122.361 212.36C122.326 212.289 122.361 212.194 122.445 212.17C123.243 211.848 123.91 211.253 124.565 210.669C124.803 210.455 125.042 210.24 125.292 210.038C126.805 208.799 128.639 207.989 130.581 207.691C130.664 207.68 130.735 207.739 130.747 207.822C130.759 207.906 130.7 207.977 130.616 207.989C128.722 208.275 126.947 209.061 125.47 210.264C125.232 210.467 124.994 210.681 124.756 210.883C124.089 211.479 123.398 212.098 122.552 212.432C122.528 212.432 122.516 212.432 122.492 212.432L122.504 212.456Z" fill="#040C12"/>
<path d="M181.23 158.443C177.478 158.443 173.726 157.585 170.367 155.929C170.295 155.894 170.26 155.798 170.295 155.727C170.331 155.656 170.426 155.62 170.498 155.656C174.965 157.859 180.134 158.633 185.054 157.835C187.651 157.418 189.485 156.573 190.641 155.262C190.7 155.203 190.783 155.191 190.855 155.251C190.914 155.31 190.926 155.394 190.867 155.465C189.664 156.823 187.782 157.704 185.102 158.133C183.827 158.335 182.529 158.443 181.23 158.443Z" fill="#040C12"/>
<path d="M253.463 170.186C257.477 166.172 255.797 163.385 260.3 158.073C262.17 155.858 263.981 153.94 265.648 152.19C266.518 151.273 267.304 150.082 268.197 150.844C269.269 151.749 268.09 154.191 267.554 154.965C265.493 158.002 265.648 159.002 265.744 160.122C269.293 157.383 274.796 153.738 279.061 152.356C279.382 152.249 280.204 152.309 280.407 152.583C280.693 152.976 280.419 153.964 279.799 154.417C277.262 156.215 273.534 158.824 270.997 160.622C275.583 157.716 281.622 154.024 282.575 155.227C282.873 155.608 282.706 156.632 282.063 157.097C279.311 159.086 275.69 161.575 272.926 163.576C275.285 161.563 282.599 157.263 283.17 158.8C283.754 160.336 277 164.6 274.141 166.327C276.452 164.886 281.848 161.515 282.456 162.945C282.92 164.028 281.3 165.005 280.752 165.434C276.452 168.769 271.378 173.342 266.673 175.022C265.553 175.427 263.85 175.605 262.885 176.308C261.872 177.046 261.324 177.928 260.49 178.869C237.37 205.202 230.044 214.147 225.875 213.265C222.373 212.527 224.982 198.27 228.543 188.957C230.437 189.028 244.922 178.702 253.451 170.174L253.463 170.186Z" fill="#FCEBE6"/>
<path d="M226.447 213.778C226.22 213.778 226.006 213.754 225.792 213.706C225.244 213.587 224.791 213.23 224.469 212.622C222.587 209.156 224.898 197.294 228.138 188.802C228.21 188.623 228.376 188.504 228.567 188.516C228.567 188.516 228.567 188.516 228.579 188.516C230.258 188.516 244.564 178.428 253.141 169.865C255.071 167.935 255.619 166.339 256.262 164.481C256.905 162.623 257.644 160.503 259.954 157.776C261.765 155.632 263.528 153.762 265.315 151.868C265.446 151.737 265.565 151.594 265.684 151.463C266.399 150.665 267.375 149.569 268.471 150.498C269.841 151.654 268.495 154.357 267.911 155.215C266.446 157.371 266.149 158.431 266.137 159.264C269.853 156.466 274.963 153.226 278.906 151.94C279.335 151.797 280.395 151.844 280.752 152.333C280.931 152.571 280.991 152.916 280.931 153.321C280.86 153.786 280.586 154.417 280.038 154.798C279.776 154.977 279.502 155.179 279.228 155.37C281.312 154.429 282.42 154.345 282.908 154.965C283.111 155.215 283.194 155.596 283.135 156.037C283.051 156.62 282.753 157.156 282.313 157.478C281.944 157.752 281.55 158.026 281.145 158.324C281.884 158.085 282.503 157.99 282.92 158.097C283.242 158.181 283.48 158.383 283.587 158.669C283.73 159.05 284.04 159.86 280.967 162.302C281.491 162.171 281.92 162.147 282.241 162.242C282.539 162.337 282.754 162.528 282.861 162.79C283.409 164.064 281.944 165.124 281.241 165.636C281.157 165.696 281.074 165.755 281.014 165.803C280.192 166.434 279.359 167.113 278.477 167.816C274.832 170.746 270.687 174.069 266.816 175.45C266.411 175.593 265.958 175.701 265.481 175.82C264.612 176.034 263.707 176.26 263.147 176.665C262.468 177.166 262.015 177.725 261.491 178.368C261.289 178.619 261.074 178.892 260.836 179.155C258.668 181.62 256.631 183.942 254.737 186.11C237.084 206.262 230.521 213.754 226.447 213.754V213.778ZM228.877 189.374C225.815 197.484 223.576 209.121 225.256 212.205C225.458 212.575 225.696 212.777 225.982 212.837C229.496 213.587 236.191 205.953 254.07 185.55C255.976 183.383 258.001 181.06 260.169 178.595C260.395 178.333 260.61 178.083 260.812 177.832C261.348 177.166 261.86 176.534 262.635 175.974C263.337 175.462 264.326 175.212 265.291 174.974C265.744 174.855 266.184 174.748 266.542 174.629C270.27 173.295 274.344 170.019 277.941 167.137C278.823 166.422 279.668 165.755 280.49 165.112C280.562 165.065 280.645 164.993 280.74 164.934C281.288 164.529 282.325 163.778 282.063 163.159C282.063 163.147 282.051 163.123 281.991 163.111C281.062 162.814 277.834 164.648 275.761 165.898C275.321 166.172 274.868 166.458 274.38 166.744C274.165 166.875 273.891 166.804 273.772 166.601C273.641 166.387 273.713 166.113 273.915 165.994L273.975 165.958C274.391 165.696 274.796 165.446 275.201 165.208C281.491 161.277 282.92 159.431 282.754 159.002C282.611 158.895 281.55 158.907 278.608 160.467C277.739 160.932 276.821 161.468 275.964 162.004C274.987 162.695 274.034 163.362 273.188 163.981C272.998 164.124 272.724 164.088 272.581 163.897C272.438 163.707 272.462 163.433 272.64 163.278C273.188 162.802 274.189 162.087 275.356 161.337C275.976 160.896 276.607 160.455 277.226 160.015C278.799 158.907 280.419 157.776 281.801 156.775C282.086 156.573 282.229 156.203 282.265 155.941C282.301 155.715 282.265 155.572 282.229 155.548C282.229 155.548 281.777 155.048 278.346 156.823C276.166 157.942 273.522 159.586 271.235 161.039C271.032 161.17 270.758 161.11 270.627 160.908C270.496 160.706 270.544 160.432 270.735 160.301C272.009 159.395 273.57 158.3 275.142 157.192C276.702 156.096 278.275 154.989 279.537 154.083C280.014 153.738 280.133 153.012 280.05 152.881C279.942 152.797 279.406 152.75 279.204 152.809C275.13 154.131 269.722 157.645 266.029 160.503C265.898 160.598 265.732 160.622 265.577 160.563C265.422 160.491 265.327 160.36 265.315 160.193V160.098C265.208 158.931 265.112 157.823 267.209 154.75C267.828 153.833 268.626 151.809 267.923 151.213C267.566 150.915 267.28 151.082 266.375 152.094C266.244 152.237 266.113 152.38 265.982 152.523C264.207 154.405 262.456 156.263 260.657 158.395C258.454 161.003 257.775 162.945 257.131 164.815C256.476 166.684 255.869 168.459 253.796 170.532C245.875 178.452 232.021 188.647 228.901 189.397L228.877 189.374Z" fill="#040C12"/>
<path d="M265.517 169.746C265.386 169.746 265.267 169.686 265.172 169.591C265.017 169.4 265.041 169.114 265.232 168.959C266.828 167.626 267.435 165.172 266.649 163.243C266.494 162.861 266.304 162.504 266.089 162.135C265.803 161.611 265.494 161.063 265.327 160.456C265.255 160.217 265.398 159.967 265.625 159.908C265.863 159.836 266.113 159.979 266.173 160.205C266.327 160.718 266.589 161.194 266.863 161.706C267.078 162.087 267.292 162.492 267.471 162.909C268.4 165.22 267.697 168.054 265.791 169.65C265.708 169.722 265.601 169.757 265.505 169.757L265.517 169.746Z" fill="#040C12"/>
<path d="M220.11 211.157C220.038 211.157 219.979 211.11 219.967 211.026C218.99 204.773 219.859 198.139 222.42 192.351C222.456 192.28 222.54 192.244 222.611 192.28C222.683 192.315 222.718 192.399 222.683 192.47C220.145 198.211 219.276 204.773 220.241 210.979C220.253 211.062 220.193 211.134 220.121 211.145C220.121 211.145 220.11 211.145 220.098 211.145L220.11 211.157Z" fill="#040C12"/>
<path d="M217.286 210.133C217.227 210.133 217.167 210.086 217.143 210.026C216.488 207.811 216.417 205.441 216.941 203.189C216.965 203.106 217.036 203.058 217.119 203.082C217.203 203.106 217.25 203.178 217.227 203.261C216.714 205.464 216.786 207.775 217.429 209.955C217.453 210.038 217.405 210.121 217.334 210.145C217.322 210.145 217.31 210.145 217.286 210.145V210.133Z" fill="#040C12"/>
<path d="M139.503 209.99C150.867 211.908 162.326 213.694 173.785 215.481C174.834 215.54 180.015 215.969 181.302 216.064C182.386 216.148 183.482 215.993 184.542 215.767C188.246 214.981 196.144 213.575 197.549 214.838C201.004 216.767 203.755 220.197 205.614 224.175C206.65 226.403 207.15 229.833 206.412 230.226C205.947 230.488 205.328 230.488 204.982 230.035C204.089 225.902 201.671 222.115 198.312 219.542C199.836 220.924 201.194 222.496 202.338 224.199C203.505 225.926 204.482 227.915 204.363 229.999C204.363 230.166 204.327 230.333 204.22 230.452C203.946 230.738 203.47 230.428 203.219 230.119C202.731 229.511 196.43 221.496 194.953 221.341C196.704 222.496 202.278 229.594 202.183 230.19C202.135 230.476 202.016 230.762 201.778 230.94C201.468 231.19 201.016 231.179 200.646 231.036C200.277 230.881 199.979 230.607 199.693 230.333C197.788 228.487 196.156 226.355 193.988 224.818C192.916 224.056 191.522 223.437 190.295 223.937C192.237 225.223 193.964 226.843 195.286 228.761C195.501 229.07 195.655 229.404 195.763 229.761C195.917 230.285 196.06 231.036 195.608 231.345C194.869 231.846 194.44 231.417 194 231C192.261 229.19 190.426 227.605 188.437 226.236C187.817 225.807 187.067 225.39 186.364 225.64C185.757 225.855 182.815 226.879 177.466 225.95C175.644 225.628 173.785 225.712 171.391 225.819C139.789 227.272 130.165 228.523 123.661 223.794C122.386 222.865 122.077 222.02 123.101 219.709C125.817 213.528 127.878 210.133 139.527 210.002L139.503 209.99Z" fill="#FCEBE6"/>
<path d="M194.976 232C194.416 232 193.999 231.607 193.713 231.345L193.678 231.309C191.903 229.451 190.104 227.915 188.163 226.581C187.65 226.236 187.007 225.854 186.495 226.045C185.423 226.438 182.385 227.236 177.371 226.378C175.548 226.069 173.618 226.152 171.391 226.259C167.174 226.45 163.303 226.641 159.884 226.819C136.894 227.963 129.14 228.344 123.387 224.151C121.826 223.02 121.647 221.853 122.684 219.518C125.447 213.242 127.591 209.68 139.515 209.549C139.539 209.549 139.563 209.549 139.598 209.549C151.093 211.491 162.66 213.289 173.857 215.028C174.655 215.076 177.502 215.302 179.586 215.469C180.36 215.528 181.004 215.576 181.349 215.612C182.469 215.695 183.6 215.504 184.458 215.314C187.912 214.575 196.072 213.039 197.811 214.444C201.158 216.326 203.993 219.613 206.018 223.961C206.912 225.866 207.841 229.928 206.626 230.595C205.947 230.964 205.196 230.881 204.732 230.404C204.696 230.523 204.625 230.63 204.529 230.738C204.363 230.904 204.136 231 203.898 230.988C203.481 230.976 203.088 230.666 202.862 230.38C202.826 230.333 202.754 230.237 202.647 230.106C202.635 230.083 202.612 230.071 202.6 230.047C202.623 230.154 202.612 230.202 202.6 230.237C202.528 230.678 202.326 231.024 202.04 231.262C201.623 231.583 201.027 231.643 200.467 231.417C200.027 231.238 199.693 230.928 199.372 230.63C198.728 230.011 198.109 229.344 197.513 228.713C196.334 227.462 195.131 226.164 193.725 225.164C193.106 224.723 192.284 224.27 191.462 224.187C193.13 225.426 194.535 226.867 195.643 228.475C195.881 228.82 196.06 229.189 196.179 229.606C196.477 230.63 196.37 231.333 195.846 231.679C195.524 231.893 195.238 231.976 194.976 231.976V232ZM186.781 225.104C187.472 225.104 188.127 225.485 188.663 225.854C190.652 227.224 192.498 228.796 194.297 230.678H194.309C194.762 231.119 194.928 231.238 195.333 230.964C195.453 230.881 195.512 230.559 195.31 229.88C195.214 229.559 195.071 229.273 194.893 229.011C193.642 227.2 192.01 225.616 190.021 224.306C189.878 224.211 189.806 224.056 189.818 223.889C189.83 223.723 189.937 223.58 190.092 223.52C191.569 222.925 193.142 223.699 194.214 224.449C195.691 225.497 196.942 226.831 198.145 228.117C198.74 228.749 199.348 229.404 199.967 230.011C200.229 230.261 200.491 230.499 200.777 230.619C200.992 230.702 201.277 230.726 201.456 230.583C201.563 230.499 201.635 230.357 201.682 230.178C201.325 229.177 196.274 222.77 194.666 221.71C194.5 221.591 194.428 221.376 194.488 221.186C194.559 220.995 194.75 220.876 194.952 220.888C195.381 220.936 196.501 221.055 203.302 229.57C203.398 229.701 203.481 229.785 203.517 229.832C203.636 229.975 203.779 230.071 203.85 230.106C203.85 230.083 203.85 230.035 203.862 229.975C203.958 228.32 203.338 226.569 201.909 224.449C200.777 222.77 199.443 221.233 197.954 219.875C197.775 219.709 197.763 219.447 197.906 219.256C198.061 219.078 198.335 219.042 198.526 219.185C201.933 221.781 204.41 225.652 205.339 229.821C205.554 230.011 205.899 229.963 206.149 229.821C206.471 229.475 206.221 226.641 205.161 224.342C203.231 220.209 200.432 216.957 197.287 215.207C197.263 215.195 197.227 215.171 197.204 215.147C196.334 214.361 191.152 214.79 184.589 216.183C183.672 216.374 182.457 216.588 181.218 216.493C180.873 216.469 180.217 216.41 179.455 216.35C177.478 216.195 174.476 215.957 173.714 215.909C173.702 215.909 173.69 215.909 173.666 215.909C162.481 214.171 150.915 212.372 139.42 210.431C128.056 210.562 126.126 213.766 123.434 219.875C122.457 222.091 122.827 222.686 123.851 223.425C129.354 227.427 137.025 227.045 159.789 225.926C163.207 225.759 167.091 225.569 171.296 225.366C173.583 225.259 175.548 225.176 177.466 225.497C182.278 226.331 185.137 225.569 186.138 225.211C186.34 225.14 186.543 225.104 186.733 225.104H186.781Z" fill="#040C12"/>
<path d="M87.5677 184.395L89.7594 183.097C88.9494 180.346 89.0566 180.715 88.2466 177.963L85.6975 178.059C84.5778 176.987 83.9584 176.403 82.8387 175.331L82.8149 172.783C80.0275 172.104 80.3968 172.199 77.6094 171.52L76.4183 173.771C74.9293 174.212 74.1193 174.45 72.6184 174.891L70.4028 173.64C68.4255 175.712 68.6876 175.438 66.7102 177.511L68.0681 179.667C67.6989 181.179 67.5083 182.001 67.139 183.514L64.9473 184.812C65.7573 187.563 65.6501 187.194 66.4601 189.945L69.0092 189.85C70.1289 190.922 70.7483 191.505 71.868 192.577L71.8918 195.126C74.6792 195.805 74.3099 195.71 77.0972 196.389L78.2884 194.138C79.7774 193.697 80.5874 193.459 82.0883 193.018L84.3038 194.269C86.2812 192.196 86.0191 192.47 87.9965 190.398L86.6385 188.242C87.0078 186.729 87.1984 185.908 87.5677 184.395ZM77.3593 188.969C74.5958 188.969 72.3564 186.729 72.3564 183.966C72.3564 181.203 74.5958 178.964 77.3593 178.964C80.1228 178.964 82.3622 181.203 82.3622 183.966C82.3622 186.729 80.1228 188.969 77.3593 188.969Z" fill="#F6BFB0"/>
<path d="M77.1096 196.829C77.1096 196.829 77.0381 196.829 77.0024 196.817L71.7969 195.555C71.5944 195.507 71.4634 195.329 71.4515 195.126L71.4277 192.768L68.8428 190.302L66.4843 190.386C66.2818 190.398 66.0912 190.267 66.0436 190.064L64.5308 184.931C64.4712 184.74 64.5546 184.526 64.7333 184.419L66.7583 183.216L67.604 179.738L66.3533 177.737C66.2461 177.558 66.2699 177.344 66.4128 177.189L70.1055 173.318C70.2484 173.175 70.4747 173.14 70.6534 173.235L72.7142 174.39L76.1447 173.378L77.2406 171.294C77.3359 171.115 77.5384 171.02 77.7409 171.067L82.9463 172.33C83.1488 172.378 83.2799 172.556 83.2918 172.759L83.3156 175.117L85.9004 177.582L88.259 177.499C88.4496 177.499 88.6521 177.618 88.6997 177.82L90.2125 182.954C90.2721 183.144 90.1887 183.359 90.01 183.466L87.985 184.669L87.1393 188.147L88.39 190.148C88.4972 190.326 88.4734 190.541 88.3304 190.695L84.6378 194.566C84.4949 194.709 84.2685 194.745 84.0899 194.65L82.0291 193.494L78.5985 194.507L77.5027 196.591C77.4193 196.734 77.2763 196.829 77.1096 196.829ZM72.3568 194.769L76.8833 195.865L77.9077 193.923C77.9672 193.816 78.0625 193.733 78.1816 193.709L81.9696 192.589C82.0887 192.553 82.2078 192.565 82.315 192.625L84.2328 193.709L87.449 190.338L86.2816 188.48C86.2221 188.373 86.1982 188.254 86.2221 188.135L87.1512 184.288C87.175 184.169 87.2584 184.073 87.3537 184.014L89.2476 182.894L87.9374 178.428L85.7456 178.511C85.6265 178.511 85.5074 178.476 85.424 178.392L82.5652 175.665C82.4818 175.581 82.4222 175.462 82.4222 175.343L82.3984 173.14L77.8719 172.044L76.8475 173.985C76.788 174.093 76.6927 174.176 76.5736 174.2L72.7737 175.319C72.6546 175.355 72.5355 175.343 72.4283 175.284L70.5105 174.2L67.2943 177.57L68.4617 179.428C68.5212 179.536 68.545 179.655 68.5212 179.774L67.5921 183.621C67.5683 183.74 67.4849 183.835 67.3896 183.895L65.4956 185.014L66.8059 189.481L68.9977 189.397C69.1168 189.397 69.2359 189.433 69.3193 189.516L72.1781 192.244C72.2615 192.327 72.3211 192.446 72.3211 192.565L72.3449 194.769H72.3568ZM77.3716 189.409C74.3699 189.409 71.9161 186.968 71.9161 183.954C71.9161 180.941 74.358 178.499 77.3716 178.499C80.3853 178.499 82.8272 180.941 82.8272 183.954C82.8272 186.968 80.3853 189.409 77.3716 189.409ZM77.3716 179.393C74.8583 179.393 72.8094 181.441 72.8094 183.954C72.8094 186.467 74.8583 188.516 77.3716 188.516C79.885 188.516 81.9338 186.467 81.9338 183.954C81.9338 181.441 79.885 179.393 77.3716 179.393Z" fill="#040C12"/>
<path d="M362.645 89.8477C363.862 89.8477 364.849 88.8612 364.849 87.6443C364.849 86.4274 363.862 85.4409 362.645 85.4409C361.428 85.4409 360.441 86.4274 360.441 87.6443C360.441 88.8612 361.428 89.8477 362.645 89.8477Z" fill="#040C12"/>
<path d="M362.644 90.2881C361.179 90.2881 360 89.0971 360 87.6441C360 86.191 361.191 85 362.644 85C364.098 85 365.289 86.191 365.289 87.6441C365.289 89.0971 364.098 90.2881 362.644 90.2881ZM362.644 85.8814C361.68 85.8814 360.893 86.6674 360.893 87.6322C360.893 88.5969 361.68 89.383 362.644 89.383C363.609 89.383 364.395 88.5969 364.395 87.6322C364.395 86.6674 363.609 85.8814 362.644 85.8814Z" fill="#040C12"/>
<path d="M215.822 123.045C216.418 123.045 216.894 123.522 216.894 124.117C216.894 124.713 216.418 125.189 215.822 125.189C215.226 125.189 214.75 124.713 214.75 124.117C214.75 123.522 215.226 123.045 215.822 123.045Z" fill="#040C12"/>
<path d="M215.821 125.63C214.988 125.63 214.309 124.951 214.309 124.117C214.309 123.283 214.988 122.604 215.821 122.604C216.655 122.604 217.334 123.283 217.334 124.117C217.334 124.951 216.655 125.63 215.821 125.63ZM215.821 123.486C215.476 123.486 215.202 123.76 215.202 124.105C215.202 124.451 215.476 124.725 215.821 124.725C216.167 124.725 216.441 124.451 216.441 124.105C216.441 123.76 216.167 123.486 215.821 123.486Z" fill="#040C12"/>
<path d="M100.099 209.632C98.8006 209.632 97.7285 208.572 97.7285 207.262C97.7285 205.952 98.7887 204.892 100.099 204.892C101.409 204.892 102.469 205.952 102.469 207.262C102.469 208.572 101.409 209.632 100.099 209.632ZM100.099 205.797C99.289 205.797 98.6219 206.452 98.6219 207.274C98.6219 208.096 99.277 208.751 100.099 208.751C100.921 208.751 101.576 208.096 101.576 207.274C101.576 206.452 100.921 205.797 100.099 205.797Z" fill="#040C12"/>
<path d="M497.744 79.9786C496.494 79.9429 495.267 79.7047 494.111 79.264C493.885 79.1806 493.766 78.9186 493.849 78.6923C493.933 78.466 494.195 78.3469 494.421 78.4303C495.493 78.8352 496.613 79.0615 497.768 79.0853C498.018 79.0853 498.209 79.2997 498.209 79.5379C498.209 79.7761 498.006 79.9786 497.768 79.9786H497.744ZM501.258 79.4784C501.068 79.4784 500.889 79.3593 500.83 79.1687C500.758 78.9305 500.877 78.6804 501.115 78.6089C502.199 78.2635 503.224 77.7276 504.129 77.0249C504.332 76.87 504.606 76.9177 504.76 77.1082C504.915 77.2988 504.868 77.5846 504.677 77.7395C503.688 78.5017 502.581 79.0734 501.389 79.4546C501.342 79.4665 501.294 79.4784 501.246 79.4784H501.258ZM491.193 77.4894C491.086 77.4894 490.99 77.4536 490.907 77.3822C489.954 76.5723 489.156 75.6195 488.525 74.5475C488.406 74.3332 488.477 74.0592 488.68 73.9401C488.894 73.821 489.168 73.8925 489.287 74.0949C489.871 75.0835 490.597 75.9649 491.479 76.7033C491.669 76.8581 491.693 77.144 491.526 77.3345C491.443 77.4417 491.312 77.4894 491.181 77.4894H491.193ZM506.833 75.2383C506.75 75.2383 506.666 75.2145 506.583 75.1669C506.38 75.0359 506.321 74.75 506.452 74.5475C507.083 73.5828 507.548 72.5347 507.822 71.427C507.881 71.1888 508.12 71.0459 508.358 71.1055C508.596 71.165 508.739 71.4032 508.679 71.6414C508.382 72.8563 507.881 73.9878 507.19 75.0359C507.107 75.1669 506.964 75.2383 506.821 75.2383H506.833ZM487.643 71.4509C487.429 71.4509 487.25 71.3079 487.203 71.0936C487.071 70.4147 487 69.712 487 69.0093C487 67.7587 487.214 66.5319 487.619 65.3528C487.703 65.1146 487.953 64.9955 488.191 65.0789C488.429 65.1623 488.549 65.4124 488.465 65.6506C488.084 66.7225 487.893 67.854 487.893 69.0093C487.893 69.6524 487.953 70.2956 488.072 70.9268C488.12 71.165 487.965 71.4032 487.715 71.4509C487.691 71.4509 487.655 71.4509 487.631 71.4509H487.643ZM508.513 68.4376C508.286 68.4376 508.096 68.2589 508.072 68.0326C507.965 66.8892 507.667 65.7816 507.178 64.7454C507.071 64.5191 507.178 64.2571 507.393 64.1499C507.619 64.0427 507.881 64.1499 507.988 64.3643C508.513 65.4957 508.834 66.6987 508.953 67.9373C508.977 68.1875 508.798 68.4018 508.548 68.4257C508.536 68.4257 508.524 68.4257 508.501 68.4257L508.513 68.4376ZM489.775 62.8279C489.68 62.8279 489.573 62.7921 489.501 62.7326C489.311 62.5777 489.275 62.2919 489.43 62.1013C490.216 61.1247 491.145 60.3029 492.205 59.6478C492.42 59.5168 492.694 59.5764 492.825 59.7907C492.956 60.0051 492.896 60.2791 492.682 60.4101C491.705 61.0175 490.847 61.7798 490.133 62.673C490.049 62.7802 489.918 62.8398 489.787 62.8398L489.775 62.8279ZM505.559 62.0775C505.439 62.0775 505.32 62.0299 505.237 61.9465C504.439 61.1247 503.51 60.4458 502.485 59.9456C502.259 59.8384 502.176 59.5644 502.283 59.3501C502.39 59.1238 502.664 59.0404 502.878 59.1476C503.998 59.6955 504.999 60.4339 505.868 61.3272C506.035 61.5058 506.035 61.7917 505.868 61.9584C505.785 62.0418 505.666 62.0894 505.559 62.0894V62.0775ZM495.719 59.1357C495.517 59.1357 495.326 58.9928 495.279 58.7903C495.231 58.5521 495.374 58.3139 495.624 58.2543C496.827 57.9923 498.102 57.9327 499.329 58.0757C499.579 58.0995 499.746 58.3258 499.722 58.5759C499.698 58.826 499.472 58.9928 499.221 58.9689C498.102 58.8379 496.922 58.8856 495.815 59.1357C495.779 59.1357 495.755 59.1357 495.719 59.1357Z" fill="#040C12"/>
<path d="M547.588 108.026H480.549C478.643 108.026 477.178 109.73 477.463 111.611L481.323 136.778C481.561 138.302 482.86 139.422 484.408 139.422H488.196L488.327 153.524L497.952 139.422H543.729C545.265 139.422 546.575 138.302 546.814 136.778L550.673 111.611C550.959 109.73 549.506 108.026 547.588 108.026Z" fill="#FCEBE6"/>
<path d="M488.315 153.976C488.315 153.976 488.232 153.976 488.184 153.952C487.993 153.893 487.874 153.726 487.862 153.523L487.743 139.862H484.396C482.621 139.862 481.144 138.588 480.87 136.837L477.011 111.671C476.856 110.647 477.154 109.598 477.833 108.812C478.512 108.026 479.5 107.574 480.537 107.574H547.576C548.612 107.574 549.601 108.026 550.28 108.812C550.959 109.598 551.257 110.647 551.102 111.671L547.242 136.837C546.968 138.588 545.491 139.862 543.717 139.862H498.166L488.672 153.762C488.589 153.881 488.446 153.952 488.303 153.952L488.315 153.976ZM480.537 108.479C479.762 108.479 479.024 108.812 478.512 109.408C477.999 110.003 477.785 110.778 477.904 111.552L481.764 136.718C481.966 138.028 483.074 138.981 484.408 138.981H488.196C488.446 138.981 488.637 139.184 488.637 139.422L488.756 152.094L497.582 139.172C497.666 139.053 497.809 138.981 497.952 138.981H543.728C545.051 138.981 546.17 138.028 546.373 136.718L550.232 111.552C550.351 110.778 550.125 110.003 549.625 109.408C549.113 108.812 548.374 108.479 547.6 108.479H480.561H480.537Z" fill="#040C12"/>
<path d="M63.1016 86.1353H130.141C132.047 86.1353 133.512 87.8384 133.226 89.7202L129.367 114.887C129.128 116.411 127.83 117.531 126.281 117.531H122.494L122.363 131.632L112.738 117.531H66.961C65.4244 117.531 64.1141 116.411 63.8759 114.887L60.0165 89.7202C59.7306 87.8384 61.1838 86.1353 63.1016 86.1353Z" fill="#FCEBE6"/>
<path d="M122.362 132.073C122.219 132.073 122.076 132.002 121.993 131.882L112.499 117.971H66.9605C65.1857 117.971 63.7086 116.697 63.4347 114.946L59.5753 89.7797C59.4204 88.7555 59.7182 87.7074 60.3972 86.9213C61.0761 86.1352 62.0648 85.6826 63.1011 85.6826H130.14C131.177 85.6826 132.165 86.1352 132.844 86.9213C133.523 87.7074 133.821 88.7555 133.666 89.7797L129.807 114.946C129.533 116.697 128.056 117.971 126.281 117.971H122.934L122.815 131.632C122.815 131.823 122.684 132.002 122.493 132.061C122.445 132.073 122.41 132.085 122.362 132.085V132.073ZM63.1011 86.5878C62.3269 86.5878 61.5883 86.9213 61.0761 87.5168C60.5639 88.1123 60.3495 88.8865 60.4686 89.6606L64.328 114.827C64.5305 116.137 65.6383 117.09 66.9724 117.09H112.749C112.892 117.09 113.035 117.161 113.119 117.28L121.945 130.203L122.064 117.531C122.064 117.28 122.267 117.09 122.505 117.09H126.293C127.615 117.09 128.735 116.137 128.937 114.827L132.797 89.6606C132.916 88.8865 132.69 88.1123 132.189 87.5168C131.677 86.9213 130.938 86.5878 130.164 86.5878H63.1011Z" fill="#040C12"/>
<path d="M83.0059 101.44C83.0059 100.773 83.5419 100.237 84.2089 100.237C84.876 100.237 85.412 100.773 85.412 101.44C85.412 102.107 84.876 102.643 84.2089 102.643C83.5419 102.643 83.0059 102.107 83.0059 101.44Z" fill="#040C12"/>
<path d="M84.2083 103.095C83.303 103.095 82.5645 102.357 82.5645 101.452C82.5645 100.547 83.303 99.8081 84.2083 99.8081C85.1136 99.8081 85.8521 100.547 85.8521 101.452C85.8521 102.357 85.1136 103.095 84.2083 103.095ZM84.2083 100.689C83.7914 100.689 83.4578 101.023 83.4578 101.44C83.4578 101.857 83.7914 102.19 84.2083 102.19C84.6252 102.19 84.9587 101.857 84.9587 101.44C84.9587 101.023 84.6252 100.689 84.2083 100.689Z" fill="#040C12"/>
<path d="M96.4414 102.643C97.1058 102.643 97.6445 102.104 97.6445 101.44C97.6445 100.775 97.1058 100.237 96.4414 100.237C95.7769 100.237 95.2383 100.775 95.2383 101.44C95.2383 102.104 95.7769 102.643 96.4414 102.643Z" fill="#040C12"/>
<path d="M96.429 103.095C95.5237 103.095 94.7852 102.357 94.7852 101.452C94.7852 100.547 95.5237 99.8081 96.429 99.8081C97.3343 99.8081 98.0728 100.547 98.0728 101.452C98.0728 102.357 97.3343 103.095 96.429 103.095ZM96.429 100.689C96.0121 100.689 95.6785 101.023 95.6785 101.44C95.6785 101.857 96.0121 102.19 96.429 102.19C96.8459 102.19 97.1794 101.857 97.1794 101.44C97.1794 101.023 96.8459 100.689 96.429 100.689Z" fill="#040C12"/>
<path d="M107.461 101.44C107.461 100.773 107.997 100.237 108.664 100.237C109.331 100.237 109.867 100.773 109.867 101.44C109.867 102.107 109.331 102.643 108.664 102.643C107.997 102.643 107.461 102.107 107.461 101.44Z" fill="#040C12"/>
<path d="M108.663 103.095C107.758 103.095 107.02 102.357 107.02 101.452C107.02 100.547 107.758 99.8081 108.663 99.8081C109.569 99.8081 110.307 100.547 110.307 101.452C110.307 102.357 109.569 103.095 108.663 103.095ZM108.663 100.689C108.246 100.689 107.913 101.023 107.913 101.44C107.913 101.857 108.246 102.19 108.663 102.19C109.08 102.19 109.414 101.857 109.414 101.44C109.414 101.023 109.08 100.689 108.663 100.689Z" fill="#040C12"/>
<path d="M528.802 120.02H498.331C498.081 120.02 497.891 119.817 497.891 119.567C497.891 119.317 498.093 119.115 498.331 119.115H528.802C529.052 119.115 529.242 119.317 529.242 119.567C529.242 119.817 529.04 120.02 528.802 120.02Z" fill="#040C12"/>
<path d="M524.526 126.725H503.144C502.894 126.725 502.691 126.523 502.691 126.273C502.691 126.023 502.894 125.82 503.144 125.82H524.526C524.776 125.82 524.978 126.023 524.978 126.273C524.978 126.523 524.776 126.725 524.526 126.725Z" fill="#040C12"/>
</g>
<path d="M608.644 166.288C607.179 166.288 606 165.097 606 163.644C606 162.191 607.191 161 608.644 161C610.098 161 611.289 162.191 611.289 163.644C611.289 165.097 610.098 166.288 608.644 166.288ZM608.644 161.881C607.68 161.881 606.893 162.667 606.893 163.632C606.893 164.597 607.68 165.383 608.644 165.383C609.609 165.383 610.395 164.597 610.395 163.632C610.395 162.667 609.609 161.881 608.644 161.881Z" fill="black"/>
<path d="M452.431 6.8603C450.537 6.8603 449 5.32388 449 3.43015C449 1.53642 450.537 0 452.431 0C454.325 0 455.861 1.53642 455.861 3.43015C455.861 5.32388 454.325 6.8603 452.431 6.8603ZM452.431 0.881358C451.025 0.881358 449.893 2.02474 449.893 3.41824C449.893 4.81174 451.037 5.95512 452.431 5.95512C453.824 5.95512 454.968 4.81174 454.968 3.41824C454.968 2.02474 453.824 0.881358 452.431 0.881358Z" fill="black"/>
<path d="M5.4794 165.969C5.00293 165.969 4.52646 165.91 4.07382 165.791C3.83558 165.731 3.69264 165.481 3.7522 165.243C3.81176 165.005 4.0619 164.862 4.30014 164.921C4.68131 165.028 5.08631 165.076 5.4794 165.076C6.18219 165.076 6.84925 164.921 7.46866 164.623C7.69498 164.516 7.95704 164.612 8.06425 164.826C8.17145 165.052 8.07616 165.314 7.86175 165.421C7.11131 165.779 6.31322 165.969 5.4794 165.969ZM1.3222 163.778C1.17926 163.778 1.03632 163.706 0.952939 163.587C0.333529 162.682 0 161.61 0 160.503C0 159.192 0.464558 157.918 1.3222 156.929C1.48897 156.739 1.76294 156.727 1.95353 156.882C2.14411 157.049 2.15602 157.322 2.00117 157.513C1.28647 158.347 0.893381 159.407 0.893381 160.503C0.893381 161.432 1.16735 162.325 1.69147 163.087C1.83441 163.29 1.77485 163.563 1.57235 163.706C1.50088 163.754 1.40559 163.79 1.3222 163.79V163.778ZM10.0892 162.944C10.0892 162.944 9.97013 162.932 9.91057 162.908C9.68424 162.813 9.57704 162.551 9.68425 162.325C9.93439 161.741 10.0654 161.134 10.0654 160.491C10.0654 160.026 9.99395 159.574 9.86292 159.133C9.79145 158.895 9.92248 158.645 10.1607 158.573C10.3989 158.502 10.6491 158.633 10.7206 158.871C10.8754 159.395 10.9588 159.931 10.9588 160.491C10.9588 161.253 10.8039 161.991 10.5062 162.682C10.4347 162.849 10.2679 162.956 10.1012 162.956L10.0892 162.944ZM8.14763 156.679C8.06425 156.679 7.98087 156.656 7.9094 156.608C7.18278 156.155 6.33705 155.905 5.4794 155.905C5.25308 155.905 5.01484 155.917 4.78852 155.953C4.55028 155.989 4.31205 155.822 4.27631 155.572C4.24058 155.333 4.40734 155.095 4.65749 155.06C4.93146 155.024 5.20543 155 5.4794 155C6.51572 155 7.51631 155.286 8.38587 155.834C8.60028 155.965 8.65983 156.239 8.52881 156.453C8.44542 156.584 8.30248 156.667 8.14763 156.667V156.679Z" fill="black"/>
<path d="M252.431 31.8603C250.537 31.8603 249 30.3239 249 28.4302C249 26.5364 250.537 25 252.431 25C254.325 25 255.861 26.5364 255.861 28.4302C255.861 30.3239 254.325 31.8603 252.431 31.8603ZM252.431 25.8814C251.025 25.8814 249.893 27.0247 249.893 28.4182C249.893 29.8117 251.037 30.9551 252.431 30.9551C253.824 30.9551 254.968 29.8117 254.968 28.4182C254.968 27.0247 253.824 25.8814 252.431 25.8814Z" fill="black"/>
<defs>
<clipPath id="clip0_2006_1200">
<rect width="508" height="181" fill="white" transform="translate(53 51)"/>
</clipPath>
</defs>
</svg>
