<svg width="502" height="109" viewBox="0 0 502 109" fill="none" xmlns="http://www.w3.org/2000/svg">
<g opacity="0.03" clip-path="url(#clip0_387_5216)">
<path d="M55.7916 31.2247C56.114 28.7196 57.6198 27.467 60.3088 27.467C62.5143 27.467 64.7294 27.5435 66.9251 27.4383C68.26 27.381 68.6179 27.8973 68.6082 29.1212C68.5695 44.9548 68.821 60.7885 68.4535 76.6126C68.202 87.7134 60.2992 97.1505 49.4655 100.574C39.0381 103.863 27.0824 100.086 19.9921 91.3468C19.0345 90.1612 19.0635 89.5301 20.379 88.7269C22.9423 87.1493 25.4863 85.5334 27.8949 83.7454C29.0556 82.8849 29.4813 83.1335 30.3421 84.1184C37.5678 92.3794 51.1389 90.1611 55.0565 80.1217C55.3757 79.2994 55.9947 78.305 55.2983 77.6357C54.6115 76.976 53.8473 77.9608 53.1606 78.2572C39.0865 84.3383 24.2192 79.3376 17.1289 66.1333C10.8705 54.478 15.0976 38.8833 26.56 31.8079C35.7009 26.1667 45.1224 25.9563 54.6695 30.89C54.9501 31.0334 55.2499 31.1673 55.5498 31.282C55.6078 31.3011 55.7045 31.2438 55.7819 31.2247H55.7916Z" fill="#0B2033"/>
<path d="M290.53 29.7995C298.365 26.7877 305.416 26.9502 311.617 32.601C312.719 33.605 313.116 33.2799 314.054 32.4767C323.63 24.273 337.685 27.2753 342.715 38.5386C343.692 40.7282 343.982 43.0516 343.992 45.3942C344.021 56.3802 343.973 67.3758 344.04 78.3619C344.05 80.0256 343.653 80.7331 341.873 80.5132C339.716 80.2455 336.931 81.4215 335.528 80.016C334.232 78.7252 335.16 76.0193 335.151 73.9349C335.112 64.5648 335.151 55.185 335.131 45.8149C335.131 42.019 333.555 39.0836 329.995 37.42C326.832 35.9475 323.766 36.3108 320.961 38.2996C318.388 40.1258 317.304 42.7074 317.324 45.8436C317.362 56.5141 317.285 67.1751 317.391 77.8456C317.411 79.93 316.956 80.8287 314.722 80.5228C312.652 80.2359 309.972 81.3929 308.618 80.0256C307.37 78.7635 308.27 76.1723 308.26 74.174C308.221 64.6413 308.26 55.099 308.231 45.5663C308.231 41.8373 306.558 39.0454 303.104 37.4391C299.845 35.9188 296.711 36.3491 293.876 38.4717C291.352 40.3649 290.404 43.0038 290.414 46.1113C290.462 56.7818 290.385 67.4428 290.472 78.1133C290.481 79.9587 290.123 80.8096 288.063 80.5323C285.983 80.2551 283.265 81.3928 281.94 80.0925C280.596 78.7826 281.524 76.1054 281.514 74.0306C281.476 59.4016 281.524 44.7727 281.456 30.1533C281.456 28.3844 281.824 27.6482 283.73 27.8681C285.268 28.0402 286.844 28.002 288.382 27.8681C289.891 27.7438 290.733 28.1645 290.52 29.8091L290.53 29.7995Z" fill="#E03300"/>
<path d="M202.23 80.8487C187.17 80.8296 175.117 68.9447 175.117 54.1341C175.117 39.1514 187.189 27.4004 202.482 27.4769C217.465 27.5439 229.276 39.2948 229.276 54.1437C229.276 69.069 217.32 80.8774 202.23 80.8582V80.8487Z" fill="#0B2033"/>
<path d="M133.536 54.0669C133.565 68.8679 121.483 80.8292 106.48 80.8484C91.3423 80.8675 79.3963 69.1261 79.3672 54.2103C79.3382 39.2467 91.1972 27.5053 106.335 27.4766C121.464 27.4479 133.507 39.218 133.536 54.0764V54.0669Z" fill="#0B2033"/>
<path d="M446.27 58.5327C439.896 58.5327 433.521 58.5327 427.147 58.5327C424.235 58.5327 424.08 58.7908 425.367 61.4776C430.281 71.7752 443.358 74.9209 452.509 67.9028C453.747 66.9563 454.434 66.9276 455.556 67.8646C456.668 68.8016 457.907 69.6239 459.203 70.2932C461.263 71.3545 461.311 72.1577 459.522 73.7544C449.965 82.2736 435.059 82.7995 425.057 74.8348C414.465 66.3921 411.699 52.2508 418.412 40.8632C424.68 30.2309 438.329 25.1825 450.313 29.074C461.776 32.7838 469.64 44.7547 468.382 56.3527C468.199 58.0833 467.715 58.6283 465.887 58.5996C459.348 58.4753 452.809 58.5518 446.27 58.5518V58.5327Z" fill="#E03300"/>
<path d="M399.397 71.7093C393.323 79.454 380.961 82.6093 371.007 79.0525C360.087 75.1514 353.025 65.3701 353.016 54.145C353.016 43.0825 359.893 32.8231 370.756 29.3045C391.485 22.5924 408.325 39.1145 406.488 56.4589C406.284 58.3425 405.53 58.5815 403.876 58.5719C390.885 58.505 377.885 58.5719 364.894 58.4954C362.708 58.4763 362.505 58.9831 363.279 60.8762C367.612 71.5085 381.551 75.161 390.721 67.9039C391.843 67.0147 392.433 66.8904 393.565 67.7509C395.431 69.1755 397.443 70.409 399.407 71.7189L399.397 71.7093Z" fill="#E03300"/>
<path d="M161.032 60.2813C161.032 66.4962 160.993 72.7207 161.061 78.9356C161.08 80.389 160.703 80.9435 159.146 80.8862C156.292 80.7714 153.419 80.7332 150.575 80.8862C148.67 80.9913 148.264 80.2838 148.283 78.5341C148.351 66.5058 148.263 54.468 148.37 42.4397C148.389 40.3458 147.964 39.6574 145.72 39.7817C142.102 39.9729 142.489 40.3649 142.479 36.636C142.479 34.2169 142.547 31.7883 142.45 29.3693C142.392 27.9064 142.856 27.2371 144.394 27.4666C144.878 27.5335 145.381 27.4188 145.865 27.4857C147.664 27.763 148.322 27.1319 148.592 25.2483C149.956 15.6869 158.788 8.95571 168.519 9.81623C169.399 9.89273 169.902 10.0839 169.902 11.0496C169.882 14.3579 169.873 17.6757 169.902 20.9839C169.921 22.6094 168.76 22.2747 167.851 22.2174C165.065 22.0548 162.908 23.0396 161.515 25.4778C160.8 26.7303 160.751 27.4857 162.657 27.5144C167 27.5718 166.99 27.6482 166.99 32.0561C166.99 34.0735 166.913 36.1005 167.019 38.1084C167.087 39.5044 166.574 39.8773 165.201 39.8868C161.041 39.9251 161.041 39.992 161.041 44.0556C161.041 49.4674 161.041 54.8791 161.041 60.2813H161.032Z" fill="#0B2033"/>
<path d="M252.554 31.5495C257.952 28.0978 263.61 27.3234 269.501 27.4381C270.952 27.4668 271.416 27.7249 270.913 29.2165C269.936 32.1232 269.075 35.0681 268.244 38.013C267.895 39.2369 267.373 39.7723 265.951 39.9349C257.613 40.8719 252.438 46.7043 252.438 54.9367C252.438 62.8535 252.39 70.7608 252.477 78.6777C252.496 80.3318 252.09 80.9724 250.31 80.8863C247.456 80.7429 244.593 80.8003 241.74 80.8672C240.424 80.8959 239.834 80.5804 239.844 79.1366C239.883 62.5093 239.883 45.8725 239.844 29.2452C239.844 27.897 240.221 27.3903 241.653 27.4477C244.264 27.5528 246.886 27.6198 249.488 27.4381C251.732 27.2755 252.931 27.7727 252.448 30.2491C252.39 30.536 252.496 30.8515 252.564 31.5591L252.554 31.5495Z" fill="#0B2033"/>
<path d="M481.835 18.9197C481.835 16.5771 481.913 14.225 481.806 11.892C481.739 10.4578 482.271 10.0754 483.635 10.1614C485.347 10.2666 487.078 10.2857 488.781 10.1614C490.319 10.0371 490.734 10.5917 490.705 12.0641C490.618 16.6727 490.744 21.2813 490.638 25.8804C490.599 27.4676 491.025 27.9456 492.679 27.9265C496.983 27.8596 496.983 27.9456 496.983 32.2387V32.4777C496.983 36.57 496.983 36.6752 492.911 36.5413C491.054 36.484 490.599 36.9907 490.628 38.8074C490.734 46.5617 490.667 54.3255 490.676 62.0798C490.686 67.9792 494.294 71.6604 500.233 71.6412C501.887 71.6412 502.671 71.9663 502.439 73.7352C502.313 74.6913 502.419 75.6762 502.419 76.6419C502.419 79.3573 501.068 80.6258 498.366 80.4473C489.042 79.8163 481.951 72.4826 481.855 63.2176C481.777 55.1383 481.777 47.0493 481.874 38.9699C481.893 37.1054 481.468 36.4648 479.475 36.5413C475.471 36.6943 475.461 36.57 475.461 32.6976C475.461 32.6212 475.461 32.5351 475.461 32.4586C475.461 27.9839 475.461 27.8978 479.988 27.9265C481.603 27.9361 481.903 27.3528 481.855 25.9569C481.768 23.6143 481.826 21.2718 481.826 18.9292L481.835 18.9197Z" fill="#E03300"/>
<path d="M41.509 68.3992C33.4322 68.4183 26.9706 62.127 26.9416 54.2197C26.9126 46.322 33.4031 39.8776 41.393 39.8584C49.3925 39.8393 55.9798 46.2646 55.9991 54.1145C56.0184 62.0313 49.5859 68.3897 41.5187 68.4088L41.509 68.3992Z" fill="#FCEBE6"/>
<path d="M202.199 68.3999C194.161 68.3713 187.748 62.032 187.738 54.1343C187.738 46.1792 194.384 39.6775 202.422 39.7635C210.344 39.84 216.815 46.3705 216.757 54.2395C216.699 62.1181 210.199 68.4382 202.19 68.3999H202.199Z" fill="#FCEBE6"/>
<path d="M106.328 68.3991C98.3868 68.3609 91.8383 61.8782 91.8673 54.0761C91.8866 46.2931 98.5126 39.7723 106.415 39.7627C114.492 39.7531 120.944 46.2262 120.876 54.2865C120.818 62.2703 114.463 68.4374 106.338 68.3991H106.328Z" fill="#FCEBE6"/>
<path d="M441.643 49.7653C436.584 49.7653 431.525 49.6505 426.476 49.8131C423.932 49.8991 424.58 48.6753 425.073 47.3462C428.246 38.8175 439.621 34.1897 448.308 37.8135C452.883 39.7258 456.152 42.9002 458.164 47.3558C458.88 48.943 458.996 49.9087 456.559 49.8131C451.597 49.6218 446.615 49.7557 441.643 49.7557V49.7653Z" fill="#FCEBE6"/>
<path d="M379.667 49.7637C374.521 49.7637 369.365 49.735 364.219 49.7828C362.933 49.7924 362.507 49.6585 363.001 48.1765C366.618 37.2191 381.65 32.84 390.665 40.1545C393.306 42.2962 395.308 44.8491 396.575 48.0235C397.156 49.4673 396.904 49.8115 395.356 49.7924C390.123 49.7255 384.89 49.7637 379.667 49.7637Z" fill="#FCEBE6"/>
</g>
<defs>
<clipPath id="clip0_387_5216">
<rect width="502" height="109" fill="white"/>
</clipPath>
</defs>
</svg>
