<svg width="234" height="40" viewBox="0 0 234 40" fill="none" xmlns="http://www.w3.org/2000/svg">
<g clip-path="url(#clip0_114_43)">
<path d="M33.3344 15.2702C33.2457 15.7333 33.033 16.1544 32.8132 16.5649C32.1466 17.807 31.1823 18.7859 29.991 19.5438C29.2039 20.0456 28.3636 20.4386 27.4702 20.7263C27.3638 20.7614 27.261 20.8035 27.1582 20.8456C26.8852 20.9438 26.6016 21.0035 26.3144 21.0631C25.935 21.1333 25.5627 21.221 25.194 21.3228C24.5594 21.3684 23.9318 21.4947 23.2936 21.5193C22.2903 21.5579 21.2869 21.6421 20.28 21.5438C20.2126 21.5368 20.1346 21.5123 20.0744 21.5719C19.6099 22.2631 19.1455 22.9544 18.6739 23.6421C18.5924 23.7614 18.6278 23.7965 18.7555 23.7965C18.8122 23.7965 18.8689 23.7965 18.9256 23.7965C21.2692 23.7965 23.6127 23.7824 25.9563 23.807C27.3886 23.821 28.7643 24.1158 30.0655 24.7333C31.2638 25.3017 32.2353 26.1158 32.994 27.193C33.1252 27.3579 33.2245 27.5403 33.3308 27.7193C33.4407 27.9438 33.5542 28.1649 33.6641 28.3895C33.7953 28.7509 33.9336 29.1053 34.0293 29.4772C34.0612 29.6 34.0576 29.7263 34.0931 29.8491C34.359 31.1017 34.3519 32.3579 34.0931 33.6105C34.1073 33.8281 33.9832 34.0175 33.9796 34.2316C33.8697 34.4561 33.8343 34.7052 33.7173 34.9263C33.3769 35.8491 32.8486 36.6561 32.1715 37.3649C31.4624 38.1123 30.615 38.6807 29.6684 39.0877C28.4416 39.614 27.1511 39.8631 25.8074 39.8596C20.2623 39.8526 14.7172 39.8596 9.17564 39.8596C6.24355 39.8596 3.31146 39.8491 0.375823 39.8526C0.15246 39.8526 0.0744629 39.8105 0.0744629 39.5719C0.0850993 37.2175 0.0815538 34.8631 0.0744629 32.5088C0.0744629 32.2947 0.134734 32.2456 0.343915 32.2491C8.52328 32.2561 16.7026 32.2526 24.882 32.2596C25.1195 32.2596 25.2259 32.1684 25.3004 31.9649C25.5627 31.2386 25.3855 30.4807 24.8536 30.1088C24.7756 30.0526 24.687 30.014 24.6055 29.9649C23.9105 29.6456 23.1695 29.7052 22.4321 29.7052C18.0535 29.7052 13.6748 29.7052 9.29619 29.7052C8.9381 29.7052 8.93456 29.7017 8.93456 29.3474C8.93456 27.8351 8.93456 26.3263 8.93456 24.814C8.93456 24.6772 8.92391 24.5403 9.04091 24.4386C9.73228 23.4035 10.4236 22.3684 11.115 21.3298C11.5121 20.7368 11.9021 20.1403 12.3027 19.5509C12.5084 19.2456 12.519 19.2526 12.2212 19.0316C11.3419 18.3719 10.6364 17.5614 10.0904 16.614C9.88473 16.186 9.66492 15.7684 9.50892 15.3158C9.35646 14.8666 9.21819 14.414 9.12955 13.9509C8.94164 12.9649 8.92391 11.9684 8.98419 10.9684C8.99837 10.7333 9.07637 10.5017 9.0551 10.2631C9.0551 10.2386 9.0551 10.2105 9.0551 10.1859C9.08701 10.0386 9.11537 9.8877 9.14019 9.73683C9.15082 9.39297 9.32455 9.08771 9.39191 8.75788C9.49118 8.55086 9.53374 8.31928 9.65428 8.11928C10.1577 6.90876 10.9413 5.90174 11.9305 5.04209C12.2035 4.807 12.4977 4.60349 12.7885 4.39647C12.9835 4.24911 13.1962 4.1263 13.4125 4.01402C13.6925 3.85613 13.9726 3.69823 14.274 3.57893C14.5399 3.5263 14.7668 3.36841 15.0185 3.27367C15.6106 3.05262 16.2098 2.85964 16.8196 2.71578C17.5465 2.54385 18.2839 2.39998 19.0285 2.31928C19.071 2.31928 19.1171 2.31928 19.1596 2.31928C19.8971 2.26665 20.631 2.19647 21.3685 2.19647C27.3213 2.20349 33.2741 2.19647 39.2305 2.19647C39.351 2.19647 39.4716 2.19998 39.5921 2.19297C39.7446 2.12981 39.6559 2.02103 39.6311 1.93332C39.5283 1.57191 39.3723 1.22455 39.3368 0.845599C39.3333 0.796477 39.3297 0.750863 39.3475 0.708757C39.39 0.621038 39.3971 0.52981 39.4006 0.435074C39.546 -0.0140491 39.7304 -0.157911 40.2055 0.0877033C40.6522 0.319282 41.0351 0.649106 41.4676 0.908755C41.4889 0.919281 41.5102 0.929806 41.5315 0.940332C41.8966 1.25963 42.315 1.50174 42.7085 1.77893C42.939 1.94385 43.1517 2.14385 43.407 2.27718C43.5914 2.44209 43.8005 2.57191 44.0026 2.71226C44.5983 3.13682 45.1904 3.56139 45.7825 3.98946C46.2788 4.34735 46.7858 4.69472 47.2715 5.06665C47.4807 5.22455 47.7005 5.3684 47.9168 5.51928C48.0515 5.61051 48.1118 5.71227 47.9487 5.83507C47.6828 5.99297 47.4559 6.20349 47.2042 6.37893C47.1262 6.407 47.0553 6.44209 47.0021 6.50876C46.9808 6.52981 46.9596 6.55086 46.9347 6.56841C46.878 6.60349 46.8177 6.64209 46.7681 6.69121C46.7539 6.70525 46.7362 6.71577 46.722 6.7263C46.6617 6.76139 46.605 6.79998 46.5625 6.86314C46.5199 6.91226 46.4667 6.94384 46.4065 6.9684C46.2576 7.01753 46.1512 7.1263 46.0413 7.22806C45.9987 7.26314 45.9633 7.30174 45.9207 7.33683C45.7966 7.42104 45.6619 7.49472 45.5414 7.58244C45.1053 7.94384 44.6408 8.27367 44.187 8.61051C43.8786 8.85963 43.5559 9.09472 43.2404 9.33683C43.095 9.45612 42.939 9.55788 42.7936 9.67367C42.5171 9.86314 42.2654 10.0842 41.9853 10.2702C41.9215 10.2982 41.9073 10.3754 41.8541 10.414C41.8364 10.4281 41.8186 10.4386 41.7974 10.4491C41.6236 10.5228 41.4889 10.6456 41.3577 10.7789C41.0635 11.021 40.7621 11.2526 40.443 11.4596C40.2516 11.5403 40.053 11.5965 39.8509 11.6351C39.4219 11.7228 39.1489 11.4842 39.1879 11.0561C39.195 10.9789 39.1915 10.8982 39.2092 10.821C39.2092 10.7965 39.2163 10.7754 39.2234 10.7509C39.234 10.7298 39.2446 10.7123 39.2588 10.6912C39.3156 10.614 39.2907 10.5263 39.2978 10.4421C39.3049 10.3965 39.3085 10.3509 39.3191 10.3088C39.351 10.221 39.3794 10.1298 39.4184 10.0421C39.468 9.93682 39.4928 9.82104 39.5637 9.7263C39.6134 9.63156 39.5886 9.57542 39.4751 9.56841C39.4113 9.56841 39.3475 9.56841 39.2836 9.56841C37.3514 9.56841 35.4226 9.56841 33.4904 9.56841C33.4053 9.56841 33.3131 9.58595 33.228 9.54735C33.0897 9.55437 33.0685 9.62103 33.1394 9.72981C33.3521 10.2421 33.5046 10.7684 33.6074 11.3123C33.7527 12.0772 33.7137 12.8456 33.6747 13.6105C33.6464 14.1754 33.5116 14.7333 33.3308 15.2772L33.3344 15.2702Z" fill="#E03300"/>
<path d="M42.2264 27.7719C45.5981 27.7895 48.282 30.5193 48.2643 33.9053C48.243 37.2 45.4882 39.8912 42.1555 39.8667C38.8157 39.8421 36.1176 37.1123 36.1389 33.7825C36.1601 30.4561 38.8972 27.7544 42.2299 27.7684L42.2264 27.7719Z" fill="#0B2033"/>
<path d="M70.4481 11.4596C70.5663 10.5403 71.1182 10.0807 72.1038 10.0807C72.9122 10.0807 73.7241 10.1088 74.5289 10.0702C75.0182 10.0491 75.1493 10.2386 75.1458 10.6877C75.1316 16.4982 75.2238 22.3088 75.0891 28.1158C74.9969 32.1895 72.1003 35.6526 68.1293 36.9088C64.3073 38.1158 59.9252 36.7298 57.3263 33.5228C56.9753 33.0877 56.986 32.8561 57.4682 32.5614C58.4077 31.9824 59.3402 31.3895 60.223 30.7333C60.6484 30.4175 60.8044 30.5088 61.12 30.8702C63.7684 33.9017 68.7427 33.0877 70.1786 29.4035C70.2956 29.1017 70.5225 28.7368 70.2673 28.4912C70.0155 28.2491 69.7354 28.6105 69.4837 28.7193C64.3251 30.9509 58.8757 29.1158 56.2769 24.2702C53.983 19.993 55.5323 14.2702 59.7337 11.6737C63.0842 9.60349 66.5374 9.5263 70.0368 11.3368C70.1396 11.3895 70.2495 11.4386 70.3594 11.4807C70.3807 11.4877 70.4162 11.4666 70.4445 11.4596H70.4481Z" fill="#0B2033"/>
<path d="M156.489 10.9369C159.361 9.83159 161.946 9.89124 164.218 11.9649C164.622 12.3333 164.768 12.214 165.112 11.9193C168.622 8.90879 173.773 10.0105 175.617 14.1439C175.975 14.9474 176.081 15.8 176.085 16.6597C176.096 20.6912 176.078 24.7263 176.103 28.7579C176.106 29.3684 175.961 29.6281 175.308 29.5474C174.518 29.4491 173.497 29.8807 172.983 29.3649C172.508 28.8912 172.848 27.8983 172.844 27.1333C172.83 23.6947 172.844 20.2526 172.837 16.814C172.837 15.4211 172.259 14.3439 170.955 13.7333C169.795 13.193 168.671 13.3263 167.643 14.0562C166.7 14.7263 166.303 15.6737 166.31 16.8246C166.324 20.7404 166.296 24.6526 166.335 28.5684C166.342 29.3333 166.175 29.6632 165.356 29.5509C164.598 29.4456 163.616 29.8702 163.119 29.3684C162.662 28.9053 162.992 27.9544 162.988 27.2211C162.974 23.7228 162.988 20.2211 162.977 16.7228C162.977 15.3544 162.364 14.3298 161.098 13.7404C159.903 13.1825 158.755 13.3404 157.716 14.1193C156.791 14.814 156.443 15.7825 156.447 16.9228C156.464 20.8386 156.436 24.7509 156.468 28.6667C156.471 29.3439 156.34 29.6562 155.585 29.5544C154.823 29.4526 153.827 29.8702 153.341 29.393C152.848 28.9123 153.188 27.9298 153.185 27.1684C153.171 21.8 153.188 16.4316 153.164 11.0667C153.164 10.4176 153.298 10.1474 153.997 10.2281C154.56 10.2912 155.138 10.2772 155.702 10.2281C156.255 10.1825 156.564 10.3369 156.486 10.9404L156.489 10.9369Z" fill="#E03300"/>
<path d="M124.123 29.6702C118.602 29.6632 114.185 25.3018 114.185 19.8667C114.185 14.3684 118.609 10.0562 124.215 10.0842C129.707 10.1088 134.036 14.4211 134.036 19.8702C134.036 25.3474 129.654 29.6807 124.123 29.6737V29.6702Z" fill="#0B2033"/>
<path d="M98.9466 19.8421C98.9573 25.2737 94.529 29.6632 89.03 29.6702C83.4813 29.6772 79.1027 25.3685 79.0921 19.8948C79.0814 14.4035 83.4282 10.0948 88.9768 10.0842C94.5219 10.0737 98.936 14.393 98.9466 19.8456V19.8421Z" fill="#0B2033"/>
<path d="M213.575 21.4807C211.238 21.4807 208.902 21.4807 206.565 21.4807C205.498 21.4807 205.441 21.5755 205.913 22.5614C207.714 26.3404 212.507 27.4948 215.861 24.9193C216.315 24.572 216.567 24.5614 216.978 24.9053C217.386 25.2491 217.84 25.5509 218.315 25.7965C219.07 26.186 219.088 26.4807 218.432 27.0667C214.929 30.193 209.465 30.386 205.799 27.4632C201.917 24.3649 200.903 19.1755 203.364 14.9965C205.661 11.0948 210.664 9.24213 215.057 10.6702C219.258 12.0316 222.14 16.4246 221.679 20.6807C221.612 21.3158 221.435 21.5158 220.765 21.5053C218.368 21.4597 215.971 21.4877 213.575 21.4877V21.4807Z" fill="#E03300"/>
<path d="M196.394 26.3158C194.167 29.1579 189.636 30.3158 185.988 29.0106C181.985 27.579 179.397 23.9895 179.393 19.8702C179.393 15.8106 181.914 12.0457 185.895 10.7544C193.493 8.29127 199.666 14.3544 198.992 20.7193C198.918 21.4106 198.641 21.4983 198.035 21.4948C193.274 21.4702 188.508 21.4948 183.747 21.4667C182.946 21.4597 182.871 21.6457 183.155 22.3404C184.743 26.2421 189.852 27.5825 193.213 24.9193C193.625 24.593 193.841 24.5474 194.256 24.8632C194.94 25.386 195.677 25.8386 196.397 26.3193L196.394 26.3158Z" fill="#E03300"/>
<path d="M109.023 22.1228C109.023 24.4035 109.009 26.6877 109.033 28.9684C109.041 29.5018 108.902 29.7053 108.331 29.6842C107.285 29.6421 106.232 29.6281 105.19 29.6842C104.492 29.7228 104.343 29.4632 104.35 28.8211C104.375 24.407 104.343 19.9895 104.382 15.5755C104.389 14.807 104.233 14.5544 103.41 14.6C102.084 14.6702 102.226 14.8141 102.223 13.4456C102.223 12.5579 102.247 11.6667 102.212 10.779C102.191 10.2421 102.361 9.99651 102.925 10.0807C103.102 10.1053 103.286 10.0632 103.464 10.0877C104.123 10.1895 104.364 9.95791 104.463 9.26669C104.963 5.75791 108.2 3.28774 111.767 3.60353C112.09 3.6316 112.274 3.70177 112.274 4.05616C112.267 5.27019 112.263 6.48774 112.274 7.70177C112.281 8.29826 111.856 8.17546 111.522 8.15441C110.501 8.09476 109.711 8.45616 109.2 9.35089C108.938 9.81054 108.92 10.0877 109.618 10.0983C111.21 10.1193 111.207 10.1474 111.207 11.7649C111.207 12.5053 111.178 13.2491 111.217 13.986C111.242 14.4983 111.054 14.6351 110.551 14.6386C109.026 14.6526 109.026 14.6772 109.026 16.1684C109.026 18.1544 109.026 20.1404 109.026 22.1228H109.023Z" fill="#0B2033"/>
<path d="M142.57 11.579C144.548 10.3123 146.622 10.0281 148.781 10.0702C149.313 10.0807 149.483 10.1755 149.299 10.7228C148.941 11.7895 148.625 12.8702 148.32 13.9509C148.193 14.4 148.001 14.5965 147.48 14.6562C144.424 15 142.527 17.1404 142.527 20.1614C142.527 23.0667 142.509 25.9684 142.541 28.8737C142.548 29.4807 142.399 29.7158 141.747 29.6842C140.701 29.6316 139.652 29.6526 138.606 29.6772C138.124 29.6877 137.907 29.5719 137.911 29.0421C137.925 22.9404 137.925 16.8351 137.911 10.7333C137.911 10.2386 138.049 10.0526 138.574 10.0737C139.531 10.1123 140.492 10.1369 141.446 10.0702C142.268 10.0105 142.708 10.193 142.531 11.1018C142.509 11.207 142.548 11.3228 142.573 11.5825L142.57 11.579Z" fill="#0B2033"/>
<path d="M226.608 6.94386C226.608 6.08421 226.636 5.22106 226.597 4.36492C226.572 3.8386 226.767 3.69825 227.267 3.72983C227.895 3.76843 228.529 3.77545 229.153 3.72983C229.717 3.68422 229.869 3.88772 229.859 4.42807C229.827 6.1193 229.873 7.81053 229.834 9.49825C229.82 10.0807 229.976 10.2561 230.582 10.2491C232.16 10.2246 232.16 10.2561 232.16 11.8316V11.9193C232.16 13.4211 232.16 13.4597 230.667 13.4105C229.986 13.3895 229.82 13.5754 229.83 14.2421C229.869 17.0877 229.845 19.9368 229.848 22.7825C229.852 24.9474 231.174 26.2982 233.351 26.2912C233.957 26.2912 234.244 26.4105 234.159 27.0597C234.113 27.4105 234.152 27.7719 234.152 28.1263C234.152 29.1228 233.657 29.5883 232.667 29.5228C229.249 29.2912 226.65 26.6 226.615 23.2C226.586 20.2351 226.586 17.2667 226.622 14.3018C226.629 13.6175 226.473 13.3825 225.742 13.4105C224.275 13.4667 224.271 13.4211 224.271 12C224.271 11.9719 224.271 11.9404 224.271 11.9123C224.271 10.2702 224.271 10.2386 225.93 10.2491C226.522 10.2526 226.632 10.0386 226.615 9.52632C226.583 8.66667 226.604 7.80702 226.604 6.94737L226.608 6.94386Z" fill="#E03300"/>
<path d="M24.1233 14.2666C23.985 14.4351 23.8361 14.5895 23.6376 14.6912C23.2582 14.9403 22.854 15.1298 22.4002 15.2035C22.3364 15.214 22.2761 15.2316 22.2158 15.2561C21.333 15.3403 20.4679 15.2982 19.6808 14.8351C18.9859 14.4737 18.5888 13.8772 18.3584 13.1614C18.174 12.5859 18.1527 11.9895 18.2272 11.393C18.4116 9.9263 19.4326 8.86665 20.9288 8.67016C21.5883 8.58244 22.23 8.62103 22.8505 8.83156C23.6056 9.0877 24.1765 9.58244 24.531 10.2982C24.5771 10.3895 24.6586 10.4666 24.6515 10.5789C24.7473 10.8526 24.7898 11.1403 24.8465 11.4245C24.921 11.793 24.9068 12.1579 24.8465 12.5263C24.7579 13.0631 24.6196 13.5824 24.2899 14.0351C24.2332 14.1123 24.1552 14.1719 24.1197 14.2631L24.1233 14.2666Z" fill="#FCEBE6"/>
<path d="M65.2151 25.1017C62.2546 25.1088 59.8863 22.8 59.8756 19.8982C59.865 17 62.244 14.6351 65.1726 14.6281C68.1046 14.621 70.5191 16.9789 70.5262 19.8596C70.5333 22.7649 68.1756 25.0982 65.2186 25.1053L65.2151 25.1017Z" fill="#FCEBE6"/>
<path d="M124.112 25.1017C121.166 25.0912 118.815 22.7649 118.812 19.8666C118.812 16.9473 121.248 14.5614 124.194 14.593C127.098 14.621 129.469 17.0175 129.448 19.9052C129.427 22.7965 127.044 25.1158 124.109 25.1017H124.112Z" fill="#FCEBE6"/>
<path d="M88.9732 25.1018C86.0624 25.0878 83.6621 22.7088 83.6728 19.8457C83.6799 16.9895 86.1085 14.5965 89.0051 14.593C91.9656 14.5895 94.3304 16.965 94.3056 19.9228C94.2843 22.8527 91.9549 25.1158 88.9768 25.1018H88.9732Z" fill="#FCEBE6"/>
<path d="M211.876 18.2632C210.022 18.2632 208.168 18.2211 206.317 18.2807C205.385 18.3123 205.622 17.8632 205.803 17.3755C206.966 14.2457 211.135 12.5474 214.319 13.8772C215.996 14.579 217.194 15.7439 217.932 17.379C218.194 17.9614 218.237 18.3158 217.343 18.2807C215.525 18.2106 213.699 18.2597 211.876 18.2597V18.2632Z" fill="#FCEBE6"/>
<path d="M189.161 18.2632C187.275 18.2632 185.385 18.2527 183.499 18.2702C183.027 18.2737 182.871 18.2246 183.052 17.6807C184.378 13.6597 189.888 12.0527 193.192 14.7369C194.16 15.5228 194.894 16.4597 195.358 17.6246C195.571 18.1544 195.479 18.2807 194.911 18.2737C192.993 18.2491 191.075 18.2632 189.161 18.2632Z" fill="#FCEBE6"/>
</g>
<defs>
<clipPath id="clip0_114_43">
<rect width="234" height="40" fill="white"/>
</clipPath>
</defs>
</svg>
