<svg width="50" height="50" viewBox="0 0 50 50" fill="none" xmlns="http://www.w3.org/2000/svg">
<path d="M12.082 46.9001C12.082 47.2316 12.2137 47.5496 12.4481 47.784C12.6826 48.0184 13.0005 48.1501 13.332 48.1501C13.6636 48.1501 13.9815 48.0184 14.2159 47.784C14.4503 47.5496 14.582 47.2316 14.582 46.9001C14.582 44.1374 15.6795 41.4879 17.633 39.5344C19.5865 37.5809 22.236 36.4834 24.9987 36.4834C27.7614 36.4834 30.4109 37.5809 32.3644 39.5344C34.3179 41.4879 35.4154 44.1374 35.4154 46.9001C35.4154 47.2316 35.5471 47.5496 35.7815 47.784C36.0159 48.0184 36.3338 48.1501 36.6654 48.1501C36.9969 48.1501 37.3148 48.0184 37.5492 47.784C37.7837 47.5496 37.9154 47.2316 37.9154 46.9001C37.9122 44.352 37.1567 41.8616 35.7436 39.7413C34.3305 37.621 32.3226 35.9653 29.972 34.9818C31.592 33.9123 32.8242 32.3491 33.4857 30.5242C34.1473 28.6992 34.203 26.7096 33.6447 24.8505C33.0863 22.9913 31.9436 21.3616 30.3861 20.2031C28.8285 19.0446 26.939 18.4189 24.9979 18.4189C23.0567 18.4189 21.1672 19.0446 19.6096 20.2031C18.0521 21.3616 16.9094 22.9913 16.3511 24.8505C15.7927 26.7096 15.8485 28.6992 16.51 30.5242C17.1716 32.3491 18.4037 33.9123 20.0237 34.9818C17.6735 35.9657 15.6662 37.6216 14.2534 39.7419C12.8406 41.8621 12.0852 44.3523 12.082 46.9001ZM18.4704 27.4568C18.47 26.1655 18.8526 24.9032 19.5698 23.8294C20.2869 22.7556 21.3064 21.9186 22.4993 21.4242C23.6921 20.9298 25.0048 20.8003 26.2713 21.052C27.5378 21.3037 28.7012 21.9253 29.6143 22.8383C30.5275 23.7512 31.1494 24.9145 31.4015 26.1809C31.6535 27.4473 31.5243 28.76 31.0303 29.953C30.5362 31.146 29.6994 32.1657 28.6258 32.8831C27.5522 33.6005 26.29 33.9834 24.9987 33.9834C23.2681 33.9817 21.6089 33.2935 20.385 32.07C19.1611 30.8464 18.4726 29.1874 18.4704 27.4568Z" fill="#E03300"/>
<path d="M48.3316 31.5718C48.663 31.5709 48.9805 31.4386 49.2145 31.204C49.4486 30.9694 49.58 30.6515 49.58 30.3201C49.5737 27.7727 48.8163 25.2838 47.4025 23.1647C45.9887 21.0457 43.9814 19.3906 41.6316 18.4068C43.4361 17.2114 44.7505 15.4069 45.3348 13.3227C45.919 11.2385 45.7342 9.01376 44.814 7.05457C43.8938 5.09539 42.2997 3.53252 40.3227 2.65131C38.3456 1.77011 36.1176 1.62936 34.0454 2.25477C31.9732 2.88018 30.1951 4.23003 29.0357 6.05784C27.8763 7.88565 27.4129 10.0695 27.7303 12.2106C28.0476 14.3517 29.1245 16.3073 30.7642 17.7203C32.4039 19.1332 34.4971 19.9093 36.6616 19.9068C39.4227 19.9134 42.0688 21.0131 44.0212 22.9655C45.9736 24.9179 47.0734 27.564 47.08 30.3251C47.0809 30.6563 47.2132 30.9737 47.4479 31.2074C47.6825 31.4412 48.0004 31.5722 48.3316 31.5718ZM30.1366 10.8768C30.1366 9.5856 30.5195 8.32341 31.2369 7.24983C31.9542 6.17626 32.9738 5.3395 34.1667 4.84539C35.3596 4.35127 36.6722 4.22199 37.9386 4.47389C39.205 4.72579 40.3682 5.34755 41.2812 6.26055C42.1942 7.17356 42.816 8.33679 43.0679 9.60317C43.3198 10.8695 43.1905 12.1822 42.6964 13.3751C42.2023 14.568 41.3655 15.5876 40.2919 16.3049C39.2183 17.0222 37.9562 17.4051 36.665 17.4051C34.9341 17.4034 33.2746 16.715 32.0507 15.4911C30.8268 14.2671 30.1384 12.6077 30.1366 10.8768Z" fill="#E03300"/>
<path d="M1.66797 31.5717C1.99949 31.5717 2.31743 31.44 2.55185 31.2056C2.78627 30.9711 2.91797 30.6532 2.91797 30.3217C2.92457 27.561 4.02416 24.9154 5.97623 22.9633C7.92831 21.0112 10.574 19.9116 13.3346 19.905C15.5057 19.9089 17.6058 19.1317 19.2511 17.7152C20.8965 16.2987 21.9773 14.3375 22.2962 12.19C22.6151 10.0425 22.1508 7.85187 20.988 6.01839C19.8252 4.18492 18.0417 2.83096 15.9631 2.20384C13.8846 1.57672 11.6498 1.71831 9.66702 2.60274C7.68424 3.48717 6.08582 5.05541 5.16375 7.02097C4.24168 8.98653 4.05752 11.2182 4.6449 13.3083C5.23228 15.3985 6.552 17.2075 8.36297 18.405C6.01374 19.3897 4.00702 21.0452 2.59386 23.1645C1.1807 25.2838 0.423838 27.7728 0.417969 30.32C0.417968 30.6517 0.549611 30.9698 0.783984 31.2045C1.01836 31.4392 1.33629 31.5712 1.66797 31.5717ZM6.8063 10.8767C6.8063 9.5855 7.18918 8.32331 7.90652 7.24973C8.62387 6.17616 9.64345 5.3394 10.8364 4.84529C12.0292 4.35117 13.3419 4.22189 14.6082 4.47379C15.8746 4.72569 17.0379 5.34745 17.9509 6.26045C18.8639 7.17346 19.4856 8.33669 19.7375 9.60307C19.9894 10.8694 19.8601 12.1821 19.366 13.375C18.8719 14.5679 18.0352 15.5875 16.9616 16.3048C15.888 17.0221 14.6258 17.405 13.3346 17.405C11.6038 17.4032 9.94427 16.7149 8.72036 15.491C7.49644 14.267 6.80807 12.6076 6.8063 10.8767Z" fill="#E03300"/>
</svg>
