<svg width="50" height="50" viewBox="0 0 50 50" fill="none" xmlns="http://www.w3.org/2000/svg">
<g clip-path="url(#clip0_387_4912)">
<path d="M33.8138 31.8439C25.1784 31.8439 18.1576 24.8231 18.1576 16.1772C18.1576 7.53141 25.1784 0.520996 33.8138 0.520996C42.4492 0.520996 49.4805 7.55225 49.4805 16.1877C49.4805 24.8231 42.4492 31.8439 33.8138 31.8439ZM33.8138 2.0835C26.043 2.0835 19.7201 8.40641 19.7201 16.1877C19.7201 23.9689 26.043 30.2814 33.8138 30.2814C41.5846 30.2814 47.918 23.9585 47.918 16.1877C47.918 8.41683 41.5951 2.0835 33.8138 2.0835Z" fill="#E03300"/>
<path d="M33.8112 28.4478C27.0508 28.4478 21.5404 22.9478 21.5404 16.1769C21.5404 9.40609 27.0508 3.9165 33.8112 3.9165C40.582 3.9165 46.082 9.4165 46.082 16.1873C46.082 22.9582 40.582 28.4478 33.8112 28.4478ZM33.8112 5.479C27.9049 5.479 23.1029 10.2811 23.1029 16.1873C23.1029 22.0936 27.9154 26.8853 33.8112 26.8853C39.707 26.8853 44.5195 22.0832 44.5195 16.1873C44.5195 10.2915 39.7174 5.479 33.8112 5.479Z" fill="#E03300"/>
<path d="M1.30203 30.177L6.91661 30.1979C7.3437 30.1979 7.69786 30.552 7.69786 30.9791V31.3854L11.2708 29.2916C11.3229 29.2604 11.375 29.2395 11.427 29.2187C14.7395 28.1666 18.4062 28.5104 21.5208 30.2083L29.1354 35.2083C30.6979 36.052 31.6145 37.7604 31.7187 39.177L42.802 33.9166C45.8854 32.5729 47.5312 32.9166 48.3645 33.4374C49.052 33.8749 49.4479 34.5729 49.4791 35.4062C49.5104 36.3541 48.9999 37.2916 48.1249 37.8645L33.3854 47.5416C31.9479 48.4791 30.3645 49.0937 28.6666 49.3437C28.0833 49.427 27.4895 49.4791 26.9062 49.4791C25.7812 49.4791 24.6562 49.3229 23.5833 49.0104L15.4583 46.6354C12.7395 45.8437 10.375 45.7604 7.70828 46.3749V47.5416C7.70828 47.7499 7.62495 47.9479 7.47911 48.0937C7.33328 48.2395 7.13537 48.3229 6.92703 48.3229L1.31245 48.302C0.885365 48.302 0.531197 47.9479 0.531197 47.5208V30.9583C0.531197 30.7499 0.614532 30.552 0.760365 30.4062C0.895782 30.2604 1.12495 30.1979 1.30203 30.177ZM15.8854 45.1354L24.0104 47.5104C25.4374 47.927 26.9687 48.0312 28.427 47.802C29.8958 47.5833 31.2812 47.052 32.5208 46.2291L47.2708 36.5624C47.6874 36.2916 47.927 35.8749 47.9166 35.4687C47.9062 35.1562 47.7708 34.9166 47.5312 34.7708C47.1874 34.552 46.1145 34.1874 43.4479 35.3437L30.552 41.4583L30.5416 41.4479C30.3229 41.5312 30.0833 41.5937 29.8124 41.5937C29.5416 41.5937 29.2291 41.5416 28.8958 41.4374C28.8749 41.427 28.7916 41.4062 28.7708 41.3958L23.8541 39.3229C21.2083 38.2083 18.2395 38.0624 15.4895 38.9062L15.0312 37.4166C18.1249 36.4687 21.4791 36.6354 24.4583 37.8854L29.3749 39.9479C29.677 40.0416 29.8437 40.0416 29.9479 40.0104L29.9687 39.9999C30.052 39.9583 30.0833 39.8958 30.1041 39.8645C30.4062 39.1458 29.7395 37.3124 28.3333 36.552L20.7187 31.552C18.052 30.1041 14.8749 29.7916 11.9791 30.6874L7.69786 33.2083V44.7812C10.4999 44.177 13.0104 44.2916 15.8854 45.1354ZM2.08328 46.7395L6.13536 46.7604V31.7604L2.08328 31.7395V46.7395Z" fill="#E03300"/>
<path d="M34.2083 16.802H29.7604V18.3645H30.3854L36.1354 24.1145L37.2396 23.0104L32.5937 18.3645H34.2083C36.2188 18.3645 37.8958 16.9166 38.2604 15.0208H39.2917V13.4583H38.2604C38.1354 12.7916 37.8333 12.1875 37.4167 11.677H39.2917V10.1041H34.2083H28.3542V11.6666H34.2083C35.3542 11.6666 36.3125 12.4166 36.6354 13.4479H28.3438V15.0104H36.6354C36.3021 16.0416 35.3438 16.802 34.2083 16.802Z" fill="#E03300"/>
</g>
<defs>
<clipPath id="clip0_387_4912">
<rect width="50" height="50" fill="white" transform="matrix(-1 0 0 1 50 0)"/>
</clipPath>
</defs>
</svg>
