<svg width="50" height="50" viewBox="0 0 50 50" fill="none" xmlns="http://www.w3.org/2000/svg">
<g clip-path="url(#clip0_387_4959)">
<path d="M41.3798 6.14148C41.3798 4.71323 40.2218 3.55523 38.7936 3.55523H36.2074C36.2074 2.12699 35.0494 0.968994 33.6211 0.968994C32.1929 0.968994 31.0349 2.12699 31.0349 3.55523H27.5866C27.5866 2.12699 26.4286 0.968994 25.0003 0.968994C23.5721 0.968994 22.4141 2.12699 22.4141 3.55523H18.9658C18.9658 2.12699 17.8078 0.968994 16.3795 0.968994C14.9513 0.968994 13.7933 2.12699 13.7933 3.55523H10.345C10.345 2.12699 9.18696 0.968994 7.75872 0.968994C6.33048 0.968994 5.17248 2.12699 5.17248 3.55523H2.58624C1.158 3.55523 0 4.71323 0 6.14148V42.3488C0 42.8249 0.386 43.2109 0.86208 43.2109H3.44832V45.7972C3.44832 46.2732 3.83432 46.6592 4.3104 46.6592H27.0116C27.0229 46.6592 27.0313 46.6534 27.0419 46.6534C31.6078 49.8024 37.5611 50.1017 42.42 47.4258C47.2789 44.7503 50.2086 39.5589 49.9884 34.0168C49.7683 28.4743 46.4357 23.5321 41.3798 21.2502V6.14148ZM32.759 3.55523C32.759 3.07915 33.145 2.69315 33.6211 2.69315C34.0972 2.69315 34.4832 3.07915 34.4832 3.55523V6.14148H32.759V3.55523ZM24.1382 3.55523C24.1382 3.07915 24.5242 2.69315 25.0003 2.69315C25.4764 2.69315 25.8624 3.07915 25.8624 3.55523V6.14148H24.1382V3.55523ZM15.5174 3.55523C15.5174 3.07915 15.9034 2.69315 16.3795 2.69315C16.8556 2.69315 17.2416 3.07915 17.2416 3.55523V6.14148H15.5174V3.55523ZM6.89664 3.55523C6.89664 3.07915 7.28264 2.69315 7.75872 2.69315C8.2348 2.69315 8.6208 3.07915 8.6208 3.55523V6.14148H6.89664V3.55523ZM1.72416 6.14148C1.72416 5.66539 2.11016 5.2794 2.58624 5.2794H5.17248V7.00356C5.17248 7.47964 5.55848 7.86564 6.03456 7.86564H9.48288C9.95896 7.86564 10.345 7.47964 10.345 7.00356V5.2794H13.7933V7.00356C13.7933 7.47964 14.1793 7.86564 14.6554 7.86564H18.1037C18.5798 7.86564 18.9658 7.47964 18.9658 7.00356V5.2794H22.4141V7.00356C22.4141 7.47964 22.8001 7.86564 23.2762 7.86564H26.7245C27.2006 7.86564 27.5866 7.47964 27.5866 7.00356V5.2794H31.0349V7.00356C31.0349 7.47964 31.4209 7.86564 31.897 7.86564H35.3453C35.8214 7.86564 36.2074 7.47964 36.2074 7.00356V5.2794H38.7936C39.2697 5.2794 39.6557 5.66539 39.6557 6.14148V10.4519H1.72416V6.14148ZM5.17248 43.2109H23.5203C23.9602 43.8221 24.4468 44.3984 24.9755 44.9351H5.17248V43.2109ZM48.2765 34.5901C48.2765 41.7318 42.4869 47.5213 35.3453 47.5213C28.2037 47.5213 22.4141 41.7318 22.4141 34.5901C22.4141 27.4485 28.2037 21.6589 35.3453 21.6589C42.4835 21.6669 48.2685 27.4519 48.2765 34.5901ZM35.3453 19.9348C30.196 19.9314 25.4234 22.6321 22.7752 27.0482C20.1271 31.4638 19.9924 36.9465 22.4208 41.4868H1.72416V12.176H39.6557V20.5838C38.2594 20.1532 36.8064 19.9343 35.3453 19.9348Z" fill="#E03300"/>
<path d="M7.75812 15.6245C6.32987 15.6245 5.17188 16.7825 5.17188 18.2108C5.17188 19.639 6.32987 20.797 7.75812 20.797C9.18636 20.797 10.3444 19.639 10.3444 18.2108C10.3444 16.7825 9.18636 15.6245 7.75812 15.6245ZM7.75812 19.0728C7.28204 19.0728 6.89604 18.6868 6.89604 18.2108C6.89604 17.7347 7.28204 17.3487 7.75812 17.3487C8.2342 17.3487 8.6202 17.7347 8.6202 18.2108C8.6202 18.6868 8.2342 19.0728 7.75812 19.0728Z" fill="#E03300"/>
<path d="M16.3792 15.6245C14.951 15.6245 13.793 16.7825 13.793 18.2108C13.793 19.639 14.951 20.797 16.3792 20.797C17.8075 20.797 18.9655 19.639 18.9655 18.2108C18.9655 16.7825 17.8075 15.6245 16.3792 15.6245ZM16.3792 19.0728C15.9031 19.0728 15.5171 18.6868 15.5171 18.2108C15.5171 17.7347 15.9031 17.3487 16.3792 17.3487C16.8553 17.3487 17.2413 17.7347 17.2413 18.2108C17.2413 18.6868 16.8553 19.0728 16.3792 19.0728Z" fill="#E03300"/>
<path d="M25.0003 15.6245C23.5721 15.6245 22.4141 16.7825 22.4141 18.2108C22.4141 19.639 23.5721 20.797 25.0003 20.797C26.4285 20.797 27.5865 19.639 27.5865 18.2108C27.5865 16.7825 26.4285 15.6245 25.0003 15.6245ZM25.0003 19.0728C24.5242 19.0728 24.1382 18.6868 24.1382 18.2108C24.1382 17.7347 24.5242 17.3487 25.0003 17.3487C25.4764 17.3487 25.8624 17.7347 25.8624 18.2108C25.8624 18.6868 25.4764 19.0728 25.0003 19.0728Z" fill="#E03300"/>
<path d="M7.75812 22.521C6.32987 22.521 5.17188 23.679 5.17188 25.1072C5.17188 26.5355 6.32987 27.6935 7.75812 27.6935C9.18636 27.6935 10.3444 26.5355 10.3444 25.1072C10.3444 23.679 9.18636 22.521 7.75812 22.521ZM7.75812 25.9693C7.28204 25.9693 6.89604 25.5833 6.89604 25.1072C6.89604 24.6312 7.28204 24.2452 7.75812 24.2452C8.2342 24.2452 8.6202 24.6312 8.6202 25.1072C8.6202 25.5833 8.2342 25.9693 7.75812 25.9693Z" fill="#E03300"/>
<path d="M16.3792 22.521C14.951 22.521 13.793 23.679 13.793 25.1072C13.793 26.5355 14.951 27.6935 16.3792 27.6935C17.8075 27.6935 18.9655 26.5355 18.9655 25.1072C18.9655 23.679 17.8075 22.521 16.3792 22.521ZM16.3792 25.9693C15.9031 25.9693 15.5171 25.5833 15.5171 25.1072C15.5171 24.6312 15.9031 24.2452 16.3792 24.2452C16.8553 24.2452 17.2413 24.6312 17.2413 25.1072C17.2413 25.5833 16.8553 25.9693 16.3792 25.9693Z" fill="#E03300"/>
<path d="M7.75812 29.418C6.32987 29.418 5.17188 30.576 5.17188 32.0042C5.17188 33.4325 6.32987 34.5905 7.75812 34.5905C9.18636 34.5905 10.3444 33.4325 10.3444 32.0042C10.3444 30.576 9.18636 29.418 7.75812 29.418ZM7.75812 32.8663C7.28204 32.8663 6.89604 32.4803 6.89604 32.0042C6.89604 31.5281 7.28204 31.1421 7.75812 31.1421C8.2342 31.1421 8.6202 31.5281 8.6202 32.0042C8.6202 32.4803 8.2342 32.8663 7.75812 32.8663Z" fill="#E03300"/>
<path d="M16.3792 29.418C14.951 29.418 13.793 30.576 13.793 32.0042C13.793 33.4325 14.951 34.5905 16.3792 34.5905C17.8075 34.5905 18.9655 33.4325 18.9655 32.0042C18.9655 30.576 17.8075 29.418 16.3792 29.418ZM16.3792 32.8663C15.9031 32.8663 15.5171 32.4803 15.5171 32.0042C15.5171 31.5281 15.9031 31.1421 16.3792 31.1421C16.8553 31.1421 17.2413 31.5281 17.2413 32.0042C17.2413 32.4803 16.8553 32.8663 16.3792 32.8663Z" fill="#E03300"/>
<path d="M24.1406 34.5899C24.1406 40.7793 29.1582 45.7969 35.3477 45.7969C41.5371 45.7969 46.5547 40.7793 46.5547 34.5899C46.5547 28.4004 41.5371 23.3828 35.3477 23.3828C29.1611 23.39 24.1478 28.4033 24.1406 34.5899ZM44.8306 34.5899H43.1064C42.6303 34.5899 42.2443 34.9759 42.2443 35.4519C42.2443 35.928 42.6303 36.314 43.1064 36.314H44.666C43.8885 40.4868 40.436 43.6366 36.2097 44.029V42.3486C36.2097 41.8725 35.8237 41.4865 35.3477 41.4865C34.8716 41.4865 34.4856 41.8725 34.4856 42.3486V44.029C30.2594 43.6366 26.8068 40.4868 26.0294 36.314H27.5889C28.065 36.314 28.451 35.928 28.451 35.4519C28.451 34.9759 28.065 34.5899 27.5889 34.5899H25.8648C25.8711 29.6901 29.6065 25.6003 34.4856 25.1512V26.8311C34.4856 27.3072 34.8716 27.6932 35.3477 27.6932C35.8237 27.6932 36.2097 27.3072 36.2097 26.8311V25.1512C41.0888 25.6003 44.8242 29.6901 44.8306 34.5899Z" fill="#E03300"/>
<path d="M35.5296 34.1763L34.3375 32.3877C34.0731 31.9916 33.5377 31.8847 33.1416 32.1486C32.7455 32.413 32.6386 32.9484 32.9029 33.3445L34.6271 35.9308C34.763 36.1337 34.9786 36.2696 35.2202 36.305C35.2614 36.3113 35.3027 36.3147 35.3444 36.3142C35.546 36.3147 35.7413 36.2439 35.8962 36.1151L41.0687 31.8047C41.4349 31.5 41.4846 30.9561 41.1798 30.5903C40.8751 30.2241 40.3312 30.174 39.965 30.4788L35.5296 34.1763Z" fill="#E03300"/>
</g>
<defs>
<clipPath id="clip0_387_4959">
<rect width="50" height="50" fill="white"/>
</clipPath>
</defs>
</svg>
