 <svg
                  width="59"
                  height="15"
                  viewBox="0 0 59 15"
                  fill="none"
                  xmlns="http://www.w3.org/2000/svg"
                >
                  <path
                    d="M43.0674 1.458C43.0674 0.850758 43.5721 0.358192 44.1948 0.358192H57.1964C57.819 0.358192 58.3238 0.850758 58.3238 1.458V14.6116C58.3238 15.2191 57.819 15.7114 57.1964 15.7114H44.1948C43.5721 15.7114 43.0674 15.2191 43.0674 14.6116V1.458Z"
                    fill="#006699"
                  ></path>
                  <path
                    fill-rule="evenodd"
                    clip-rule="evenodd"
                    d="M0.359375 13.2192H6.72632V11.129H2.66349V3.15395H0.359375V13.2192Z"
                    fill="white"
                  ></path>
                  <path
                    fill-rule="evenodd"
                    clip-rule="evenodd"
                    d="M9.95033 13.2192V6.2866H7.64601V13.2192H9.95033ZM8.79817 5.34004C9.60174 5.34004 10.1019 4.80767 10.1019 4.14196C10.0869 3.46188 9.60174 2.9445 8.81349 2.9445C8.02514 2.9445 7.50977 3.46188 7.50977 4.14196C7.50977 4.80767 8.00982 5.34004 8.78313 5.34004H8.79817Z"
                    fill="white"
                  ></path>
                  <path
                    fill-rule="evenodd"
                    clip-rule="evenodd"
                    d="M11.0205 13.2192H13.3249V9.34764C13.3249 9.14044 13.3398 8.93345 13.4008 8.78533C13.5673 8.37154 13.9464 7.94278 14.583 7.94278C15.4169 7.94278 15.7505 8.57874 15.7505 9.51012V13.2192H18.0546V9.24404C18.0546 7.11459 16.9177 6.12371 15.4016 6.12371C14.1586 6.12371 13.6127 6.81855 13.3095 7.29184H13.3249V6.2866H11.0205C11.0508 6.93713 11.0205 13.2192 11.0205 13.2192Z"
                    fill="white"
                  ></path>
                  <path
                    fill-rule="evenodd"
                    clip-rule="evenodd"
                    d="M21.3044 3.15395H19V13.2192H21.3044V10.9716L21.8803 10.2466L23.6844 13.2192H26.5191L23.4874 8.9158L26.1403 5.9879H23.3661C23.3661 5.9879 21.4712 8.60746 21.3044 8.91806V3.15395Z"
                    fill="white"
                  ></path>
                  <path
                    fill-rule="evenodd"
                    clip-rule="evenodd"
                    d="M32.6825 10.3262C32.7127 10.1481 32.7583 9.80657 32.7583 9.42048C32.7583 7.62829 31.8485 5.80902 29.4535 5.80902C26.8914 5.80902 25.709 7.83528 25.709 9.67302C25.709 11.9461 27.1491 13.3657 29.6656 13.3657C30.6662 13.3657 31.5908 13.218 32.3489 12.9074L32.0456 11.3856C31.4241 11.5918 30.7874 11.6948 29.9992 11.6948C28.9229 11.6948 27.983 11.2531 27.9071 10.3114L32.6825 10.3258V10.3262ZM27.8921 8.76728C27.9527 8.17563 28.3469 7.30292 29.3323 7.30292C30.378 7.30292 30.6207 8.23492 30.6207 8.76728H27.8921Z"
                    fill="white"
                  ></path>
                  <path
                    fill-rule="evenodd"
                    clip-rule="evenodd"
                    d="M38.4457 3.15338V6.63765H38.4154C38.0819 6.15001 37.3844 5.82464 36.4599 5.82464C34.6861 5.82464 33.1247 7.24428 33.1398 9.66936C33.1398 11.9174 34.5497 13.3813 36.3082 13.3813C37.2632 13.3813 38.1727 12.9671 38.6275 12.1685H38.6731L38.764 13.2187H40.8107C40.7804 12.7306 40.7498 11.8876 40.7498 11.0597V3.15338H38.4457ZM38.4457 10.0097C38.4457 10.187 38.4305 10.3646 38.4001 10.5123C38.2639 11.1483 37.718 11.5918 37.0511 11.5918C36.096 11.5918 35.4744 10.8229 35.4744 9.61028C35.4744 8.47169 36.0051 7.55488 37.0662 7.55488C37.7786 7.55488 38.2789 8.04272 38.4154 8.64894C38.4457 8.78229 38.4457 8.9302 38.4457 9.06314V10.0097Z"
                    fill="white"
                  ></path>
                  <path
                    fill-rule="evenodd"
                    clip-rule="evenodd"
                    d="M47.6915 13.2095V6.27663H45.3872V13.2095H47.6915ZM46.5394 5.33007C47.3429 5.33007 47.8431 4.7977 47.8431 4.1324C47.8281 3.45212 47.3429 2.93453 46.5546 2.93453C45.7664 2.93453 45.251 3.45212 45.251 4.1324C45.251 4.7977 45.751 5.33007 46.5243 5.33007H46.5394Z"
                    fill="white"
                  ></path>
                  <path
                    fill-rule="evenodd"
                    clip-rule="evenodd"
                    d="M48.9678 13.2095H51.2721V9.33788C51.2721 9.13068 51.2871 8.92368 51.3479 8.77556C51.5145 8.36157 51.8937 7.93281 52.5302 7.93281C53.3641 7.93281 53.6976 8.56857 53.6976 9.50056V13.2095H56.0018V9.23428C56.0018 7.10482 54.8649 6.11394 53.3488 6.11394C52.1057 6.11394 51.56 6.80879 51.2568 7.28207H51.2722V6.27663H48.9678C48.9981 6.92716 48.9678 13.2095 48.9678 13.2095Z"
                    fill="white"
                  ></path>
                </svg>