<svg width="50" height="50" viewBox="0 0 50 50" fill="none" xmlns="http://www.w3.org/2000/svg">
<g clip-path="url(#clip0_387_4943)">
<path d="M23.957 34.4072H26.0406V48.9908H23.957V34.4072Z" fill="#E03300"/>
<path d="M9.375 30.241H40.625V32.3242H9.375V30.241Z" fill="#E03300"/>
<path d="M44.7906 16.699C41.9185 16.699 39.582 14.3625 39.582 11.4908C39.582 8.61873 41.9185 6.28223 44.7906 6.28223C47.6623 6.28223 49.9988 8.61873 49.9988 11.4908C49.9988 14.3625 47.6623 16.699 44.7906 16.699ZM44.7906 8.36581C43.0675 8.36581 41.6656 9.76772 41.6656 11.4908C41.6656 13.2135 43.0675 14.6158 44.7906 14.6158C46.5133 14.6158 47.9156 13.2135 47.9156 11.4908C47.9156 9.76772 46.5133 8.36581 44.7906 8.36581Z" fill="#E03300"/>
<path d="M34.3762 48.9908C34.2388 48.9908 34.0992 48.9645 33.9657 48.9061C33.4366 48.6792 33.1917 48.0669 33.4191 47.5386L36.5441 40.2468C36.7073 39.8638 37.0846 39.6158 37.5012 39.6158H44.793C46.5157 39.6158 47.918 38.2135 47.918 36.4908V22.949C47.918 21.8 46.9834 20.8658 45.8344 20.8658H44.793C44.0617 20.8658 43.396 21.3491 42.4992 22.5367C41.4929 23.8657 38.4388 27.6155 38.3095 27.7738C38.1104 28.0168 37.8147 28.1572 37.5012 28.1572H32.293C31.7177 28.1572 31.2512 28.6241 31.2512 29.199V31.2822C31.2512 31.8582 30.7854 32.324 30.2094 32.324C29.6334 32.324 29.168 31.8582 29.168 31.2822V29.199C29.168 27.4759 30.5699 26.074 32.293 26.074H37.0053C37.8262 25.0635 40.0387 22.3345 40.8367 21.2793C41.7168 20.1166 42.9604 18.7822 44.793 18.7822H45.8344C48.1324 18.7822 50.0012 20.651 50.0012 22.949V36.4908C50.0012 39.3625 47.6647 41.699 44.793 41.699H38.1878L35.3333 48.3595C35.1647 48.7543 34.7802 48.9908 34.3762 48.9908Z" fill="#E03300"/>
<path d="M30.2091 48.9912C30.1008 48.9912 29.9894 48.9733 29.8799 48.937C29.3351 48.7558 29.0395 48.1661 29.2218 47.6191L32.6761 37.2557C33.2414 35.5536 34.831 34.4076 36.6281 34.4076H39.5841V31.2826C39.5841 30.7066 40.0499 30.2412 40.6259 30.2412C41.2019 30.2412 41.6677 30.7066 41.6677 31.2826V35.4494C41.6677 36.0254 41.2019 36.4912 40.6259 36.4912H36.6281C35.7301 36.4912 34.9351 37.063 34.6528 37.9141L31.1979 48.2786C31.0518 48.715 30.6455 48.9912 30.2091 48.9912Z" fill="#E03300"/>
<path d="M40.6229 32.3241C40.4055 32.3241 40.1865 32.2566 39.9992 32.1158C39.5388 31.771 39.4449 31.1179 39.7906 30.6586L42.9155 26.4918C43.2604 26.0314 43.9135 25.9387 44.3731 26.2835C44.8336 26.6284 44.927 27.2814 44.5814 27.7407L41.4564 31.9075C41.2531 32.1803 40.9407 32.3241 40.6229 32.3241Z" fill="#E03300"/>
<path d="M5.20821 16.6993C2.3365 16.6993 0 14.3628 0 11.4911C0 8.61897 2.3365 6.28247 5.20821 6.28247C8.08029 6.28247 10.4168 8.61897 10.4168 11.4911C10.4168 14.3628 8.08029 16.6993 5.20821 16.6993ZM5.20821 8.36606C3.48549 8.36606 2.08321 9.76796 2.08321 11.4911C2.08321 13.2138 3.48549 14.6161 5.20821 14.6161C6.93131 14.6161 8.33321 13.2138 8.33321 11.4911C8.33321 9.76796 6.93131 8.36606 5.20821 8.36606Z" fill="#E03300"/>
<path d="M15.625 48.9911C15.221 48.9911 14.8365 48.7545 14.6679 48.3597L11.8134 41.6993H5.20821C2.3365 41.6993 0 39.3628 0 36.4911V22.9493C0 20.6513 1.86882 18.7825 4.16679 18.7825H5.20821C7.04079 18.7825 8.28552 20.1169 9.16367 21.2796C9.96246 22.3347 12.1738 25.0638 12.9948 26.0743H17.7082C19.4313 26.0743 20.8332 27.4762 20.8332 29.1993V31.2825C20.8332 31.8585 20.3667 32.3243 19.7918 32.3243C19.2165 32.3243 18.75 31.8585 18.75 31.2825V29.1993C18.75 28.6244 18.2823 28.1575 17.7082 28.1575H12.5C12.1864 28.1575 11.8908 28.0171 11.6928 27.7741C11.5635 27.6158 8.5083 23.8659 7.50313 22.5358C6.60515 21.3494 5.94063 20.8661 5.20821 20.8661H4.16679C3.01781 20.8661 2.08321 21.8003 2.08321 22.9493V36.4911C2.08321 38.2138 3.48549 39.6161 5.20821 39.6161H12.5C12.9166 39.6161 13.2938 39.864 13.4571 40.247L16.5821 47.5388C16.8095 48.0671 16.5634 48.6794 16.0355 48.9064C15.9019 48.9647 15.7623 48.9911 15.625 48.9911Z" fill="#E03300"/>
<path d="M19.7906 48.9912C19.3542 48.9912 18.948 48.715 18.8019 48.2786L15.3476 37.9149C15.0646 37.0642 14.2696 36.4912 13.3716 36.4912H9.37383C8.79895 36.4912 8.33203 36.0254 8.33203 35.4494V31.2826C8.33203 30.7066 8.79895 30.2412 9.37383 30.2412C9.9487 30.2412 10.4156 30.7066 10.4156 31.2826V34.4076H13.3716C15.1687 34.4076 16.7572 35.5524 17.3248 37.2557L20.779 47.6191C20.9614 48.1649 20.6665 48.7558 20.1206 48.937C20.0103 48.9733 19.899 48.9912 19.7906 48.9912Z" fill="#E03300"/>
<path d="M9.37521 32.3241C9.05859 32.3241 8.74578 32.1803 8.54055 31.9075L5.41555 27.7407C5.06994 27.2814 5.16378 26.6284 5.62421 26.2835C6.08656 25.9387 6.73849 26.0314 7.08257 26.4918L10.2076 30.6586C10.5532 31.1179 10.4593 31.771 9.99891 32.1158C9.81161 32.2566 9.59188 32.3241 9.37521 32.3241Z" fill="#E03300"/>
<path d="M33.3332 28.1574C32.7572 28.1574 32.2918 27.692 32.2918 27.116V19.8242C32.2918 17.5262 30.423 15.6574 28.125 15.6574H21.875C19.577 15.6574 17.7082 17.5262 17.7082 19.8242V22.9492C17.7082 23.5241 17.2417 23.991 16.6668 23.991C16.0915 23.991 15.625 23.5241 15.625 22.9492V19.8242C15.625 16.3773 18.428 13.5742 21.875 13.5742H28.125C31.572 13.5742 34.375 16.3773 34.375 19.8242V27.116C34.375 27.692 33.9092 28.1574 33.3332 28.1574Z" fill="#E03300"/>
<path d="M25.0012 11.491C22.1295 11.491 19.793 9.15451 19.793 6.28243C19.793 3.41072 22.1295 1.07422 25.0012 1.07422C27.8729 1.07422 30.2094 3.41072 30.2094 6.28243C30.2094 9.15451 27.8729 11.491 25.0012 11.491ZM25.0012 3.15743C23.2781 3.15743 21.8762 4.55971 21.8762 6.28243C21.8762 8.00552 23.2781 9.40743 25.0012 9.40743C26.7243 9.40743 28.1262 8.00552 28.1262 6.28243C28.1262 4.55971 26.7243 3.15743 25.0012 3.15743Z" fill="#E03300"/>
<path d="M23.957 17.7412H26.0406V19.8244H23.957V17.7412Z" fill="#E03300"/>
</g>
<defs>
<clipPath id="clip0_387_4943">
<rect width="50" height="50" fill="white"/>
</clipPath>
</defs>
</svg>
