<svg width="12" height="12" viewBox="0 0 12 12" fill="none" xmlns="http://www.w3.org/2000/svg">
<path fill-rule="evenodd" clip-rule="evenodd" d="M0 5.99805C0 3.60129 0 2.40291 0.571128 1.53975C0.826164 1.15431 1.15626 0.824211 1.5417 0.569175C2.40486 -0.00195312 3.60324 -0.00195312 6 -0.00195312C8.39676 -0.00195312 9.59514 -0.00195312 10.4583 0.569175C10.8437 0.824211 11.1738 1.15431 11.4289 1.53975C12 2.40291 12 3.60129 12 5.99805C12 8.39481 12 9.59319 11.4289 10.4563C11.1738 10.8418 10.8437 11.1719 10.4583 11.4269C9.59514 11.998 8.39676 11.998 6 11.998C3.60324 11.998 2.40486 11.998 1.5417 11.4269C1.15626 11.1719 0.826164 10.8418 0.571128 10.4563C0 9.59319 0 8.39481 0 5.99805ZM9.10617 5.9982C9.10617 7.71375 7.71544 9.10447 5.99989 9.10447C4.28435 9.10447 2.89362 7.71375 2.89362 5.9982C2.89362 4.28265 4.28435 2.89193 5.99989 2.89193C7.71544 2.89193 9.10617 4.28265 9.10617 5.9982ZM5.99989 8.05353C7.13502 8.05353 8.05523 7.13333 8.05523 5.9982C8.05523 4.86307 7.13502 3.94286 5.99989 3.94286C4.86476 3.94286 3.94456 4.86307 3.94456 5.9982C3.94456 7.13333 4.86476 8.05353 5.99989 8.05353ZM9.22885 3.46575C9.63195 3.46575 9.95873 3.13897 9.95873 2.73586C9.95873 2.33276 9.63195 2.00598 9.22885 2.00598C8.82575 2.00598 8.49897 2.33276 8.49897 2.73586C8.49897 3.13897 8.82575 3.46575 9.22885 3.46575Z" fill="white"/>
</svg>
