<svg width="40" height="40" viewBox="0 0 40 40" fill="none" xmlns="http://www.w3.org/2000/svg">
<g filter="url(#filter0_bd_94_4841)">
<circle cx="20" cy="16" r="16" fill="#FCEBE6"/>
</g>
<path d="M23.9062 9.125C22.293 9.125 20.8805 9.81875 20 10.9914C19.1195 9.81875 17.707 9.125 16.0938 9.125C14.8096 9.12645 13.5784 9.63723 12.6703 10.5453C11.7622 11.4534 11.2514 12.6846 11.25 13.9688C11.25 19.4375 19.3586 23.8641 19.7039 24.0469C19.7949 24.0958 19.8967 24.1215 20 24.1215C20.1033 24.1215 20.2051 24.0958 20.2961 24.0469C20.6414 23.8641 28.75 19.4375 28.75 13.9688C28.7486 12.6846 28.2378 11.4534 27.3297 10.5453C26.4216 9.63723 25.1904 9.12645 23.9062 9.125ZM20 22.7812C18.5734 21.95 12.5 18.1633 12.5 13.9688C12.5012 13.016 12.8803 12.1026 13.554 11.429C14.2276 10.7553 15.141 10.3762 16.0938 10.375C17.6133 10.375 18.8891 11.1844 19.4219 12.4844C19.469 12.599 19.5491 12.6971 19.652 12.7661C19.7549 12.8351 19.8761 12.8719 20 12.8719C20.1239 12.8719 20.2451 12.8351 20.348 12.7661C20.4509 12.6971 20.531 12.599 20.5781 12.4844C21.1109 11.182 22.3867 10.375 23.9062 10.375C24.859 10.3762 25.7724 10.7553 26.446 11.429C27.1197 12.1026 27.4988 13.016 27.5 13.9688C27.5 18.157 21.425 21.9492 20 22.7812Z" fill="#A92600"/>
<defs>
<filter id="filter0_bd_94_4841" x="-1" y="-5" width="42" height="45" filterUnits="userSpaceOnUse" color-interpolation-filters="sRGB">
<feFlood flood-opacity="0" result="BackgroundImageFix"/>
<feGaussianBlur in="BackgroundImageFix" stdDeviation="2.5"/>
<feComposite in2="SourceAlpha" operator="in" result="effect1_backgroundBlur_94_4841"/>
<feColorMatrix in="SourceAlpha" type="matrix" values="0 0 0 0 0 0 0 0 0 0 0 0 0 0 0 0 0 0 127 0" result="hardAlpha"/>
<feOffset dy="4"/>
<feGaussianBlur stdDeviation="2"/>
<feComposite in2="hardAlpha" operator="out"/>
<feColorMatrix type="matrix" values="0 0 0 0 0 0 0 0 0 0 0 0 0 0 0 0 0 0 0.25 0"/>
<feBlend mode="normal" in2="effect1_backgroundBlur_94_4841" result="effect2_dropShadow_94_4841"/>
<feBlend mode="normal" in="SourceGraphic" in2="effect2_dropShadow_94_4841" result="shape"/>
</filter>
</defs>
</svg>
