<svg width="22" height="22" viewBox="0 0 22 22" fill="none" xmlns="http://www.w3.org/2000/svg">
<path d="M20.1666 3.18138V18.8186C20.1666 19.1762 20.0246 19.519 19.7718 19.7718C19.519 20.0247 19.1761 20.1667 18.8186 20.1667H3.18135C2.82383 20.1667 2.48095 20.0247 2.22814 19.7718C1.97534 19.519 1.83331 19.1762 1.83331 18.8186V3.18138C1.83331 2.82386 1.97534 2.48098 2.22814 2.22818C2.48095 1.97537 2.82383 1.83334 3.18135 1.83334L18.8186 1.83334C19.1761 1.83334 19.519 1.97537 19.7718 2.22818C20.0246 2.48098 20.1666 2.82386 20.1666 3.18138ZM7.22547 8.84315H4.52939V17.4706H7.22547V8.84315ZM7.46812 5.87746C7.46954 5.67352 7.43078 5.4713 7.35404 5.28235C7.27731 5.09339 7.16411 4.9214 7.02091 4.7762C6.8777 4.63099 6.7073 4.51541 6.51943 4.43606C6.33156 4.35671 6.1299 4.31515 5.92596 4.31374H5.87743C5.4627 4.31374 5.06496 4.47848 4.77171 4.77174C4.47845 5.065 4.3137 5.46273 4.3137 5.87746C4.3137 6.29219 4.47845 6.68993 4.77171 6.98318C5.06496 7.27644 5.4627 7.44119 5.87743 7.44119C6.08138 7.4462 6.28432 7.41098 6.47466 7.33754C6.66499 7.2641 6.83899 7.15388 6.98671 7.01317C7.13443 6.87246 7.25298 6.70402 7.33558 6.51748C7.41818 6.33093 7.46322 6.12994 7.46812 5.92599V5.87746ZM17.4706 12.2294C17.4706 9.63579 15.8206 8.62746 14.1814 8.62746C13.6446 8.60059 13.1103 8.7149 12.6315 8.959C12.1528 9.20311 11.7464 9.56846 11.4529 10.0186H11.3774V8.84315H8.84312V17.4706H11.5392V12.8819C11.5002 12.4119 11.6483 11.9455 11.9511 11.5841C12.254 11.2227 12.6873 10.9953 13.1568 10.9515H13.2593C14.1166 10.9515 14.7529 11.4907 14.7529 12.8495V17.4706H17.449L17.4706 12.2294Z" fill="white"/>
</svg>
