<svg width="50" height="50" viewBox="0 0 50 50" fill="none" xmlns="http://www.w3.org/2000/svg">
<path d="M43.7942 21.8521V13.6326C43.7942 12.4822 43.3464 11.4008 42.5333 10.5876L33.2075 1.26195C32.3936 0.448158 31.3123 0 30.1626 0H9.98507C8.33092 0 6.98498 1.34584 6.98498 2.99999V15.6901C4.75815 16.2094 3.09375 18.2092 3.09375 20.5919V32.9018C3.09375 33.3064 3.42159 33.6343 3.82619 33.6343C4.2308 33.6343 4.55864 33.3064 4.55864 32.9018V20.5919C4.55864 18.6237 6.15986 17.0225 8.12808 17.0225H17.4848C18.7161 17.0225 19.8442 17.6442 20.5025 18.6853L21.7056 20.5886C22.6336 22.057 24.2246 22.9337 25.9616 22.9337H41.8693C43.8374 22.9337 45.4387 24.5349 45.4387 26.5031V44.9656C45.4387 46.9338 43.8375 48.535 41.8693 48.535H8.12808C6.15995 48.535 4.55864 46.9338 4.55864 44.9656V36.3198C4.55864 35.9153 4.2308 35.5874 3.82619 35.5874C3.42159 35.5874 3.09375 35.9153 3.09375 36.3198V44.9656C3.09375 47.7415 5.35212 49.9999 8.12808 49.9999H41.8693C44.6453 49.9999 46.9036 47.7415 46.9036 44.9656V26.5031C46.9036 24.4088 45.6178 22.6096 43.7942 21.8521ZM25.9617 21.4689C24.7301 21.4689 23.6021 20.8473 22.944 19.8061L21.7408 17.9027C20.8124 16.4343 19.2215 15.5577 17.4849 15.5577H8.44996V2.99999C8.44996 2.15358 9.13865 1.46489 9.98516 1.46489H30.1626C30.419 1.46489 30.67 1.49946 30.9111 1.56499V4.20569C30.9111 4.61019 31.2389 4.93813 31.6435 4.93813C32.0481 4.93813 32.376 4.61019 32.376 4.20569V2.50212L41.2937 11.4198H33.9112C33.0646 11.4198 32.376 10.7311 32.376 9.88457V7.62376C32.376 7.21926 32.0481 6.89132 31.6435 6.89132C31.2389 6.89132 30.9111 7.21926 30.9111 7.62376V9.88457C30.9111 11.5388 32.2569 12.8847 33.9112 12.8847H42.2296C42.2948 13.1255 42.3293 13.3763 42.3293 13.6326V21.4909C42.1777 21.4771 42.0245 21.469 41.8694 21.469L25.9617 21.4689Z" fill="#E03300"/>
<path d="M25.0007 24.415C21.1974 24.415 18.1031 27.5094 18.1031 31.3127V34.209C16.989 34.7479 16.2188 35.8896 16.2188 37.2079V43.5499C16.2188 45.3851 17.7123 46.8781 19.5479 46.8781H30.4545C32.2902 46.8781 33.7837 45.3851 33.7837 43.5499V42.0879C33.7837 41.6834 33.4559 41.3555 33.0513 41.3555C32.6467 41.3555 32.3188 41.6834 32.3188 42.0879V43.5499C32.3188 44.5773 31.4826 45.4132 30.4545 45.4132H19.5479C18.52 45.4132 17.6836 44.5773 17.6836 43.5499V37.2079C17.6836 36.1799 18.5199 35.3436 19.5479 35.3436H30.4545C31.4825 35.3436 32.3188 36.1798 32.3188 37.2079V38.6699C32.3188 39.0744 32.6467 39.4023 33.0513 39.4023C33.4559 39.4023 33.7837 39.0744 33.7837 38.6699V37.2079C33.7837 35.8896 33.0135 34.7479 31.8994 34.209V31.3127C31.8993 27.5094 28.8051 24.415 25.0007 24.415ZM25.0017 25.8799C27.9974 25.8799 30.4345 28.3171 30.4345 31.3127V33.8787H28.9696V31.3127C28.9696 29.1248 27.1896 27.3448 25.0017 27.3448C22.8133 27.3448 21.0329 29.1248 21.0329 31.3127V33.8787H19.568V31.3127C19.568 28.3171 22.0051 25.8799 25.0017 25.8799ZM27.5046 33.8787H22.4976V31.3127C22.4976 29.9326 23.6209 28.8097 25.0016 28.8097C26.3818 28.8097 27.5046 29.9326 27.5046 31.3127V33.8787Z" fill="#E03300"/>
<path d="M24.9996 43.6479C25.4042 43.6479 25.732 43.32 25.732 42.9155V41.6863C26.6686 41.3778 27.3468 40.4951 27.3468 39.4566C27.3468 38.1623 26.2939 37.1094 24.9996 37.1094C23.7053 37.1094 22.6523 38.1623 22.6523 39.4566C22.6523 40.4952 23.3306 41.3778 24.2671 41.6863V42.9155C24.2671 43.32 24.595 43.6479 24.9996 43.6479ZM24.9996 38.5743C25.4861 38.5743 25.8819 38.9701 25.8819 39.4566C25.8819 39.9432 25.4861 40.3391 24.9996 40.3391C24.513 40.3391 24.1172 39.9432 24.1172 39.4566C24.1172 38.9702 24.5129 38.5743 24.9996 38.5743Z" fill="#E03300"/>
<path d="M26.6112 5.87109H12.2637C11.8591 5.87109 11.5312 6.19903 11.5312 6.60354C11.5312 7.00804 11.8591 7.33598 12.2637 7.33598H26.6112C27.0158 7.33598 27.3436 7.00804 27.3436 6.60354C27.3436 6.19903 27.0157 5.87109 26.6112 5.87109Z" fill="#E03300"/>
<path d="M26.6112 9.36719H12.2637C11.8591 9.36719 11.5312 9.69513 11.5312 10.0996C11.5312 10.5041 11.8591 10.8321 12.2637 10.8321H26.6112C27.0158 10.8321 27.3436 10.5041 27.3436 10.0996C27.3436 9.69513 27.0157 9.36719 26.6112 9.36719Z" fill="#E03300"/>
</svg>
