<svg width="50" height="50" viewBox="0 0 50 50" fill="none" xmlns="http://www.w3.org/2000/svg">
<path d="M14.442 20.0317C14.5102 20.8913 14.1928 22.7901 14.8725 23.4765C15.0036 23.6336 15.1913 23.7329 15.395 23.7529C15.5986 23.773 15.802 23.7121 15.9612 23.5835C16.1204 23.4549 16.2227 23.2688 16.2459 23.0654C16.2691 22.8621 16.2114 22.6578 16.0853 22.4966C15.9038 22.468 16.0431 20.1659 16.0012 20.0317C16.0015 19.2983 16.2326 18.5835 16.6617 17.9886C17.0909 17.3938 17.6963 16.9491 18.3923 16.7175L23.013 15.1746C24.2934 14.7492 25.677 14.7489 26.9576 15.1739L31.5802 16.7171C32.2762 16.9487 32.8818 17.3935 33.311 17.9884C33.7402 18.5833 33.9713 19.2982 33.9716 20.0317V22.2382C33.9716 22.3311 33.9409 22.4214 33.8844 22.4951C33.8219 22.5762 33.776 22.6688 33.7492 22.7676C33.7225 22.8664 33.7155 22.9696 33.7287 23.0711C33.7418 23.1726 33.7749 23.2706 33.8259 23.3594C33.8769 23.4481 33.9449 23.526 34.026 23.5884C34.8852 24.1958 35.574 23.0115 35.5308 22.2381L35.5309 20.0317C35.5308 18.9711 35.1969 17.9374 34.5766 17.077C33.9563 16.2167 33.081 15.5734 32.0747 15.2382L28.1441 13.9259C33.0162 10.8549 30.8291 3.11963 24.9867 3.125C19.1443 3.12505 16.9567 10.8484 21.8296 13.9256L17.8978 15.2386C16.8916 15.5737 16.0163 16.217 15.3961 17.0773C14.7758 17.9375 14.442 18.9712 14.442 20.0317ZM20.6809 8.99048C20.8617 3.29985 29.1126 3.30064 29.2931 8.99057C29.1118 14.6809 20.8609 14.6791 20.6809 8.99048Z" fill="#E03300"/>
<path d="M43.9353 14.7939L41.0451 13.8326C41.877 13.225 42.4954 12.3697 42.8119 11.3893C43.1284 10.4088 43.1266 9.3534 42.807 8.37399C42.4873 7.39458 41.8661 6.54137 41.0321 5.93641C40.1982 5.33145 39.1943 5.00573 38.164 5.00586C37.1338 5.00599 36.1299 5.33195 35.2962 5.93712C34.4624 6.54228 33.8413 7.39565 33.5219 8.37514C33.2025 9.35462 33.201 10.41 33.5177 11.3904C33.8344 12.3708 34.4531 13.2259 35.2852 13.8334C35.1851 13.8607 35.0915 13.9078 35.0099 13.9718C34.9282 14.0357 34.8602 14.1154 34.8097 14.206C34.7591 14.2966 34.7272 14.3963 34.7157 14.4994C34.7042 14.6025 34.7134 14.7069 34.7427 14.8064C34.772 14.9059 34.8209 14.9985 34.8864 15.0789C34.9519 15.1593 35.0329 15.2258 35.1244 15.2746C35.216 15.3233 35.3163 15.3533 35.4196 15.3628C35.5229 15.3723 35.6271 15.3611 35.726 15.3299C36.4949 15.0097 37.3129 14.8236 38.1446 14.7796C39.2603 14.6898 42.3495 15.9693 43.4401 16.2724C43.9733 16.4511 44.437 16.7927 44.7657 17.249C45.0944 17.7054 45.2714 18.2534 45.2719 18.8158V20.5936C45.2722 20.6481 45.2512 20.7007 45.2134 20.74C45.1756 20.7793 45.1239 20.8023 45.0694 20.8041H37.873C37.6662 20.8041 37.4679 20.8862 37.3217 21.0324C37.1755 21.1786 37.0934 21.377 37.0934 21.5837C37.0934 21.7905 37.1755 21.9888 37.3217 22.135C37.4679 22.2812 37.6662 22.3634 37.873 22.3634H45.0694C45.5375 22.3617 45.9859 22.1745 46.3162 21.8427C46.6465 21.511 46.8317 21.0617 46.8312 20.5936V18.8158C46.8307 17.9265 46.5509 17.0599 46.0313 16.3382C45.5117 15.6166 44.7785 15.0764 43.9353 14.7939ZM38.1511 13.22C37.2749 13.2088 36.4384 12.8524 35.8233 12.2281C35.2082 11.6039 34.8642 10.7622 34.866 9.8859C34.8678 9.00955 35.2152 8.16929 35.8328 7.54754C36.4504 6.9258 37.2883 6.57277 38.1646 6.56512C39.0409 6.57632 39.8773 6.93273 40.4924 7.55697C41.1075 8.1812 41.4515 9.02287 41.4497 9.89921C41.4479 10.7756 41.1005 11.6158 40.4829 12.2376C39.8654 12.8593 39.0274 13.2123 38.1511 13.22Z" fill="#E03300"/>
<path d="M12.8861 21.5837C12.8861 21.377 12.8039 21.1787 12.6577 21.0325C12.5115 20.8863 12.3132 20.8041 12.1064 20.8041H4.93364C4.87912 20.8023 4.82744 20.7793 4.78962 20.74C4.7518 20.7007 4.73081 20.6481 4.73112 20.5936V18.8158C4.73146 18.254 4.90809 17.7064 5.23611 17.2502C5.56414 16.7941 6.02703 16.4524 6.55955 16.2732L10.2872 15.0337C11.6033 14.6413 13.0176 14.7442 14.263 15.3231C14.4581 15.3833 14.669 15.3646 14.8505 15.271C15.0319 15.1774 15.1695 15.0164 15.2336 14.8226C15.2976 14.6287 15.2832 14.4175 15.1932 14.2342C15.1033 14.0509 14.945 13.9102 14.7525 13.8422C15.3558 13.3734 15.8462 12.7752 16.1877 12.0918C16.5292 11.4083 16.713 10.6569 16.7255 9.893C16.726 9.05782 16.5123 8.23647 16.1049 7.50741C15.6974 6.77836 15.1099 6.16596 14.3983 5.72872C13.6867 5.29147 12.8749 5.044 12.0404 5.00993C11.2059 4.97586 10.3766 5.15633 9.63178 5.53411C8.88693 5.91189 8.25139 6.47435 7.78587 7.16777C7.32036 7.86118 7.04042 8.66237 6.97281 9.49481C6.90519 10.3273 7.05216 11.1631 7.39967 11.9226C7.74718 12.682 8.28362 13.3397 8.95774 13.8327L6.06428 14.7947C5.22182 15.0777 4.48947 15.618 3.97052 16.3394C3.45157 17.0609 3.17222 17.9271 3.17188 18.8158V20.5936C3.17137 21.0617 3.35657 21.511 3.68684 21.8427C4.01712 22.1745 4.4655 22.3617 4.93364 22.3634H12.1064C12.3132 22.3634 12.5115 22.2812 12.6577 22.135C12.8039 21.9888 12.8861 21.7905 12.8861 21.5837ZM11.8381 6.56513C12.715 6.57291 13.5533 6.92649 14.171 7.54901C14.7886 8.17153 15.1356 9.01267 15.1364 9.8896C15.1373 10.7665 14.792 11.6084 14.1757 12.2321C13.5593 12.8559 12.7216 13.2111 11.8447 13.2207C10.9678 13.2129 10.1295 12.8593 9.51182 12.2368C8.89419 11.6143 8.54722 10.7731 8.54634 9.89619C8.54547 9.01927 8.89075 8.17744 9.50713 7.55368C10.1235 6.92993 10.9612 6.57467 11.8381 6.56513Z" fill="#E03300"/>
<path d="M35.6053 31.6774C35.3382 30.6615 34.9469 29.6824 34.4404 28.7622C34.6196 28.6207 34.767 28.4431 34.873 28.2409C34.9789 28.0386 35.041 27.8163 35.0552 27.5885C35.0694 27.3606 35.0354 27.1323 34.9555 26.9185C34.8755 26.7047 34.7514 26.5101 34.5911 26.3475L33.054 24.8103C32.8849 24.6492 32.6841 24.525 32.4644 24.4456C32.2448 24.3661 32.011 24.3332 31.7779 24.3488C31.5449 24.3644 31.3176 24.4283 31.1105 24.5364C30.9035 24.6445 30.7211 24.7944 30.575 24.9767C29.6682 24.4476 28.6993 24.0328 27.6906 23.7417C27.7176 23.5149 27.6964 23.2849 27.6284 23.0668C27.5604 22.8487 27.4472 22.6474 27.2961 22.4761C27.145 22.3048 26.9595 22.1672 26.7516 22.0725C26.5438 21.9777 26.3182 21.9279 26.0898 21.9263H23.9131C23.6842 21.9263 23.4579 21.975 23.2492 22.0692C23.0406 22.1634 22.8544 22.3009 22.7029 22.4726C22.393 22.841 22.2405 23.3166 22.2785 23.7966C21.2626 24.0637 20.2835 24.4549 19.3632 24.9614C19.2227 24.7809 19.0455 24.6322 18.8432 24.5253C18.6409 24.4184 18.4183 24.3557 18.19 24.3413C17.9618 24.3288 17.7335 24.364 17.5197 24.4449C17.3059 24.5257 17.1114 24.6503 16.9486 24.8107L15.4114 26.3478C15.2502 26.5169 15.1259 26.7177 15.0463 26.9374C14.9668 27.157 14.9339 27.3908 14.9495 27.6239C14.9652 27.857 15.0291 28.0843 15.1372 28.2914C15.2454 28.4985 15.3954 28.6808 15.5778 28.8268C15.0487 29.7337 14.6339 30.7025 14.3428 31.7112C14.1157 31.6826 13.885 31.7026 13.6662 31.7699C13.4474 31.8372 13.2454 31.9504 13.0737 32.1018C12.902 32.2532 12.7644 32.4394 12.6702 32.6481C12.576 32.8568 12.5273 33.0831 12.5273 33.312V35.4888C12.5274 35.7177 12.5761 35.944 12.6703 36.1526C12.7645 36.3612 12.902 36.5475 13.0736 36.6989C13.4431 37.0069 13.9179 37.1591 14.3976 37.1234C14.6648 38.1392 15.056 39.1184 15.5625 40.0386C15.3818 40.179 15.2331 40.3563 15.1262 40.5586C15.0192 40.7608 14.9566 40.9836 14.9423 41.2119C14.9281 41.4403 14.9625 41.6691 15.0435 41.8831C15.1244 42.0971 15.2499 42.2915 15.4117 42.4533L16.9489 43.9905C17.1181 44.1514 17.3189 44.2755 17.5385 44.3549C17.7581 44.4343 17.9919 44.4672 18.2249 44.4515C18.4579 44.4359 18.6852 44.3721 18.8922 44.264C19.0993 44.156 19.2817 44.0062 19.4279 43.8241C20.3347 44.3531 21.3035 44.768 22.3122 45.059C22.2853 45.2859 22.3065 45.5158 22.3745 45.7339C22.4424 45.952 22.5557 46.1533 22.7067 46.3246C22.8578 46.496 23.0434 46.6335 23.2512 46.7282C23.4591 46.823 23.6846 46.8728 23.913 46.8744L26.0898 46.8745C26.3187 46.8745 26.545 46.8257 26.7536 46.7316C26.9623 46.6374 27.1485 46.4999 27.2999 46.3282C27.6098 45.9598 27.7623 45.4842 27.7244 45.0042C28.7403 44.7371 29.7194 44.3458 30.6397 43.8394C30.7802 44.02 30.9574 44.1688 31.1597 44.2757C31.362 44.3826 31.5847 44.4453 31.8131 44.4595C32.0414 44.4738 32.2702 44.4393 32.4842 44.3584C32.6982 44.2775 32.8926 44.1519 33.0544 43.9902L34.5916 42.453C34.7528 42.2839 34.8771 42.0831 34.9566 41.8635C35.0361 41.6438 35.0691 41.41 35.0535 41.1769C35.0378 40.9438 34.9739 40.7165 34.8657 40.5094C34.7576 40.3023 34.6075 40.12 34.4252 39.974C34.9364 39.0582 35.3503 38.0915 35.6601 37.0895C35.8869 37.1164 36.1169 37.0952 36.3349 37.0272C36.553 36.9592 36.7543 36.846 36.9256 36.6949C37.097 36.5439 37.2345 36.3583 37.3293 36.1505C37.4241 35.9426 37.4739 35.7171 37.4756 35.4887V33.312C37.4702 33.0785 37.4162 32.8486 37.3171 32.6371C37.2181 32.4255 37.0761 32.2369 36.9002 32.0831C36.7243 31.9294 36.5183 31.8139 36.2954 31.7441C36.0725 31.6742 35.8375 31.6515 35.6053 31.6774ZM35.9163 35.4888L35.8543 35.5421C35.4654 35.493 35.0721 35.5875 34.748 35.8078C34.4239 36.0282 34.1913 36.3593 34.094 36.7389C33.9275 38.2653 31.8901 39.9436 33.4818 41.2686C33.4853 41.2713 33.485 41.3482 33.4887 41.3509L31.9519 42.8877L31.8697 42.8808C31.629 42.5714 31.2838 42.3605 30.8987 42.2874C30.5136 42.2144 30.1151 42.2843 29.7779 42.4841C28.5859 43.4415 25.95 43.1913 26.1435 45.2543L26.9171 45.1565L26.0899 45.3153H23.9131L23.8598 45.2532C23.9088 44.8644 23.8143 44.471 23.5939 44.147C23.3736 43.8229 23.0425 43.5903 22.6629 43.4929C21.8062 43.2754 20.9853 42.9356 20.2254 42.4841C19.8881 42.2846 19.4896 42.2148 19.1045 42.2878C18.7194 42.3609 18.3741 42.5717 18.1332 42.8808C18.1306 42.8842 18.0537 42.8839 18.051 42.8877L16.5142 41.3509L15.963 41.9021L16.521 41.2686C16.8304 41.0279 17.0413 40.6827 17.1143 40.2976C17.1874 39.9125 17.1175 39.514 16.9177 39.1768C15.9612 37.9837 16.2093 35.3524 14.1475 35.5424L14.0866 35.4888V33.312L14.1487 33.2587C14.5373 33.3069 14.9303 33.212 15.2541 32.9917C15.578 32.7715 15.8108 32.441 15.9089 32.0619C16.1265 31.2052 16.4662 30.3843 16.9177 29.6244C17.1175 29.2871 17.1874 28.8885 17.1144 28.5034C17.0414 28.1182 16.8304 27.7729 16.5211 27.5322C16.5176 27.5295 16.518 27.4526 16.5142 27.45L18.051 25.9132L18.1332 25.92C19.458 27.5099 21.1373 25.4777 22.6626 25.308C23.0424 25.2105 23.3735 24.9778 23.5939 24.6534C23.8143 24.3291 23.9087 23.9355 23.8594 23.5465L23.9131 23.4856H26.0898L26.1431 23.5476C26.0941 23.9364 26.1887 24.3298 26.409 24.6538C26.6294 24.9779 26.9604 25.2105 27.34 25.3079C28.1967 25.5254 29.0176 25.8652 29.7775 26.3167C30.1149 26.5162 30.5134 26.586 30.8984 26.513C31.2835 26.44 31.6288 26.2292 31.8697 25.92C31.8724 25.9166 31.9493 25.9169 31.9519 25.9131L33.4887 27.4499L33.4819 27.5322C31.8916 28.8579 33.9243 30.5356 34.0939 32.0615C34.1925 32.4407 34.4255 32.7711 34.7495 32.9913C35.0736 33.2115 35.4666 33.3064 35.8554 33.2584L35.9164 33.3121L35.9163 35.4888Z" fill="#E03300"/>
<path d="M24.9988 27.2651C23.5875 27.2651 22.2079 27.6836 21.0345 28.4677C19.8611 29.2517 18.9465 30.3661 18.4064 31.67C17.8664 32.9738 17.7251 34.4085 18.0004 35.7927C18.2757 37.1768 18.9553 38.4482 19.9532 39.4462C20.9511 40.4441 22.2226 41.1237 23.6067 41.399C24.9908 41.6743 26.4256 41.533 27.7294 40.9929C29.0332 40.4529 30.1476 39.5383 30.9317 38.3649C31.7158 37.1914 32.1342 35.8119 32.1342 34.4006C32.132 32.5088 31.3796 30.6952 30.0419 29.3575C28.7042 28.0198 26.8905 27.2673 24.9988 27.2651ZM24.9988 39.9769C23.8959 39.9769 22.8178 39.6498 21.9008 39.0371C20.9838 38.4244 20.2691 37.5535 19.847 36.5346C19.425 35.5157 19.3145 34.3945 19.5297 33.3128C19.7448 32.2311 20.2759 31.2375 21.0558 30.4577C21.8356 29.6778 22.8292 29.1467 23.9109 28.9316C24.9926 28.7164 26.1138 28.8268 27.1327 29.2489C28.1516 29.6709 29.0225 30.3857 29.6352 31.3027C30.2479 32.2197 30.575 33.2978 30.575 34.4007C30.5733 35.879 29.9853 37.2964 28.9399 38.3418C27.8945 39.3871 26.4771 39.9752 24.9988 39.9769Z" fill="#E03300"/>
<path d="M26.7889 32.2899L24.2216 34.8572L23.2136 33.8491C23.0674 33.7029 22.8691 33.6208 22.6624 33.6208C22.4556 33.6208 22.2573 33.7029 22.1111 33.8491C21.9649 33.9953 21.8828 34.1936 21.8828 34.4003C21.8828 34.6071 21.9649 34.8054 22.1111 34.9516L23.6704 36.5108C23.7428 36.5832 23.8287 36.6407 23.9233 36.6799C24.0179 36.7191 24.1192 36.7392 24.2216 36.7392C24.324 36.7392 24.4254 36.7191 24.52 36.6799C24.6145 36.6407 24.7005 36.5832 24.7729 36.5108L27.8914 33.3923C27.9638 33.3199 28.0212 33.234 28.0604 33.1394C28.0995 33.0448 28.1197 32.9434 28.1197 32.8411C28.1197 32.7387 28.0995 32.6373 28.0604 32.5428C28.0212 32.4482 27.9638 32.3622 27.8914 32.2898C27.819 32.2175 27.7331 32.16 27.6385 32.1209C27.5439 32.0817 27.4425 32.0615 27.3402 32.0615C27.2378 32.0615 27.1364 32.0817 27.0418 32.1209C26.9473 32.16 26.8613 32.2175 26.7889 32.2899Z" fill="#E03300"/>
</svg>
