<svg width="22" height="22" viewBox="0 0 22 22" fill="none" xmlns="http://www.w3.org/2000/svg">
<path d="M20.1666 5.43087C19.4924 5.72962 18.7682 5.93148 18.0068 6.02272C18.7835 5.55764 19.3794 4.81966 19.6604 3.94118C18.9337 4.37234 18.1287 4.68562 17.272 4.85357C16.5857 4.12366 15.6087 3.66666 14.5268 3.66666C12.4501 3.66666 10.7658 5.35094 10.7658 7.42924C10.7658 7.72315 10.7997 8.00897 10.8627 8.28511C7.73557 8.12767 4.9653 6.6299 3.10985 4.35458C2.78688 4.9117 2.60117 5.55764 2.60117 6.24556C2.60117 7.55036 3.26568 8.70255 4.27415 9.37675C3.65728 9.35656 3.07755 9.18781 2.57049 8.90602V8.95447C2.57049 10.7768 3.8664 12.2972 5.58783 12.6428C5.27132 12.7284 4.93947 12.7736 4.59712 12.7736C4.35489 12.7736 4.11832 12.751 3.88901 12.7074C4.36781 14.2011 5.75658 15.2895 7.40291 15.3186C6.11507 16.3278 4.49296 16.9294 2.73117 16.9294C2.42758 16.9294 2.12802 16.9116 1.83331 16.8769C3.49822 17.9451 5.47479 18.5668 7.59831 18.5668C14.5179 18.5668 18.3007 12.8357 18.3007 7.86525C18.3007 7.70377 18.2967 7.54067 18.2894 7.37918C19.0241 6.8479 19.662 6.18662 20.165 5.4333L20.1666 5.43087Z" fill="white"/>
</svg>
